<svg width="22" height="22" viewBox="0 0 22 22" fill="none" xmlns="http://www.w3.org/2000/svg">
<path d="M21.6152 0.0193627C21.9373 -0.0517196 22.0024 0.0729862 21.9999 0.392233C21.9849 3.74557 21.9912 7.09766 21.9912 10.451C18.1881 10.4872 14.3851 10.5183 10.5821 10.5645C10.1097 10.5707 10.0495 10.3188 10.0508 9.94594C10.057 7.41691 10.0646 4.88788 10.0445 2.36009C10.0407 1.86376 10.235 1.68169 10.7061 1.6156C12.6897 1.34 14.6683 1.03696 16.6494 0.746397C18.3047 0.503221 19.96 0.262539 21.6152 0.0206097V0.0193627Z" fill="#0078D6"/>
<path d="M21.9912 11.5684V22C18.1656 21.4675 14.3412 20.9325 10.5144 20.4063C10.1247 20.3526 10.0495 20.1257 10.0495 19.7915C10.052 17.2325 10.052 14.6735 10.0407 12.1158C10.0395 11.7267 10.1711 11.5546 10.5833 11.5559C14.3851 11.5671 18.1881 11.5671 21.9899 11.5696L21.9912 11.5684Z" fill="#0078D6"/>
<path d="M0 3.09336C2.18533 2.79407 4.36941 2.49228 6.556 2.19548C7.22262 2.10569 7.89176 2.0371 8.55838 1.94607C8.89295 1.89993 9.04958 1.99345 9.04833 2.3576C9.03956 4.93277 9.0383 7.50794 9.05083 10.0831C9.05334 10.5333 8.80649 10.5682 8.45312 10.5794C5.635 10.6655 2.81687 10.6231 0 10.6368C0 8.12274 0 5.60743 0 3.09336Z" fill="#0078D6"/>
<path d="M0 11.4761C2.8482 11.4761 5.69765 11.4761 8.54585 11.4723C8.90047 11.4723 9.04707 11.6145 9.04707 11.9737C9.03956 14.5638 9.0383 17.1552 9.04958 19.7453C9.05209 20.1656 8.84032 20.1905 8.51327 20.1456C5.94075 19.7915 3.36822 19.4435 0.794438 19.0956C0.531296 19.0607 0.265648 19.0457 0.00125306 19.0208C0.00125306 16.5067 0.00125306 13.9914 0.00125306 11.4773L0 11.4761Z" fill="#0078D6"/>
</svg>
