<svg width="16" height="16" viewBox="0 0 16 16" fill="none" xmlns="http://www.w3.org/2000/svg">
<path d="M5.94923 7.05981C5.88428 7.05331 5.80635 7.05331 5.73491 7.05981C4.18915 7.00785 2.96164 5.74137 2.96164 4.18263C2.96164 2.59141 4.2476 1.29895 5.84532 1.29895C7.43653 1.29895 8.72899 2.59141 8.72899 4.18263C8.7225 5.74137 7.49499 7.00785 5.94923 7.05981Z" stroke="white" stroke-width="0.865969" stroke-linecap="round" stroke-linejoin="round"/>
<path d="M10.6579 2.5979C11.9178 2.5979 12.931 3.61758 12.931 4.87107C12.931 6.09858 11.9568 7.09877 10.7423 7.14424C10.6903 7.13774 10.6319 7.13774 10.5734 7.14424" stroke="white" stroke-width="0.865969" stroke-linecap="round" stroke-linejoin="round"/>
<path d="M2.70184 9.45638C1.13011 10.5085 1.13011 12.2231 2.70184 13.2688C4.4879 14.4638 7.41704 14.4638 9.2031 13.2688C10.7748 12.2167 10.7748 10.502 9.2031 9.45638C7.42354 8.26784 4.4944 8.26784 2.70184 9.45638Z" stroke="white" stroke-width="0.865969" stroke-linecap="round" stroke-linejoin="round"/>
<path d="M11.9114 12.9895C12.379 12.8921 12.8206 12.7038 13.1844 12.4245C14.1975 11.6646 14.1975 10.4111 13.1844 9.65122C12.8271 9.37844 12.392 9.19658 11.9309 9.09267" stroke="white" stroke-width="0.865969" stroke-linecap="round" stroke-linejoin="round"/>
</svg>
