<svg width="15" height="15" viewBox="0 0 15 15" fill="none" xmlns="http://www.w3.org/2000/svg">
<path d="M12.7147 3.93286C12.7147 3.93286 12.7248 3.93286 12.7306 3.93286C12.8085 3.93286 12.8807 3.89098 12.9197 3.82165L13.9711 1.9281C14.0173 1.84433 14.0028 1.73889 13.935 1.67101L13.327 1.06293C13.2591 0.995049 13.1537 0.980605 13.0699 1.02682L11.1767 2.07831C11.103 2.11875 11.0597 2.19819 11.0669 2.28197L11.1146 2.97092L7.86389 6.22216L6.02986 4.38783C6.34468 3.46778 6.11362 2.44951 5.419 1.75622C4.73304 1.07016 3.7366 0.831837 2.8167 1.13371C2.81381 1.13371 2.81092 1.1366 2.80803 1.13804C2.80515 1.13804 2.80226 1.14093 2.79793 1.14237C2.77338 1.15248 2.75316 1.16693 2.73438 1.18426C2.73438 1.18426 2.7315 1.18426 2.7315 1.1857C2.7315 1.1857 2.73005 1.18859 2.72861 1.19004C2.71128 1.20881 2.69684 1.23048 2.68673 1.25359C2.68528 1.25648 2.68384 1.25937 2.6824 1.2637C2.67373 1.28681 2.6694 1.30992 2.66795 1.33447C2.66795 1.33736 2.66795 1.34169 2.66795 1.34458C2.66795 1.3648 2.67084 1.38647 2.67806 1.40669C2.67806 1.40958 2.68095 1.41247 2.6824 1.4168C2.6824 1.41969 2.68528 1.42258 2.68673 1.42691C2.69684 1.45146 2.71128 1.47169 2.72861 1.49046C2.72861 1.49046 2.72861 1.49335 2.73005 1.49335L3.72072 2.48418C3.81458 2.57661 3.86513 2.70083 3.86513 2.83227C3.86513 2.9637 3.81458 3.08647 3.72072 3.17891L3.22394 3.67577C3.13152 3.76821 3.00877 3.8202 2.87735 3.8202C2.74594 3.8202 2.62319 3.76821 2.52932 3.67577L1.53866 2.68494C1.53866 2.68494 1.53577 2.68494 1.53577 2.68205C1.51844 2.66472 1.49678 2.65028 1.47223 2.64017C1.46934 2.63872 1.46501 2.63728 1.46212 2.63583C1.45923 2.63583 1.45634 2.63294 1.45201 2.6315C1.43179 2.62428 1.41157 2.62283 1.38991 2.62139C1.38702 2.62139 1.38269 2.62139 1.3798 2.62139C1.35525 2.62139 1.3307 2.62717 1.30904 2.63583C1.30615 2.63583 1.30182 2.63872 1.29893 2.64017C1.27583 2.65028 1.25416 2.66472 1.23684 2.68205C1.23684 2.68205 1.23395 2.6835 1.2325 2.68494C1.2325 2.68494 1.2325 2.68783 1.23106 2.68783C1.21373 2.70516 1.19929 2.72683 1.18918 2.74994C1.18918 2.75283 1.18629 2.75716 1.18485 2.76005C1.18485 2.76294 1.18196 2.76583 1.18051 2.77016C0.880138 3.69021 1.11842 4.68681 1.80148 5.36999C2.29104 5.85963 2.94234 6.11961 3.60807 6.11961C3.88534 6.11961 4.16262 6.07195 4.43411 5.97951L5.66738 7.21299C5.6385 7.2101 5.61106 7.20432 5.58218 7.20432C5.37712 7.20432 5.18505 7.28376 5.03919 7.42964L1.22528 11.2456C1.08087 11.3901 1 11.5836 1 11.7887C1 11.9938 1.07943 12.1859 1.22528 12.3318L2.66795 13.7747C2.81237 13.9191 3.00588 14 3.21094 14C3.41601 14 3.60807 13.9206 3.75393 13.7747L7.57217 9.95726C7.71659 9.81282 7.79746 9.61928 7.79746 9.41418C7.79746 9.38529 7.79168 9.35785 7.78879 9.32896L9.02062 10.561C8.70581 11.481 8.93686 12.5008 9.63148 13.1941C10.1196 13.6822 10.768 13.9437 11.4323 13.9437C11.698 13.9437 11.9681 13.9018 12.2309 13.8151C12.2338 13.8151 12.2367 13.8122 12.241 13.8108C12.2439 13.8108 12.2468 13.8079 12.2511 13.8065C12.2757 13.7963 12.2959 13.7819 12.3147 13.7646C12.3147 13.7646 12.3175 13.7646 12.3175 13.7631C12.3175 13.7631 12.319 13.7602 12.3204 13.7588C12.3378 13.74 12.3522 13.7184 12.3623 13.6952C12.3638 13.6924 12.3652 13.6895 12.3666 13.6851C12.3753 13.662 12.3796 13.6389 12.3811 13.6144C12.3811 13.6115 12.3811 13.6071 12.3811 13.6042C12.3811 13.584 12.3782 13.5624 12.371 13.5421C12.371 13.5393 12.3681 13.5364 12.3666 13.532C12.3666 13.5291 12.3638 13.5263 12.3623 13.5219C12.3522 13.4974 12.3378 13.4771 12.3204 13.4584C12.3204 13.4584 12.3204 13.4569 12.319 13.4555L11.3283 12.4647C11.1363 12.2726 11.1363 11.9606 11.3283 11.7699L11.8251 11.2731C12.0172 11.0824 12.3276 11.0824 12.5197 11.2731L13.5104 12.2639C13.5104 12.2639 13.5118 12.2639 13.5133 12.2653C13.5306 12.2827 13.5523 12.2971 13.5768 12.3072C13.5797 12.3087 13.5826 12.3101 13.5869 12.3116C13.5898 12.3116 13.5927 12.3144 13.597 12.3159C13.6187 12.3231 13.6418 12.326 13.6649 12.326C13.6909 12.326 13.7154 12.3202 13.7386 12.3116C13.7458 12.3087 13.7515 12.3043 13.7588 12.3014C13.7761 12.2928 13.792 12.2827 13.8064 12.2697C13.8093 12.2668 13.8151 12.2653 13.818 12.2624C13.8209 12.2596 13.8223 12.2552 13.8252 12.2523C13.8382 12.2379 13.8469 12.2234 13.8555 12.2061C13.8599 12.1989 13.8642 12.1917 13.8671 12.1844C13.8671 12.1816 13.87 12.1801 13.8714 12.1772C14.1732 11.2586 13.935 10.262 13.249 9.57739C12.563 8.89277 11.5363 8.65301 10.6178 8.96643L8.78379 7.1321L12.0345 3.88087L12.7233 3.92853L12.7147 3.93286ZM4.65073 5.58087C4.59152 5.51732 4.49765 5.49421 4.41245 5.52887C3.61963 5.85096 2.71561 5.66897 2.11053 5.06235C1.63108 4.58282 1.41591 3.91697 1.51122 3.26124L2.22605 3.97619C2.40079 4.15096 2.63185 4.24629 2.8788 4.24773C3.1243 4.24773 3.3568 4.1524 3.53009 3.97764L4.02687 3.48078C4.20161 3.30601 4.29692 3.07492 4.29692 2.82793C4.29692 2.58095 4.20016 2.34985 4.02542 2.17508L3.30914 1.45869C3.96477 1.36336 4.62906 1.57857 5.10996 2.05809C5.7136 2.66183 5.897 3.56311 5.57785 4.35461C5.57641 4.35895 5.57496 4.36472 5.57352 4.36906C5.5663 4.38928 5.56196 4.4095 5.56196 4.42972C5.56196 4.43405 5.56196 4.43839 5.56196 4.44272C5.56196 4.46727 5.56774 4.49038 5.57496 4.51349C5.57496 4.51638 5.57641 4.52071 5.57785 4.5236C5.58796 4.54816 5.60384 4.57271 5.62262 4.59149L7.5534 6.52259L7.12883 6.94723C7.00608 6.85623 6.86022 6.80423 6.7057 6.80423C6.51508 6.80423 6.33601 6.8779 6.20171 7.01367L6.14394 7.07144L4.64928 5.57654L4.65073 5.58087ZM7.26458 9.64961L3.44633 13.467C3.31925 13.5941 3.0983 13.5941 2.97122 13.467L1.52855 12.0241C1.46501 11.9606 1.43035 11.8768 1.43035 11.7873C1.43035 11.6977 1.46501 11.6139 1.52855 11.5504L5.34679 7.73151C5.41033 7.66796 5.49409 7.63329 5.58363 7.63329C5.67316 7.63329 5.75692 7.66796 5.82046 7.73151L7.26313 9.17442C7.32667 9.23797 7.36133 9.32174 7.36133 9.41129C7.36133 9.50084 7.32667 9.58606 7.26313 9.64816L7.26458 9.64961ZM7.67326 8.48835L7.4321 8.731L6.26814 7.56685L6.29846 7.53508L6.50786 7.3242C6.61473 7.21732 6.79813 7.21732 6.90499 7.3242L6.98298 7.4022L7.59239 8.01171L7.67182 8.09115C7.72525 8.14459 7.75413 8.21537 7.75413 8.29047C7.75413 8.36558 7.72381 8.43635 7.67037 8.48979L7.67326 8.48835ZM10.4012 9.37085C10.4214 9.38963 10.4445 9.40551 10.4691 9.41562C10.472 9.41562 10.4748 9.41707 10.4792 9.41851C10.5008 9.42718 10.5254 9.43151 10.5485 9.43151C10.5499 9.43151 10.5514 9.43151 10.5528 9.43151C10.5557 9.43151 10.5601 9.43007 10.5629 9.43007C10.5832 9.43007 10.6034 9.42573 10.6236 9.41851C10.6279 9.41707 10.6337 9.41562 10.638 9.41418C11.4294 9.09498 12.3305 9.27841 12.9342 9.88215C13.4151 10.3631 13.6288 11.0275 13.5335 11.6833L12.8172 10.9669C12.4576 10.6072 11.8713 10.6058 11.5117 10.9669L11.0149 11.4637C10.6554 11.8234 10.6554 12.4083 11.0149 12.7694L11.7312 13.4844C11.0756 13.5797 10.4113 13.3645 9.93042 12.885C9.32533 12.2798 9.14193 11.3756 9.46397 10.5827C9.49863 10.4974 9.47408 10.4036 9.41198 10.3443L7.91587 8.84799L7.97364 8.78878C8.10794 8.65445 8.18304 8.47535 8.18304 8.2847C8.18304 8.13015 8.13105 7.98427 8.04007 7.8615L8.46464 7.43686L10.3954 9.36796L10.4012 9.37085ZM11.9478 3.44756C11.9478 3.44756 11.9435 3.44756 11.9406 3.44756C11.88 3.44756 11.8265 3.47356 11.7875 3.51544L7.7498 7.55385L7.44509 7.2491L11.4886 3.20491C11.5074 3.18469 11.5233 3.16302 11.5334 3.13702C11.5334 3.13558 11.5348 3.13414 11.5348 3.13269C11.5435 3.10958 11.5493 3.08503 11.5493 3.05903C11.5493 3.05614 11.5493 3.05325 11.5493 3.05036C11.5493 3.04747 11.5493 3.04314 11.5493 3.04025L11.5031 2.38885L13.1349 1.48324L13.5133 1.86166L12.6078 3.49378L11.9565 3.44756C11.9565 3.44756 11.9493 3.44756 11.9464 3.44756H11.9478Z" fill="white" stroke="white" stroke-width="0.1"/>
</svg>
