<svg width="16" height="16" viewBox="0 0 16 16" fill="none" xmlns="http://www.w3.org/2000/svg">
<path d="M14.4467 9.53336L14.18 12.8667C14.08 13.8867 14 14.6667 12.1933 14.6667H3.80665C1.99999 14.6667 1.91999 13.8867 1.81999 12.8667L1.55332 9.53336C1.49999 8.98003 1.67332 8.46669 1.98665 8.07336C1.99332 8.06669 1.99332 8.06669 1.99999 8.06003C2.36665 7.61336 2.91999 7.33336 3.53999 7.33336H12.46C13.08 7.33336 13.6267 7.61336 13.9867 8.04669C13.9933 8.05336 14 8.06003 14 8.06669C14.3267 8.46003 14.5067 8.97336 14.4467 9.53336Z" stroke="white" stroke-width="0.888889" stroke-miterlimit="10"/>
<path d="M2.33331 7.62002V4.18669C2.33331 1.92002 2.89998 1.35336 5.16665 1.35336H6.01331C6.85998 1.35336 7.05331 1.60669 7.37331 2.03336L8.21998 3.16669C8.43331 3.44669 8.55998 3.62002 9.12665 3.62002H10.8266C13.0933 3.62002 13.66 4.18669 13.66 6.45336V7.64669" stroke="white" stroke-width="0.888889" stroke-miterlimit="10" stroke-linecap="round" stroke-linejoin="round"/>
<path d="M6.28662 11.3334H9.71329" stroke="white" stroke-width="0.888889" stroke-miterlimit="10" stroke-linecap="round" stroke-linejoin="round"/>
</svg>
