<svg width="16" height="16" viewBox="0 0 16 16" fill="none" xmlns="http://www.w3.org/2000/svg">
<path d="M2.51131 0.0837103H4.39479C5.03863 0.0837103 5.6561 0.339474 6.11136 0.794738C6.56662 1.25 6.82239 1.86747 6.82239 2.51131V4.39479C6.82239 5.03863 6.56662 5.6561 6.11136 6.11136C5.6561 6.56663 5.03863 6.82239 4.39479 6.82239H2.51131C1.86747 6.82239 1.25 6.56663 0.794737 6.11136C0.339474 5.6561 0.0837103 5.03863 0.0837103 4.39479V2.51131C0.0837103 1.86747 0.339474 1.25 0.794737 0.794738C1.25 0.339474 1.86747 0.0837103 2.51131 0.0837103ZM5.34186 5.34186C5.59304 5.09068 5.73415 4.75001 5.73415 4.39479V2.51131C5.73415 2.15609 5.59304 1.81541 5.34186 1.56423C5.09068 1.31306 4.75001 1.17194 4.39479 1.17194H2.51131C2.15609 1.17194 1.81541 1.31306 1.56423 1.56423C1.31306 1.81541 1.17194 2.15609 1.17194 2.51131V4.39479C1.17194 4.75001 1.31306 5.09068 1.56423 5.34186C1.81541 5.59304 2.15609 5.73416 2.51131 5.73416H4.39479C4.75001 5.73416 5.09068 5.59304 5.34186 5.34186Z" fill="white" stroke="#083F4E" stroke-width="0.167421"/>
<path d="M2.5113 8.24548H4.39478C5.03862 8.24548 5.65609 8.50124 6.11135 8.9565C6.56661 9.41177 6.82238 10.0292 6.82238 10.6731V12.5566C6.82238 13.2004 6.56661 13.8179 6.11135 14.2731C5.65609 14.7284 5.03862 14.9842 4.39478 14.9842H2.5113C1.86746 14.9842 1.24999 14.7284 0.794728 14.2731C0.339465 13.8179 0.0837008 13.2004 0.0837008 12.5566V10.6731C0.0837008 10.0292 0.339465 9.41177 0.794728 8.9565C1.24999 8.50124 1.86746 8.24548 2.5113 8.24548ZM5.34185 13.5036C5.59303 13.2525 5.73414 12.9118 5.73414 12.5566V10.6731C5.73414 10.3179 5.59303 9.97718 5.34185 9.726C5.09067 9.47482 4.75 9.33371 4.39478 9.33371H2.5113C2.15608 9.33371 1.8154 9.47482 1.56423 9.726C1.31305 9.97718 1.17193 10.3179 1.17193 10.6731V12.5566C1.17193 12.9118 1.31305 13.2525 1.56423 13.5036C1.8154 13.7548 2.15608 13.8959 2.5113 13.8959H4.39478C4.75 13.8959 5.09067 13.7548 5.34185 13.5036Z" fill="white" stroke="#083F4E" stroke-width="0.167421"/>
<path d="M10.673 8.24548H12.5565C13.2004 8.24548 13.8178 8.50124 14.2731 8.9565C14.7284 9.41177 14.9841 10.0292 14.9841 10.6731V12.5566C14.9841 13.2004 14.7284 13.8179 14.2731 14.2731C13.8178 14.7284 13.2004 14.9842 12.5565 14.9842H10.673C10.0292 14.9842 9.41174 14.7284 8.95647 14.2731C8.50121 13.8179 8.24545 13.2004 8.24545 12.5566V10.6731C8.24545 10.0292 8.50121 9.41177 8.95647 8.9565C9.41174 8.50124 10.0292 8.24548 10.673 8.24548ZM13.5036 13.5036C13.7548 13.2525 13.8959 12.9118 13.8959 12.5566V10.6731C13.8959 10.3179 13.7548 9.97718 13.5036 9.726C13.2524 9.47482 12.9117 9.33371 12.5565 9.33371H10.673C10.3178 9.33371 9.97715 9.47482 9.72597 9.726C9.47479 9.97718 9.33368 10.3179 9.33368 10.6731V12.5566C9.33368 12.9118 9.47479 13.2525 9.72597 13.5036C9.97715 13.7548 10.3178 13.8959 10.673 13.8959H12.5565C12.9117 13.8959 13.2524 13.7548 13.5036 13.5036Z" fill="white" stroke="#083F4E" stroke-width="0.167421"/>
<path d="M10.7568 4.3948V4.31109H10.673H8.78956C8.64526 4.31109 8.50686 4.25376 8.40482 4.15172C8.30277 4.04968 8.24545 3.91128 8.24545 3.76697C8.24545 3.62267 8.30277 3.48427 8.40482 3.38223C8.50686 3.28018 8.64526 3.22286 8.78956 3.22286H10.673H10.7568V3.13915V1.25567C10.7568 1.11136 10.8141 0.972958 10.9161 0.870917C11.0182 0.768875 11.1566 0.711548 11.3009 0.711548C11.4452 0.711548 11.5836 0.768875 11.6856 0.870917C11.7877 0.972958 11.845 1.11136 11.845 1.25567V3.13915V3.22286H11.9287H13.8122C13.9565 3.22286 14.0949 3.28018 14.1969 3.38223C14.299 3.48427 14.3563 3.62266 14.3563 3.76697C14.3563 3.91128 14.299 4.04968 14.1969 4.15172C14.0949 4.25376 13.9565 4.31109 13.8122 4.31109H11.9287H11.845V4.3948V6.27828C11.845 6.42259 11.7877 6.56099 11.6856 6.66303C11.5836 6.76507 11.4452 6.8224 11.3009 6.8224C11.1566 6.8224 11.0182 6.76507 10.9161 6.66303C10.8141 6.56099 10.7568 6.42259 10.7568 6.27828V4.3948Z" fill="white" stroke="#083F4E" stroke-width="0.167421"/>
</svg>
