<svg width="18" height="16" viewBox="0 0 18 16" fill="none" xmlns="http://www.w3.org/2000/svg">
<path d="M17.6377 11.9311C16.8141 10.4693 14.7988 10.1353 13.4716 11.2386C13.357 11.3336 13.2728 11.5037 13.0707 11.4285C12.8501 11.3454 12.628 11.2663 12.3586 11.1674C12.7298 10.8903 13.0562 10.649 13.3529 10.3688C14.4861 9.29714 15.628 8.235 16.77 7.17286C16.9231 7.03039 17.0683 6.88002 17.2752 6.79771C17.7964 6.58955 18.0282 6.22706 17.9544 5.77672C17.8782 5.31609 17.5551 4.9908 16.9993 5.00346C16.4051 5.01692 15.9656 4.84517 15.6104 4.37979C15.5117 4.25078 15.4604 4.17322 15.5053 4.0086C15.6729 3.39126 15.4259 2.96941 14.7972 2.8404C14.5406 2.78737 14.5157 2.72168 14.5847 2.48583C14.7595 1.8859 14.4636 1.47988 13.8485 1.47909C13.5735 1.47909 13.458 1.3762 13.3521 1.14035C13.0474 0.461272 12.3337 0.135982 11.5991 0.337013C11.3834 0.396372 11.2367 0.368671 11.0522 0.247578C10.4925 -0.122034 9.82686 -0.0785039 9.37216 0.382918C9.04979 0.709791 8.8485 1.14905 8.38579 1.34692C8.24465 1.40707 8.18611 1.59148 8.15804 1.74819C8.12436 1.93814 8.06261 2.00304 7.84047 1.95792C7.09308 1.80596 6.61272 2.23494 6.6464 3.00186C6.65201 3.12612 6.68088 3.23455 6.5229 3.28599C5.96957 3.46566 5.76347 3.916 5.65762 4.42095C5.57983 4.79531 5.33605 4.93619 4.99202 4.97814C4.8605 4.99397 4.72578 4.99397 4.59586 5.01771C4.20212 5.08973 3.95913 5.32796 3.8613 5.70628C3.76587 6.07431 3.87332 6.40356 4.17806 6.61488C4.41784 6.78108 4.48359 6.99161 4.51487 7.24409C4.54374 7.47836 4.5702 7.71343 4.60709 7.94611C4.66964 8.34659 4.67285 8.34501 4.26948 8.19701C3.34726 7.85905 2.42664 7.51714 1.50121 7.1871C0.777873 6.92909 0.403371 7.06838 0 7.72134V8.35134C0.153971 8.71779 0.44427 8.91565 0.816365 9.04545C2.06978 9.48234 3.31358 9.94534 4.5694 10.3751C4.89659 10.4875 5.0281 10.6442 5.02249 10.9956C5.00244 12.1765 5.02249 13.3581 5.01207 14.5398C5.00645 15.1421 5.18608 15.6344 5.77711 15.8876C6.37775 16.1449 6.8557 15.9074 7.27992 15.4808C8.16365 14.5904 9.06422 13.7151 9.93512 12.8112C10.199 12.5374 10.4267 12.4377 10.794 12.6039C11.2038 12.7891 11.6368 12.9268 12.0674 13.0613C12.3658 13.1547 12.4949 13.3035 12.543 13.6351C12.7122 14.7954 13.3818 15.59 14.5358 15.8948C15.6898 16.1995 16.6673 15.8322 17.4147 14.9268C18.114 14.0791 18.1846 12.9007 17.6377 11.9311ZM14.389 8.4851C13.7932 9.02883 13.1974 9.57257 12.5951 10.1084C12.4179 10.2659 12.2238 10.406 12.0258 10.5374C11.6873 10.7629 11.3497 10.812 10.9375 10.6545C9.33848 10.0427 7.73302 9.44672 6.11392 8.88953C5.60068 8.71304 5.32081 8.39329 5.26467 7.91287C5.12113 6.68215 4.91343 6.86023 6.07623 6.85786C9.22862 6.85073 12.381 6.85469 15.5342 6.85786C15.6906 6.85786 15.8518 6.82541 16.0819 6.93146C15.4941 7.47124 14.944 7.98094 14.3898 8.48668L14.389 8.4851ZM6.30959 4.6481C6.35771 4.48506 6.38657 4.31727 6.46757 4.16452C6.56941 3.97219 6.69131 3.84872 6.94151 3.92945C7.1436 3.99435 7.34248 3.96032 7.48522 3.7862C7.63518 3.60258 7.56782 3.41975 7.46838 3.23613C7.41866 3.14511 7.37135 3.04539 7.35771 2.94488C7.31681 2.63383 7.49564 2.50245 7.78995 2.61484C8.6809 2.95437 8.68491 2.95437 8.80921 1.99196C8.83968 1.75848 8.972 1.68408 9.18291 1.67062C9.44113 1.654 9.56863 1.5242 9.63439 1.26302C9.79638 0.621939 10.292 0.463646 10.8453 0.863334C11.0875 1.03825 11.3128 1.11344 11.62 1.01609C12.2343 0.822178 12.6104 1.03904 12.8012 1.64846C12.9343 2.07269 13.1509 2.21277 13.5983 2.1637C13.9464 2.12571 14.0402 2.24522 13.875 2.57051C13.7451 2.82695 13.6529 3.07467 13.7515 3.3596C13.8317 3.58912 13.9584 3.71971 14.2303 3.61603C14.3393 3.57488 14.4636 3.55747 14.5815 3.55747C14.8854 3.55826 14.9624 3.6936 14.8237 3.95874C14.5045 4.56816 14.5077 4.57845 15.1469 4.89424C15.0113 5.00346 14.8878 4.96706 14.774 4.96785C12.0466 4.97022 9.31923 4.96706 6.59187 4.97655C6.31921 4.97735 6.22859 4.92353 6.30959 4.64731V4.6481ZM4.54374 5.91602C4.53973 5.56936 4.89819 5.67937 5.11151 5.67858C7.03935 5.66987 8.96719 5.67383 10.895 5.67383C12.8092 5.67383 14.7242 5.67383 16.6385 5.67383C16.7716 5.67383 16.9047 5.67541 17.037 5.68729C17.1685 5.69916 17.2696 5.76643 17.2712 5.9081C17.2736 6.04898 17.1757 6.12101 17.0442 6.13604C16.9255 6.1495 16.8053 6.15108 16.6858 6.15108C12.8301 6.15108 8.9744 6.15346 5.11872 6.14712C4.90381 6.14712 4.54775 6.25476 4.54294 5.91602H4.54374ZM9.33527 12.4812C8.48282 13.3304 7.62235 14.171 6.7715 15.0202C6.55498 15.2363 6.31681 15.3486 6.02009 15.2347C5.71937 15.1183 5.6929 14.8571 5.69371 14.5801C5.69852 13.4642 5.6913 12.3474 5.70092 11.2315C5.70173 11.1048 5.59026 10.8682 5.8557 10.8737C6.07462 10.8777 6.20935 11.0138 6.20213 11.2655C6.1893 11.685 6.19892 12.106 6.19892 12.5263C6.19973 12.8943 6.20213 13.2616 6.19892 13.6296C6.19732 13.8465 6.20774 14.0594 6.44512 14.1646C6.69291 14.2746 6.87896 14.1583 7.04897 13.9905C7.62235 13.4238 8.19653 12.8579 8.77152 12.292C8.83727 12.2271 8.90063 12.1591 8.9728 12.1013C9.16286 11.9485 9.35131 12.0585 9.4732 12.1749C9.61354 12.3094 9.41787 12.4012 9.33607 12.4828L9.33527 12.4812ZM6.89019 11.4974C6.88698 11.2869 6.97519 11.2433 7.15803 11.3106C7.48201 11.4285 7.80519 11.5496 8.13158 11.6604C8.30158 11.7182 8.35612 11.7918 8.21417 11.9343C7.80599 12.3435 7.39861 12.7534 6.99123 13.1626C6.95835 13.1436 6.92467 13.1246 6.89179 13.1056C6.89179 12.569 6.8966 12.0332 6.88939 11.4966L6.89019 11.4974ZM1.05374 8.44236C1.01605 8.42891 0.978355 8.41624 0.941466 8.4012C0.726549 8.31414 0.550124 8.18988 0.656781 7.92949C0.757824 7.68335 0.963119 7.72609 1.1628 7.79969C1.54933 7.94057 1.93586 8.07987 2.32159 8.22233C6.34247 9.6992 10.3642 11.1769 14.385 12.6545C14.4965 12.6957 14.6088 12.7392 14.713 12.7954C14.8229 12.8555 14.9087 12.9458 14.8566 13.0835C14.8044 13.2196 14.6817 13.2267 14.5286 13.2109C14.4789 13.1951 14.4027 13.1729 14.3273 13.1468C9.88219 11.6351 5.47799 10.0095 1.05374 8.44236ZM15.4797 12.4717C16.0923 12.8247 16.2447 13.313 15.9568 13.7673C15.7106 14.1559 15.2166 14.2446 14.7659 13.9525C15.4708 13.7024 15.766 13.2457 15.4797 12.4717ZM15.6056 15.2924C14.6104 15.4879 13.5775 14.888 13.288 13.9335C13.2519 13.814 13.1068 13.6343 13.2896 13.5536C13.4259 13.4935 13.6056 13.5932 13.717 13.7072C13.7964 13.7887 13.8325 13.9106 13.8918 14.0134C14.3104 14.7408 15.1661 15.0115 15.9191 14.6545C16.6104 14.3277 16.9408 13.5085 16.6729 12.7867C16.3899 12.0245 15.6128 11.6407 14.802 11.8623C14.725 11.8836 14.6497 11.9248 14.5727 11.9264C14.3826 11.9311 14.1284 11.8979 14.0779 11.7467C14.0129 11.5544 14.2776 11.5156 14.4203 11.4444C14.6866 11.3122 14.9753 11.2671 15.195 11.2837C16.3353 11.2885 17.1998 12.0807 17.2936 13.1357C17.3859 14.1749 16.6761 15.0811 15.6064 15.2917L15.6056 15.2924Z" fill="white"/>
</svg>
