<svg width="16" height="16" viewBox="0 0 16 16" fill="none" xmlns="http://www.w3.org/2000/svg">
<path d="M4.84005 1.33332H11.1534C11.5867 1.33332 11.9734 1.34667 12.32 1.39334C14.1667 1.60001 14.6667 2.46666 14.6667 4.83999V9.05333C14.6667 11.4267 14.1667 12.2933 12.32 12.5C11.9734 12.5467 11.5934 12.56 11.1534 12.56H4.84005C4.40671 12.56 4.02005 12.5467 3.67338 12.5C1.82671 12.2933 1.32672 11.4267 1.32672 9.05333V4.83999C1.32672 2.46666 1.82671 1.60001 3.67338 1.39334C4.02005 1.34667 4.40671 1.33332 4.84005 1.33332Z" stroke="white" stroke-width="1.03916" stroke-linecap="round" stroke-linejoin="round"/>
<path d="M9.05341 5.54668H11.5067" stroke="white" stroke-width="1.03916" stroke-linecap="round" stroke-linejoin="round"/>
<path d="M4.49335 9.40666H4.50667H11.5133" stroke="white" stroke-width="1.03916" stroke-linecap="round" stroke-linejoin="round"/>
<path d="M4.66663 14.6667H11.3333" stroke="white" stroke-width="1.03916" stroke-linecap="round" stroke-linejoin="round"/>
<path d="M4.79647 5.53333H4.80246" stroke="white" stroke-width="1.38555" stroke-linecap="round" stroke-linejoin="round"/>
<path d="M6.9963 5.53333H7.00229" stroke="white" stroke-width="1.38555" stroke-linecap="round" stroke-linejoin="round"/>
</svg>
