<svg width="16" height="16" viewBox="0 0 16 16" fill="none" xmlns="http://www.w3.org/2000/svg">
<path d="M8 10C9.10457 10 10 9.10457 10 8C10 6.89543 9.10457 6 8 6C6.89543 6 6 6.89543 6 8C6 9.10457 6.89543 10 8 10Z" stroke="white" stroke-miterlimit="10" stroke-linecap="round" stroke-linejoin="round"/>
<path d="M1.33337 8.58665V7.41332C1.33337 6.71998 1.90004 6.14665 2.60004 6.14665C3.80671 6.14665 4.30004 5.29332 3.69337 4.24665C3.34671 3.64665 3.55337 2.86665 4.16004 2.51998L5.31337 1.85998C5.84004 1.54665 6.52004 1.73332 6.83337 2.25998L6.90671 2.38665C7.50671 3.43332 8.49337 3.43332 9.10004 2.38665L9.17337 2.25998C9.48671 1.73332 10.1667 1.54665 10.6934 1.85998L11.8467 2.51998C12.4534 2.86665 12.66 3.64665 12.3134 4.24665C11.7067 5.29332 12.2 6.14665 13.4067 6.14665C14.1 6.14665 14.6734 6.71332 14.6734 7.41332V8.58665C14.6734 9.27998 14.1067 9.85332 13.4067 9.85332C12.2 9.85332 11.7067 10.7066 12.3134 11.7533C12.66 12.36 12.4534 13.1333 11.8467 13.48L10.6934 14.14C10.1667 14.4533 9.48671 14.2667 9.17337 13.74L9.10004 13.6133C8.50004 12.5667 7.51337 12.5667 6.90671 13.6133L6.83337 13.74C6.52004 14.2667 5.84004 14.4533 5.31337 14.14L4.16004 13.48C3.55337 13.1333 3.34671 12.3533 3.69337 11.7533C4.30004 10.7066 3.80671 9.85332 2.60004 9.85332C1.90004 9.85332 1.33337 9.27998 1.33337 8.58665Z" stroke="white" stroke-miterlimit="10" stroke-linecap="round" stroke-linejoin="round"/>
</svg>
