<svg width="14" height="14" viewBox="0 0 14 14" fill="none" xmlns="http://www.w3.org/2000/svg">
<path d="M10.4995 4.0838C10.4995 4.19916 10.4653 4.31194 10.4012 4.40786C10.3371 4.50379 10.246 4.57855 10.1394 4.6227C10.0328 4.66685 9.91556 4.6784 9.80241 4.65589C9.68926 4.63339 9.58532 4.57783 9.50375 4.49625C9.42217 4.41468 9.36661 4.31074 9.34411 4.19759C9.3216 4.08444 9.33315 3.96716 9.3773 3.86057C9.42145 3.75399 9.49621 3.66289 9.59214 3.59879C9.68806 3.5347 9.80084 3.50049 9.91621 3.50049C10.0709 3.50049 10.2193 3.56194 10.3287 3.67134C10.4381 3.78073 10.4995 3.92909 10.4995 4.0838ZM8.16629 5.25041C8.05092 5.25041 7.93814 5.28462 7.84222 5.34871C7.74629 5.41281 7.67153 5.50391 7.62738 5.61049C7.58323 5.71708 7.57168 5.83436 7.59419 5.94751C7.6167 6.06066 7.67225 6.1646 7.75383 6.24617C7.8354 6.32775 7.93934 6.38331 8.05249 6.40581C8.16564 6.42832 8.28292 6.41677 8.38951 6.37262C8.49609 6.32847 8.58719 6.25371 8.65129 6.15778C8.71538 6.06186 8.74959 5.94908 8.74959 5.83371C8.74959 5.67901 8.68814 5.53065 8.57875 5.42125C8.46936 5.31186 8.32099 5.25041 8.16629 5.25041ZM6.41637 7.00033C6.301 7.00033 6.18822 7.03454 6.0923 7.09863C5.99638 7.16273 5.92161 7.25383 5.87746 7.36041C5.83331 7.467 5.82176 7.58428 5.84427 7.69743C5.86678 7.81058 5.92233 7.91452 6.00391 7.99609C6.08549 8.07767 6.18942 8.13322 6.30257 8.15573C6.41572 8.17824 6.533 8.16669 6.63959 8.12254C6.74618 8.07839 6.83728 8.00362 6.90137 7.9077C6.96546 7.81178 6.99967 7.699 6.99967 7.58363C6.99967 7.42893 6.93822 7.28056 6.82883 7.17117C6.71944 7.06178 6.57107 7.00033 6.41637 7.00033ZM13.9212 1.72607L13.8774 1.84915C13.0013 4.28037 12.1608 6.59201 10.4995 8.64525V8.75025C10.4985 9.6437 10.3112 10.5271 9.94966 11.3442C9.5881 12.1612 9.06018 12.8939 8.39961 13.4954C8.04992 13.8181 7.59211 13.9981 7.11634 14C6.62116 13.9985 6.14675 13.8008 5.79693 13.4504C5.44711 13.0999 5.25037 12.6251 5.24976 12.1299V11.4585C4.81933 11.3197 4.42752 11.0818 4.10589 10.7638L4.08314 10.7417L2.74562 12.0792C2.63561 12.1854 2.48826 12.2442 2.33532 12.2429C2.18238 12.2416 2.03608 12.1802 1.92793 12.0721C1.81978 11.9639 1.75844 11.8176 1.75711 11.6647C1.75578 11.5117 1.81457 11.3644 1.92083 11.2544L3.25835 9.91686L3.2356 9.89469C2.91744 9.57269 2.67895 9.18078 2.53913 8.75025H1.96166C1.44164 8.74978 0.943039 8.54304 0.575274 8.17538C0.207509 7.80773 0.000617763 7.30919 0 6.78917C0.0010318 6.28129 0.196868 5.79316 0.547141 5.4254C1.15699 4.79908 1.88921 4.30497 2.69823 3.97381C3.50726 3.64266 4.37578 3.48154 5.24976 3.50049H5.35475C7.40799 1.83982 9.71788 0.999272 12.1479 0.12373L12.2739 0.0788149C12.5039 -0.00571705 12.7532 -0.0226655 12.9925 0.0299721C13.2317 0.0826097 13.4509 0.202634 13.6241 0.375862C13.7974 0.549091 13.9174 0.768285 13.97 1.00755C14.0227 1.24681 14.0057 1.49614 13.9212 1.72607ZM1.96166 7.58363H2.39156C2.43538 7.06969 2.61471 6.57656 2.91128 6.15453C3.23679 5.6862 3.58911 5.23708 3.96648 4.80943C2.988 5.01196 2.09346 5.50518 1.39993 6.22453C1.25239 6.3757 1.16882 6.57794 1.16661 6.78917C1.16692 6.99988 1.2508 7.20186 1.39985 7.3508C1.5489 7.49975 1.75095 7.58348 1.96166 7.58363ZM9.15791 10.0639C8.73952 10.4301 8.30097 10.7726 7.8443 11.0899C7.42193 11.3836 6.92918 11.5599 6.41637 11.6009V12.1299C6.41668 12.3165 6.49097 12.4953 6.62296 12.6272C6.75494 12.7591 6.93384 12.8332 7.12042 12.8334C7.30538 12.8307 7.48264 12.7589 7.6174 12.6321C8.36938 11.9438 8.90467 11.0514 9.15791 10.0639ZM12.796 1.20401C12.7804 1.18672 12.7599 1.17473 12.7372 1.16971C12.7145 1.16469 12.6908 1.16689 12.6694 1.17601L12.544 1.22151C9.71846 2.23938 7.27849 3.11901 5.17743 5.21949C4.69546 5.71651 4.25678 6.25374 3.86615 6.82533C3.62855 7.16258 3.51774 7.57293 3.55328 7.98394C3.58882 8.39495 3.76843 8.78019 4.06039 9.07165L4.93069 9.94077C5.222 10.2325 5.60697 10.4121 6.01772 10.4477C6.42847 10.4833 6.83862 10.3728 7.17583 10.1356C7.74711 9.74503 8.28396 9.30634 8.78051 8.82432C10.8804 6.72442 11.7612 4.28212 12.7797 1.45542L12.824 1.33234C12.8334 1.31073 12.8358 1.28668 12.8308 1.26364C12.8257 1.2406 12.8136 1.21973 12.796 1.20401Z" fill="#1C1C1C"/>
</svg>
