<svg width="20" height="20" viewBox="0 0 20 20" fill="none" xmlns="http://www.w3.org/2000/svg">
<path d="M5.45201 16.5236C7.10556 16.5236 8.44602 15.1831 8.44602 13.5296C8.44602 11.876 7.10556 10.5356 5.45201 10.5356C3.79847 10.5356 2.45801 11.876 2.45801 13.5296C2.45801 15.1831 3.79847 16.5236 5.45201 16.5236Z" stroke="white" stroke-width="0.9" stroke-miterlimit="10"/>
<path d="M16.9765 10.5356H11.0366C11.0236 10.5356 11.0131 10.5461 11.0131 10.5591V16.4991C11.0131 16.512 11.0236 16.5226 11.0366 16.5226H16.9765C16.9895 16.5226 17 16.512 17 16.4991V10.5591C17 10.5461 16.9895 10.5356 16.9765 10.5356Z" stroke="white" stroke-width="0.9" stroke-miterlimit="10"/>
<path d="M9.56619 2.51848C9.57485 2.50115 9.59958 2.50115 9.60824 2.51847L11.0847 5.47043L12.5642 8.42939C12.572 8.44502 12.5607 8.46341 12.5432 8.46341H9.58721H6.63227C6.6148 8.46341 6.60343 8.44502 6.61125 8.42939L8.09073 5.47043L9.56619 2.51848Z" stroke="white" stroke-width="0.9" stroke-miterlimit="10"/>
</svg>
