<svg width="20" height="20" viewBox="0 0 20 20" fill="none" xmlns="http://www.w3.org/2000/svg">
<path d="M12.3296 3.61719V5.01662C13.6635 5.48822 14.7877 6.41619 15.5035 7.63652C16.2194 8.85685 16.4808 10.291 16.2416 11.6854C16.0023 13.0798 15.2778 14.3448 14.1961 15.2567C13.1144 16.1686 11.7452 16.6687 10.3304 16.6687C8.91558 16.6687 7.54633 16.1686 6.46463 15.2567C5.38293 14.3448 4.65843 13.0798 4.41918 11.6854C4.17994 10.291 4.44135 8.85685 5.15721 7.63652C5.87308 6.41619 6.9973 5.48822 8.33119 5.01662V3.61719C6.62896 4.09972 5.15869 5.18165 4.1917 6.66332C3.2247 8.14499 2.82623 9.92641 3.06982 11.6789C3.31341 13.4313 4.18261 15.0365 5.51705 16.1983C6.85148 17.3601 8.56108 18 10.3304 18C12.0997 18 13.8093 17.3601 15.1437 16.1983C16.4781 15.0365 17.3473 13.4313 17.5909 11.6789C17.8345 9.92641 17.4361 8.14499 16.4691 6.66332C15.5021 5.18165 14.0318 4.09972 12.3296 3.61719V3.61719Z" fill="#F5F7FA"/>
<path d="M10.9967 2H9.66394V7.33117H10.9967V2Z" fill="#F5F7FA"/>
</svg>
