<svg width="20" height="20" viewBox="0 0 20 20" fill="none" xmlns="http://www.w3.org/2000/svg">
<path d="M9.15743 8.20072C9.08055 5.75547 7.41594 4.01497 5.15415 4.0001C2.81547 3.98522 1.09901 5.68853 1.03107 8.16167C0.988158 9.70692 0.991734 11.254 1.02928 12.7993C1.09007 15.2836 2.78865 17.0073 5.1166 16.9999C7.42846 16.9943 9.09485 15.2445 9.15922 12.7454C9.1771 12.0034 9.1628 11.2615 9.16101 10.5195C9.16101 9.74597 9.18067 8.97241 9.15743 8.20072ZM8.16332 12.8086C8.08464 14.642 6.77227 16.0367 5.12375 16.0664C3.4663 16.098 2.07346 14.6588 2.02161 12.7844C1.9787 11.2689 1.98227 9.75155 2.02161 8.23791C2.06989 6.35795 3.43948 4.92241 5.10408 4.93171C6.77584 4.94287 8.1061 6.37654 8.16689 8.26208C8.19192 9.03378 8.17047 9.80919 8.17047 10.5827C8.17047 11.3247 8.1955 12.0685 8.1651 12.8104L8.16332 12.8086Z" fill="white"/>
<path d="M18.9877 8.16353C18.9019 5.72572 17.2248 4.00568 14.9505 4.0001C12.6583 3.99452 10.9454 5.68295 10.865 8.10774C10.8131 9.71436 10.8077 11.3247 10.8667 12.9294C10.9543 15.3449 12.6833 17.0148 14.9845 16.9999C17.2105 16.985 18.884 15.2799 18.9842 12.8923C19.0163 12.1206 18.9895 11.347 18.9895 10.5734C18.9895 9.77014 19.0146 8.96498 18.9859 8.16167L18.9877 8.16353ZM17.9954 12.7956C17.9203 14.6681 16.5364 16.1073 14.8807 16.0683C13.2304 16.0292 11.9073 14.6383 11.8537 12.8011C11.809 11.2559 11.8054 9.70692 11.8555 8.16167C11.9163 6.33378 13.2823 4.93729 14.9183 4.93357C16.5525 4.93171 17.9042 6.33006 17.9918 8.15609C18.0294 8.92779 17.9972 9.7032 17.999 10.4768C17.999 11.2503 18.0258 12.0239 17.9936 12.7974L17.9954 12.7956Z" fill="white"/>
<path d="M9.15743 8.20072C9.08055 5.75547 7.41594 4.01497 5.15415 4.0001C2.81547 3.98522 1.09901 5.68853 1.03107 8.16167C0.988158 9.70692 0.991734 11.254 1.02928 12.7993C1.09007 15.2836 2.78865 17.0073 5.1166 16.9999C7.42846 16.9943 9.09485 15.2445 9.15922 12.7454C9.1771 12.0034 9.1628 11.2615 9.16101 10.5195C9.16101 9.74597 9.18067 8.97241 9.15743 8.20072ZM8.16332 12.8086C8.08464 14.642 6.77227 16.0367 5.12375 16.0664C3.4663 16.098 2.07346 14.6588 2.02161 12.7844C1.9787 11.2689 1.98227 9.75155 2.02161 8.23791C2.06989 6.35795 3.43948 4.92241 5.10408 4.93171C6.77584 4.94287 8.1061 6.37654 8.16689 8.26208C8.19192 9.03378 8.17047 9.80919 8.17047 10.5827C8.17047 11.3247 8.1955 12.0685 8.1651 12.8104L8.16332 12.8086Z" stroke="white" stroke-width="0.2"/>
<path d="M18.9877 8.16353C18.9019 5.72572 17.2248 4.00568 14.9505 4.0001C12.6583 3.99452 10.9454 5.68295 10.865 8.10774C10.8131 9.71436 10.8077 11.3247 10.8667 12.9294C10.9543 15.3449 12.6833 17.0148 14.9845 16.9999C17.2105 16.985 18.884 15.2799 18.9842 12.8923C19.0163 12.1206 18.9895 11.347 18.9895 10.5734C18.9895 9.77014 19.0146 8.96498 18.9859 8.16167L18.9877 8.16353ZM17.9954 12.7956C17.9203 14.6681 16.5364 16.1073 14.8807 16.0683C13.2304 16.0292 11.9073 14.6383 11.8537 12.8011C11.809 11.2559 11.8054 9.70692 11.8555 8.16167C11.9163 6.33378 13.2823 4.93729 14.9183 4.93357C16.5525 4.93171 17.9042 6.33006 17.9918 8.15609C18.0294 8.92779 17.9972 9.7032 17.999 10.4768C17.999 11.2503 18.0258 12.0239 17.9936 12.7974L17.9954 12.7956Z" stroke="white" stroke-width="0.2"/>
</svg>
