<svg width="15" height="15" viewBox="0 0 15 15" fill="none" xmlns="http://www.w3.org/2000/svg">
<path d="M10.9306 0.000567424C11.4274 -0.00217951 11.8465 0.152565 12.2006 0.473041C12.9931 1.18999 13.7489 1.94448 14.4645 2.7356C15.2002 3.5487 15.1709 4.66029 14.4196 5.46148C13.9713 5.93945 13.4945 6.39086 13.0306 6.85509C10.5508 9.33649 8.07378 11.8197 5.59217 14.2993C4.67071 15.2204 3.52416 15.2351 2.59722 14.3332C1.96309 13.7169 1.33811 13.0906 0.721371 12.4561C-0.251325 11.4562 -0.239429 10.3556 0.751567 9.36305C3.63946 6.47052 6.53192 3.58257 9.41615 0.686386C9.84531 0.256033 10.3285 -0.0140829 10.9306 0.000567424ZM1.01053 10.9471C1.00138 11.2447 1.13131 11.4947 1.34543 11.708C1.98139 12.3444 2.61094 12.9872 3.25605 13.6144C3.79959 14.1436 4.36234 14.1381 4.89948 13.6089C5.59491 12.924 6.28211 12.2309 6.97206 11.5405C9.1819 9.32917 11.3917 7.11788 13.5988 4.90385C14.1058 4.39567 14.1744 3.83987 13.7306 3.36465C13.0544 2.64038 12.3507 1.94082 11.6296 1.26141C11.1923 0.849371 10.6258 0.88325 10.1903 1.29438C9.8691 1.59837 9.57262 1.92892 9.24961 2.23017C9.07118 2.39681 9.08399 2.51676 9.2487 2.67883C9.5955 3.02128 9.93498 3.37198 10.2671 3.72999C10.4758 3.95524 10.4767 4.20521 10.2525 4.41947C10.0384 4.62366 9.81145 4.58887 9.60556 4.38834C9.25602 4.04772 8.90006 3.71351 8.56149 3.36282C8.39679 3.19251 8.27783 3.18427 8.11495 3.36282C7.8688 3.63294 7.61442 3.89939 7.34082 4.1402C7.11298 4.34073 7.11572 4.48906 7.33533 4.69234C7.65926 4.99267 7.95848 5.31955 8.2696 5.63362C8.49836 5.86436 8.54411 6.11983 8.3126 6.3579C8.09208 6.58406 7.84684 6.53278 7.62723 6.32677C7.53847 6.24344 7.45063 6.15829 7.35821 6.07862C7.01781 5.78287 6.7433 5.18129 6.36813 5.22341C6.00851 5.2637 5.7157 5.80943 5.37164 6.10884C5.15569 6.29655 5.16758 6.4339 5.36066 6.6216C5.68825 6.94025 5.99753 7.27721 6.3178 7.60318C6.5246 7.81377 6.61793 8.04452 6.38734 8.28258C6.15492 8.52248 5.90237 8.49502 5.66629 8.26702C5.3268 7.9383 4.97817 7.61874 4.64967 7.27995C4.48404 7.10873 4.366 7.10323 4.20312 7.27995C3.94508 7.56014 3.67789 7.83483 3.39331 8.08664C3.18834 8.26793 3.22128 8.39887 3.39422 8.56918C3.73096 8.90065 4.05946 9.24035 4.3843 9.58372C4.5911 9.80256 4.62588 10.0479 4.40169 10.2714C4.17384 10.4975 3.93227 10.4472 3.71632 10.2384C3.38782 9.91976 3.05566 9.60478 2.74179 9.2724C2.56245 9.08194 2.43159 9.02792 2.23028 9.25317C1.9457 9.5709 1.63184 9.86207 1.32622 10.1597C1.10569 10.3739 0.995885 10.6294 1.01053 10.9489V10.9471Z" fill="black"/>
</svg>
