<svg width="16" height="16" viewBox="0 0 16 16" fill="none" xmlns="http://www.w3.org/2000/svg">
<path d="M14.04 7.88008L13.9333 7.73341C13.7466 7.50674 13.5266 7.32674 13.2733 7.19341C12.9333 7.00008 12.5466 6.90008 12.1466 6.90008H3.84664C3.44664 6.90008 3.06664 7.00008 2.71997 7.19341C2.45997 7.33341 2.22664 7.52674 2.0333 7.76674C1.6533 8.25341 1.4733 8.85341 1.5333 9.45341L1.77997 12.5667C1.86664 13.5067 1.97997 14.6667 4.0933 14.6667H11.9066C14.02 14.6667 14.1266 13.5067 14.22 12.5601L14.4666 9.46008C14.5266 8.90008 14.38 8.34008 14.04 7.88008ZM9.5933 11.5601H6.39997C6.13997 11.5601 5.9333 11.3467 5.9333 11.0934C5.9333 10.8401 6.13997 10.6267 6.39997 10.6267H9.5933C9.8533 10.6267 10.06 10.8401 10.06 11.0934C10.06 11.3534 9.8533 11.5601 9.5933 11.5601Z" fill="#00A5B6"/>
<path d="M2.2533 7.54002C2.39996 7.40669 2.54663 7.28668 2.71996 7.19335C3.05996 7.00002 3.44663 6.90002 3.84663 6.90002H12.1533C12.5533 6.90002 12.9333 7.00002 13.28 7.19335C13.4533 7.28668 13.6066 7.40668 13.7466 7.54669V7.19335V6.54668C13.7466 4.16668 13.02 3.44002 10.64 3.44002H9.0533C8.75996 3.44002 8.7533 3.43335 8.57996 3.20668L7.77996 2.13335C7.39996 1.64002 7.09996 1.33335 6.14663 1.33335H5.35996C2.97996 1.33335 2.2533 2.06002 2.2533 4.44002V7.20002V7.54002Z" fill="#083F4E"/>
</svg>
