<svg width="20" height="20" viewBox="0 0 20 20" fill="none" xmlns="http://www.w3.org/2000/svg">
<path d="M15.3573 6.54974C14.4114 5.58559 13.4709 4.61393 12.5359 3.6404C12.1093 3.19396 11.6173 2.98575 10.9963 3.00076C9.72729 3.03077 8.45824 3.00638 7.18918 3.01013C5.68229 3.01576 5.02144 3.67416 5.00873 5.21418C4.99602 6.99243 5.0051 8.76879 5.0051 10.547C5.0051 12.3253 4.99058 14.1017 5.01055 15.8799C5.02507 17.3092 5.70771 17.992 7.08933 17.9958C9.35511 18.0014 11.6227 18.0014 13.8885 17.9958C15.3137 17.992 15.9836 17.3074 15.9909 15.8086C16.0036 13.2819 15.9836 10.7571 15.9999 8.23044C16.0036 7.56454 15.8148 7.01494 15.3554 6.54787L15.3573 6.54974ZM11.4593 4.32506C12.5541 5.45616 13.6234 6.561 14.72 7.69585C13.8921 7.69585 13.0225 7.69022 12.1528 7.69772C11.708 7.70147 11.4648 7.50076 11.4611 7.03557C11.4557 6.11456 11.4611 5.19167 11.4611 4.32318L11.4593 4.32506ZM14.9887 15.9606C14.9887 16.6884 14.6292 17.0579 13.9266 17.0598C11.659 17.0635 9.39142 17.0598 7.12382 17.0635C6.31047 17.0635 6.00183 16.6227 6.00727 15.8255C6.0218 14.0791 6.0109 12.3309 6.0109 10.5827C6.0109 8.80443 6.00364 7.02619 6.01453 5.24795C6.01998 4.2369 6.28505 3.96491 7.24546 3.95178C8.12236 3.94052 8.99927 3.96679 9.87617 3.9424C10.3101 3.92927 10.468 4.09246 10.4571 4.53702C10.4353 5.31735 10.4426 6.09768 10.4553 6.87613C10.4753 8.16104 10.9255 8.62248 12.151 8.63186C12.9063 8.63749 13.6634 8.6525 14.4186 8.62623C14.8562 8.61123 14.9978 8.7838 14.996 9.22273C14.9833 11.4699 14.9905 13.7152 14.9887 15.9624V15.9606Z" fill="white"/>
<path d="M12.6975 10.5076C12.0058 10.5076 11.3123 10.5076 10.6205 10.5076C9.8689 10.5076 9.11546 10.5076 8.36383 10.5076C8.02614 10.5076 7.74292 10.5939 7.76471 11.0122C7.78286 11.3724 8.04793 11.4437 8.34567 11.4418C9.79084 11.4418 11.2342 11.4399 12.6793 11.4418C12.988 11.4418 13.2313 11.3349 13.2367 10.9822C13.2422 10.6314 13.008 10.5076 12.6957 10.5076H12.6975Z" fill="white"/>
<path d="M12.6739 12.3778C11.2287 12.3797 9.78539 12.3797 8.34023 12.3778C8.03885 12.3778 7.77923 12.4585 7.76471 12.8167C7.74837 13.235 8.03703 13.3157 8.37109 13.3138C9.06281 13.3119 9.75634 13.3138 10.4481 13.3138C11.1706 13.3138 11.8932 13.3119 12.6158 13.3138C12.9462 13.3138 13.244 13.2482 13.2367 12.8299C13.2313 12.4772 12.9789 12.3778 12.6739 12.3797V12.3778Z" fill="white"/>
<path d="M12.5759 14.2517C11.1906 14.2536 9.80718 14.2536 8.42193 14.2517C8.10239 14.2517 7.77378 14.278 7.76471 14.6982C7.75381 15.1859 8.12418 15.1896 8.46913 15.1877C9.1318 15.1877 9.79265 15.1877 10.4553 15.1877C11.118 15.1877 11.8406 15.1877 12.5323 15.1877C12.8772 15.1877 13.2476 15.1859 13.2349 14.6963C13.224 14.2761 12.8954 14.2517 12.5759 14.2517Z" fill="white"/>
</svg>
