<svg width="14" height="14" viewBox="0 0 14 14" fill="none" xmlns="http://www.w3.org/2000/svg">
<path d="M12.6409 8.34167L12.4075 11.2583C12.32 12.1508 12.25 12.8333 10.6692 12.8333H3.33086C1.75003 12.8333 1.68003 12.1508 1.59253 11.2583L1.35919 8.34167C1.31253 7.8575 1.46419 7.40833 1.73836 7.06417C1.74419 7.05833 1.74419 7.05833 1.75003 7.0525C2.07086 6.66167 2.55503 6.41667 3.09753 6.41667H10.9025C11.445 6.41667 11.9234 6.66167 12.2384 7.04083C12.2442 7.04667 12.25 7.0525 12.25 7.05833C12.5359 7.4025 12.6934 7.85167 12.6409 8.34167Z" stroke="#1C1C1C" stroke-miterlimit="10"/>
<path d="M2.04163 6.66752V3.66335C2.04163 1.68002 2.53746 1.18418 4.52079 1.18418H5.26163C6.00246 1.18418 6.17163 1.40585 6.45163 1.77918L7.19246 2.77085C7.37913 3.01585 7.48996 3.16752 7.98579 3.16752H9.47329C11.4566 3.16752 11.9525 3.66335 11.9525 5.64668V6.69085" stroke="#1C1C1C" stroke-miterlimit="10" stroke-linecap="round" stroke-linejoin="round"/>
<path d="M5.50073 9.91667H8.49907" stroke="#1C1C1C" stroke-miterlimit="10" stroke-linecap="round" stroke-linejoin="round"/>
</svg>
