<svg width="20" height="20" viewBox="0 0 20 20" fill="none" xmlns="http://www.w3.org/2000/svg">
<path d="M16.4467 11.5334L16.18 14.8667C16.08 15.8867 16 16.6667 14.1934 16.6667H5.80671C4.00005 16.6667 3.92005 15.8867 3.82005 14.8667L3.55338 11.5334C3.50005 10.98 3.67338 10.4667 3.98671 10.0734C3.99338 10.0667 3.99338 10.0667 4.00005 10.06C4.36671 9.61336 4.92005 9.33336 5.54005 9.33336H14.46C15.08 9.33336 15.6267 9.61336 15.9867 10.0467C15.9934 10.0534 16 10.06 16 10.0667C16.3267 10.46 16.5067 10.9734 16.4467 11.5334Z" stroke="white" stroke-width="0.888889" stroke-miterlimit="10"/>
<path d="M4.33337 9.62001V6.18668C4.33337 3.92001 4.90004 3.35335 7.16671 3.35335H8.01337C8.86004 3.35335 9.05337 3.60668 9.37337 4.03335L10.22 5.16668C10.4334 5.44668 10.56 5.62001 11.1267 5.62001H12.8267C15.0934 5.62001 15.66 6.18668 15.66 8.45335V9.64668" stroke="white" stroke-width="0.888889" stroke-miterlimit="10" stroke-linecap="round" stroke-linejoin="round"/>
<path d="M8.28662 13.3334H11.7133" stroke="white" stroke-width="0.888889" stroke-miterlimit="10" stroke-linecap="round" stroke-linejoin="round"/>
</svg>
