<svg width="17" height="17" viewBox="0 0 17 17" fill="none" xmlns="http://www.w3.org/2000/svg">
<path d="M15.5833 5.53199V9.84574L14.4287 8.85407C13.8762 8.37949 12.9837 8.37949 12.4312 8.85407L9.48454 11.3828C8.93204 11.8574 8.03954 11.8574 7.48704 11.3828L7.24621 11.1845C6.74329 10.7453 5.94288 10.7028 5.37621 11.0853L1.89121 13.4228L1.81329 13.4795C1.55121 12.9128 1.41663 12.2399 1.41663 11.4678V5.53199C1.41663 2.95366 2.95371 1.41657 5.53204 1.41657H11.4679C14.0462 1.41657 15.5833 2.95366 15.5833 5.53199Z" fill="#8D8D8D"/>
<path d="M6.37504 7.35254C7.3061 7.35254 8.06088 6.59777 8.06088 5.66671C8.06088 4.73565 7.3061 3.98087 6.37504 3.98087C5.44398 3.98087 4.68921 4.73565 4.68921 5.66671C4.68921 6.59777 5.44398 7.35254 6.37504 7.35254Z" fill="#1E1E1E"/>
<path d="M15.5834 9.84578V11.4679C15.5834 14.0462 14.0463 15.5833 11.4679 15.5833H5.5321C3.72585 15.5833 2.42252 14.8254 1.81335 13.4795L1.89127 13.4229L5.37627 11.0854C5.94294 10.7029 6.74335 10.7454 7.24627 11.1845L7.4871 11.3829C8.0396 11.8574 8.9321 11.8574 9.4846 11.3829L12.4313 8.85411C12.9838 8.37953 13.8763 8.37953 14.4288 8.85411L15.5834 9.84578Z" fill="#1E1E1E"/>
</svg>
