<svg width="20" height="20" viewBox="0 0 20 20" fill="none" xmlns="http://www.w3.org/2000/svg">
<path d="M15.5139 5.58543C15.1882 5.20661 14.8242 4.68325 14.3645 5.24898C13.8706 5.85458 14.4688 6.19352 14.7455 6.56236C15.4011 7.43961 16.2333 8.13992 16.8123 9.22153H4.29431C4.22407 9.09941 4.1517 8.9748 4.08146 8.85268C4.87115 8.02029 5.66509 7.19538 6.44627 6.35053C6.73788 6.03402 7.05078 5.64773 6.62507 5.20412C6.2398 4.80537 5.90988 5.09945 5.61401 5.44337C4.53484 6.70691 3.47056 7.98291 2.37223 9.22153C1.87841 9.77728 1.87415 10.2184 2.3701 10.7766C3.44289 11.9854 4.48375 13.2315 5.53525 14.4651C5.84602 14.8289 6.19297 15.2601 6.61442 14.8015C7.14017 14.2283 6.59952 13.8495 6.30153 13.4832C5.60762 12.6308 4.89243 11.7984 4.0623 10.809H16.7378C16.8016 10.9112 16.8655 11.0109 16.9272 11.1131C16.1503 11.943 15.367 12.7629 14.6007 13.6078C14.324 13.9118 13.9473 14.2707 14.3496 14.7517C14.7646 15.2501 15.1116 14.8888 15.4287 14.5174C16.4802 13.2838 17.5168 12.0302 18.5939 10.829C19.1218 10.2408 19.1452 9.78476 18.6045 9.18414C17.5509 8.01281 16.542 6.78666 15.5117 5.58543H15.5139Z" fill="white"/>
</svg>
