<svg width="13" height="5" viewBox="0 0 13 5" fill="none" xmlns="http://www.w3.org/2000/svg">
<path d="M0 0.182973C0.186064 0.0513443 0.385231 0 0.614098 0C4.51183 0.00653473 8.40956 0.00373413 12.3073 0.0056012C12.4226 0.0056012 12.5431 -0.000933532 12.6532 0.0308066C12.8751 0.0942869 13 0.275392 13 0.509709C13 0.744026 12.8751 0.927932 12.6532 0.988612C12.5292 1.02222 12.3946 1.01475 12.2645 1.01475C8.39558 1.01568 4.52755 1.01475 0.658648 1.01942C0.417551 1.01942 0.20004 0.982077 0.000873538 0.837379V0.182973H0Z" fill="black"/>
<path d="M0 4.19716C0.164225 4.0534 0.349415 3.99832 0.565179 3.99832C4.49436 4.00205 8.42441 4.00112 12.3536 4.00205C12.4549 4.00205 12.5615 3.99925 12.6567 4.03006C12.8751 4.10007 13.0052 4.27744 12.9974 4.51456C12.9895 4.74515 12.876 4.93092 12.6349 4.97013C12.5204 4.9888 12.4034 4.99627 12.2881 4.99627C8.41654 4.9972 4.54589 4.99627 0.674372 5C0.436769 5 0.214017 4.96266 0.00174708 4.85157V4.19809L0 4.19716Z" fill="black"/>
</svg>
