<svg width="109" height="38" viewBox="0 0 109 38" fill="none" xmlns="http://www.w3.org/2000/svg">
<g clip-path="url(#clip0_566_21)">
<path d="M37.2802 35.7069C37.4551 35.3573 37.5425 34.9639 37.5425 34.4832C37.5425 34.0024 37.4551 33.6091 37.2802 33.2594C37.1054 32.9098 36.8432 32.6476 36.5373 32.4727C36.2313 32.2979 35.8817 32.2105 35.4883 32.2105C35.095 32.2105 34.7454 32.2979 34.4394 32.4727C34.1335 32.6476 33.8713 32.9098 33.6964 33.2594C33.5216 33.6091 33.4342 34.0024 33.4342 34.4832C33.4342 34.9639 33.5216 35.3573 33.6964 35.7069C33.8713 36.0565 34.1335 36.3188 34.4394 36.4936C34.7454 36.6684 35.095 36.7558 35.4883 36.7558C35.7506 36.7558 36.0128 36.7121 36.275 36.6247L36.6247 37.0618H37.4988L36.8432 36.2751C37.018 36.1002 37.1491 35.9254 37.2802 35.7069ZM34.8765 35.7506C34.7016 35.6195 34.5705 35.4884 34.4831 35.2699C34.3957 35.0513 34.352 34.7891 34.352 34.4832C34.352 34.1772 34.3957 33.915 34.4831 33.6965C34.5705 33.478 34.7016 33.3031 34.8765 33.2157C35.0513 33.1283 35.2261 33.0409 35.4883 33.0409C35.7069 33.0409 35.9254 33.0846 36.1002 33.2157C36.275 33.3468 36.4061 33.478 36.4935 33.6965C36.581 33.915 36.6247 34.1772 36.6247 34.4832C36.6247 34.7891 36.581 35.0513 36.4935 35.2699C36.4498 35.401 36.3624 35.4884 36.3187 35.5758L36.0128 35.1387H35.2261L35.7943 35.8817C35.7069 35.8817 35.6632 35.9254 35.5757 35.9254C35.2698 35.9254 35.0513 35.8817 34.8765 35.7506Z" fill="#010101"/>
<path d="M27.6214 32.2542H26.7036V36.6684H29.5444V35.9254H27.6214V32.2542Z" fill="#010101"/>
<path d="M41.913 35.0513C41.913 35.2261 41.8692 35.3573 41.7818 35.4884C41.6944 35.6195 41.607 35.7069 41.4759 35.7943C41.3448 35.8817 41.17 35.9254 40.9952 35.9254C40.8203 35.9254 40.6455 35.8817 40.5144 35.7943C40.3833 35.7069 40.2959 35.6195 40.2085 35.4884C40.1211 35.3573 40.0773 35.2261 40.0773 35.0513V32.2542H39.2032V35.1387C39.2032 35.4447 39.2907 35.7506 39.4218 35.9691C39.5529 36.2314 39.7714 36.4062 40.0773 36.5373C40.3396 36.6684 40.6892 36.7558 41.0389 36.7558C41.3885 36.7558 41.7381 36.6684 42.0004 36.5373C42.2626 36.4062 42.4811 36.2314 42.6559 35.9691C42.8308 35.7069 42.8745 35.4447 42.8745 35.1387V32.2542H41.9567V35.0513H41.913Z" fill="#010101"/>
<path d="M22.4642 32.2542L20.9346 36.6684H21.9398L22.2457 35.6632H23.8191L24.125 36.6684H25.2176L23.688 32.2542H22.4642ZM22.5079 34.9639L23.0324 33.3031H23.0761L23.6006 34.9639H22.5079Z" fill="#010101"/>
<path d="M6.68685 32.2542H5.76904V36.6684H6.68685V32.2542Z" fill="#010101"/>
<path d="M3.14672 32.5164C2.84078 32.3416 2.44744 32.2542 2.01039 32.2542H0.393311V36.6684H1.96669C2.40374 36.6684 2.79708 36.581 3.10301 36.4062C3.40895 36.2314 3.67118 35.9691 3.846 35.6632C4.02082 35.3136 4.10823 34.9202 4.10823 34.4832C4.10823 34.0461 4.02082 33.6528 3.846 33.3031C3.67118 32.9535 3.45265 32.6913 3.14672 32.5164ZM3.05931 35.2698C2.9719 35.4884 2.84078 35.6195 2.62226 35.7069C2.44744 35.7943 2.18521 35.838 1.92298 35.838H1.35482V33.0409H1.96669C2.22892 33.0409 2.49115 33.0846 2.66597 33.172C2.84078 33.2594 3.0156 33.4342 3.10301 33.6091C3.19042 33.8276 3.23413 34.0898 3.23413 34.3957C3.19042 34.7891 3.14672 35.0513 3.05931 35.2698Z" fill="#010101"/>
<path d="M16.5641 33.0409H17.8752V36.6684H18.8367V33.0409H20.1479V32.2542H16.5641V33.0409Z" fill="#010101"/>
<path d="M14.9471 32.2542H14.0293V36.6684H14.9471V32.2542Z" fill="#010101"/>
<path d="M10.5329 35.0076H11.4944C11.4944 35.1824 11.4507 35.3573 11.3633 35.4884C11.2759 35.6195 11.1885 35.7506 11.0136 35.7943C10.8825 35.8817 10.664 35.9254 10.4892 35.9254C10.2707 35.9254 10.0521 35.8817 9.87732 35.7506C9.7025 35.6195 9.57139 35.4884 9.48398 35.2698C9.39657 35.0513 9.35286 34.7891 9.35286 34.4832C9.35286 34.1772 9.39657 33.915 9.48398 33.6965C9.57139 33.4779 9.7025 33.3031 9.87732 33.2157C10.0521 33.0846 10.227 33.0409 10.4892 33.0409C10.6203 33.0409 10.7077 33.0409 10.8388 33.0846C10.9262 33.1283 11.0136 33.172 11.1011 33.2157C11.1885 33.2594 11.2322 33.3468 11.3196 33.4342C11.3633 33.5217 11.407 33.6091 11.4507 33.6965H12.4122C12.3685 33.4779 12.3248 33.2594 12.1937 33.0846C12.1063 32.9098 11.9315 32.735 11.8003 32.6039C11.6255 32.4727 11.4507 32.3853 11.2322 32.2979C11.0136 32.2105 10.7951 32.1668 10.5329 32.1668C10.227 32.1668 9.96473 32.2105 9.7025 32.2979C9.44027 32.3853 9.22175 32.5601 9.04693 32.735C8.87211 32.9098 8.69729 33.172 8.60988 33.4342C8.52247 33.6965 8.43506 34.0461 8.43506 34.3958C8.43506 34.8765 8.52247 35.2698 8.69729 35.6195C8.87211 35.9691 9.13434 36.2314 9.44027 36.4062C9.74621 36.581 10.0958 36.6684 10.5329 36.6684C10.8825 36.6684 11.2322 36.581 11.5381 36.4499C11.844 36.3188 12.0626 36.1002 12.1937 35.7943C12.3685 35.5321 12.4559 35.1824 12.4559 34.7891V34.2209H10.6203V35.0076H10.5329Z" fill="#010101"/>
<path d="M92.0861 34.8765H93.9655V34.0898H92.0861V33.0409H94.0966V32.2542H91.1246V36.6684H94.1403V35.9254H92.0861V34.8765Z" fill="#010101"/>
<path d="M98.8604 32.4727C98.5544 32.2979 98.2048 32.2105 97.8115 32.2105C97.4181 32.2105 97.0685 32.2979 96.7625 32.4727C96.4566 32.6476 96.1944 32.9098 96.0195 33.2594C95.8447 33.6091 95.7573 34.0024 95.7573 34.4832C95.7573 34.9639 95.8447 35.3573 96.0195 35.7069C96.1944 36.0565 96.4566 36.3188 96.7625 36.4936C97.0685 36.6684 97.4181 36.7558 97.8115 36.7558C98.2048 36.7558 98.5544 36.6684 98.8604 36.4936C99.1663 36.3188 99.4285 36.0565 99.6033 35.7069C99.7782 35.3573 99.8656 34.9639 99.8656 34.4832C99.8656 34.0024 99.7782 33.6091 99.6033 33.2594C99.4285 32.9098 99.1663 32.6476 98.8604 32.4727ZM98.773 35.2699C98.6855 35.4884 98.5544 35.6632 98.3796 35.7506C98.2048 35.8817 98.03 35.9254 97.7677 35.9254C97.5055 35.9254 97.3307 35.8817 97.1559 35.7506C96.9811 35.6195 96.8499 35.4884 96.7625 35.2699C96.6751 35.0513 96.6314 34.7891 96.6314 34.4832C96.6314 34.1772 96.6751 33.915 96.7625 33.6965C96.8499 33.478 96.9811 33.3031 97.1559 33.2157C97.3307 33.0846 97.5055 33.0409 97.7677 33.0409C98.03 33.0409 98.2048 33.0846 98.3796 33.2157C98.5544 33.3468 98.6855 33.478 98.773 33.6965C98.8604 33.915 98.9041 34.1772 98.9041 34.4832C98.9478 34.7891 98.9041 35.0513 98.773 35.2699Z" fill="#010101"/>
<path d="M81.7719 32.2542L80.2422 36.6684H81.2474L81.5533 35.6632H83.1267L83.4326 36.6684H84.4379L82.9082 32.2542H81.7719ZM81.8156 34.9639L82.34 33.3031H82.3837L82.9082 34.9639H81.8156Z" fill="#010101"/>
<path d="M89.6824 32.2542H88.5461L86.9727 34.2209H86.929V32.2542H85.9675V36.6684H86.929V35.4447L87.3661 34.8765L88.5898 36.6684H89.6824L88.0654 34.2646L89.6824 32.2542Z" fill="#010101"/>
<path d="M101.526 36.6684H102.488V34.8765H104.28V34.0898H102.488V33.0409H104.455V32.2542H101.526V36.6684Z" fill="#010101"/>
<path d="M109 33.0409V32.2542H106.072V36.6684H106.99V34.8765H108.781V34.0898H106.99V33.0409H109Z" fill="#010101"/>
<path d="M75.828 33.0409H77.1829V36.6684H78.1007V33.0409H79.4555V32.2542H75.828V33.0409Z" fill="#010101"/>
<path d="M61.4927 32.2542H60.575V36.6684H61.4927V32.2542Z" fill="#010101"/>
<path d="M45.8901 32.2542L44.3605 36.6684H45.3657L45.6716 35.6632H47.245L47.5509 36.6684H48.5561L47.0702 32.2542H45.8901ZM45.9338 34.9639L46.4583 33.3031H46.502L47.0265 34.9639H45.9338Z" fill="#010101"/>
<path d="M52.8829 35.0513H52.8392L50.9162 32.2542H50.1295V36.6684H51.0473V33.915H51.091L53.014 36.6684H53.8007V32.2542H52.8829V35.0513Z" fill="#010101"/>
<path d="M55.374 33.0409H56.7289V36.6684H57.6467V33.0409H59.0015V32.2542H55.374V33.0409Z" fill="#010101"/>
<path d="M70.1026 34.1772H70.0589L69.0537 32.2542H68.0048L69.6218 35.1387V36.6684H70.5396V35.1387L72.1567 32.2542H71.1078L70.1026 34.1772Z" fill="#010101"/>
<path d="M63.0662 33.0409H64.421V36.6684H65.3388V33.0409H66.6937V32.2542H63.0662V33.0409Z" fill="#010101"/>
<path d="M7.42983 15.5152L13.4174 21.8087H14.2915L20.3228 15.5152V28.583H27.7089V27.7526C27.5778 27.6652 27.4467 27.5341 27.3156 27.4467C24.9118 25.3488 23.6443 22.3332 23.6443 18.7931C23.6443 14.6411 25.3051 11.6692 27.7089 9.78988V0.218513H25.0866L13.8545 12.4559L2.62229 0.218513H0V28.583H7.38613V15.5152H7.42983Z" fill="#575858"/>
<path d="M42.6996 18.6183H44.273C45.0597 12.7181 42.0441 8.69727 35.3135 8.60986C32.5601 8.60986 29.7193 9.57136 27.7088 11.5818C26.0918 13.2426 24.9991 15.6026 24.9991 18.7931C24.9991 21.8087 26.0044 24.2562 27.7088 26.0044C29.7193 28.0585 32.7349 29.1512 36.275 29.1512C38.9847 29.1074 41.6944 28.4082 44.0545 27.3155L44.0108 26.9659C43.0056 25.8296 42.2189 24.431 41.7818 22.8577C40.2959 23.251 38.3728 23.5569 36.7121 23.5569C34.352 23.5569 32.2105 22.9888 31.8608 20.4539H41.3885V19.9731C41.3885 19.6235 41.5196 19.2738 41.7818 19.0116C42.0003 18.7494 42.35 18.6183 42.6996 18.6183ZM38.1543 16.3456H31.8608C32.1667 14.6848 33.8275 13.8544 35.2698 13.8544C36.7121 13.8544 38.3728 14.5537 38.1543 16.3456Z" fill="#575858"/>
<path d="M63.7654 19.3175C63.7654 20.8472 63.4595 22.3769 62.8476 23.7754C65.6448 27.1407 69.9278 28.8452 74.2109 28.8452C76.0028 28.8452 77.8384 28.5393 79.5429 27.9274C77.4014 26.66 75.7843 24.5184 75.3472 22.0273C74.9976 22.071 74.6043 22.1147 74.2109 22.1147C69.8841 22.1147 67.1307 18.5309 67.1307 14.4226C67.1307 9.74618 69.9278 6.68683 74.2109 6.68683C77.2266 6.68683 79.3681 7.82316 80.3733 10.7077H87.4972C86.4046 3.14674 80.0237 -1.52588e-05 74.2109 -1.52588e-05C67.9174 -1.52588e-05 61.6239 3.7149 60.0942 10.9699C62.498 12.7181 63.7654 15.6026 63.7654 19.3175Z" fill="#575858"/>
<path d="M48.3377 14.7285C48.5562 14.6411 48.7747 14.51 48.9932 14.4226C49.0224 14.3935 49.0369 14.3643 49.0369 14.3352C49.0369 14.2915 48.9932 14.2915 48.9932 14.2478C48.9932 14.2478 48.9932 14.2915 49.0369 14.2915C49.0806 14.3352 49.0369 14.3789 48.9932 14.3789C48.7747 14.51 48.5562 14.6411 48.3377 14.7285H48.2502C48.2939 14.7722 48.3377 14.7722 48.3377 14.7285Z" fill="#575858"/>
<path d="M44.4042 25.3488C44.6664 25.6985 44.9286 26.0044 45.2346 26.3103C44.9723 26.0044 44.6664 25.6985 44.4042 25.3488Z" fill="#575858"/>
<path d="M43.4863 23.688C43.7486 24.2999 44.0545 24.8681 44.4478 25.3925C44.0545 24.8244 43.7486 24.2562 43.4863 23.688Z" fill="#575858"/>
<path d="M60.1379 12.8055C60.2253 12.8929 60.2691 12.9366 60.3565 13.024C60.2691 12.9366 60.1816 12.8492 60.1379 12.8055Z" fill="#575858"/>
<path d="M61.318 14.3789C61.3617 14.4226 61.3617 14.4663 61.4054 14.51C61.3617 14.4663 61.318 14.4226 61.318 14.3789Z" fill="#575858"/>
<path d="M61.5802 14.9471C61.5802 14.9908 61.6239 14.9908 61.6239 15.0345C61.6239 15.0053 61.6093 14.9762 61.5802 14.9471Z" fill="#575858"/>
<path d="M59.2201 12.0625C59.1327 12.0188 59.089 11.9751 59.0016 11.9314C59.089 11.9751 59.1764 12.0188 59.2201 12.0625Z" fill="#575858"/>
<path d="M58.6083 11.6692C58.652 11.7129 58.7394 11.7129 58.7831 11.7566C58.6957 11.7129 58.652 11.6692 58.6083 11.6692Z" fill="#575858"/>
<path d="M59.3512 12.1499C59.3075 12.1062 59.2638 12.1062 59.2201 12.0625C59.2638 12.0625 59.3075 12.1062 59.3512 12.1499Z" fill="#575858"/>
<path d="M60.7061 13.4611C60.7935 13.5485 60.8809 13.6796 60.9246 13.8107C60.8809 13.6796 60.7935 13.5922 60.7061 13.4611Z" fill="#0A3F4E"/>
<path d="M60.3127 12.9803C60.4002 13.0678 60.4876 13.1552 60.575 13.2863C60.4876 13.1989 60.4002 13.1115 60.3127 12.9803Z" fill="#0A3F4E"/>
<path d="M61.3617 14.51C61.4491 14.6411 61.4928 14.816 61.5802 14.9471C61.5365 14.816 61.4491 14.6411 61.3617 14.51Z" fill="#0A3F4E"/>
<path d="M61.2306 24.0814C61.4054 23.8192 61.5365 23.5132 61.6239 23.251C61.4928 23.5132 61.3617 23.7754 61.2306 24.0814Z" fill="#0A3F4E"/>
<path d="M58.7831 11.7566C58.8705 11.8003 58.9579 11.844 59.0453 11.9314C58.9142 11.844 58.8705 11.8003 58.7831 11.7566Z" fill="#0A3F4E"/>
<path d="M61.6239 23.2073C61.755 22.9888 61.8424 22.7265 61.9298 22.4643C61.8424 22.7265 61.7113 22.9888 61.6239 23.2073Z" fill="#0A3F4E"/>
<path d="M61.6239 15.0345C61.6239 15.0053 61.6094 14.9762 61.5802 14.947C61.4928 14.7722 61.4491 14.6411 61.3617 14.51C61.318 14.4663 61.318 14.4226 61.2743 14.3789C61.1869 14.2478 61.1432 14.1167 61.0558 13.9855C61.0121 13.9418 60.9683 13.8544 60.9246 13.8107C60.8372 13.6796 60.7498 13.5922 60.7061 13.4611C60.6624 13.3737 60.6187 13.33 60.5313 13.2863C60.4439 13.1989 60.3565 13.1114 60.2691 12.9803C60.1817 12.8929 60.138 12.8492 60.0505 12.7618C59.9631 12.6744 59.8757 12.587 59.7883 12.4996C59.7009 12.4122 59.6135 12.3685 59.5261 12.2811C59.4387 12.1936 59.3513 12.1499 59.2639 12.0625C59.2202 12.0188 59.1765 12.0188 59.1327 11.9751C59.0453 11.9314 59.0016 11.8877 58.9142 11.844C58.8268 11.8003 58.7394 11.7566 58.652 11.6692C58.6083 11.6255 58.5209 11.6255 58.4772 11.5818C58.3898 11.5381 58.3024 11.4944 58.2149 11.4507C58.1275 11.407 58.0838 11.3632 57.9964 11.3632C57.7779 11.2758 57.5594 11.1884 57.3408 11.101H57.2534C57.2097 11.0136 57.1223 10.8388 57.0349 10.7077C56.8601 10.4454 56.6853 10.1832 56.6853 10.1395C56.6853 10.0958 56.6416 10.0958 56.6416 10.0521C56.6416 10.0521 56.5979 10.0521 56.5979 10.0084C56.5542 10.0084 56.5542 9.96469 56.5105 9.96469H56.4667C56.3793 9.96469 56.2919 10.0521 56.2482 10.1832C56.2482 10.2269 56.2482 10.2706 56.2919 10.358C56.3793 10.5329 56.423 10.664 56.5105 10.7951C56.5542 10.8825 56.5542 10.9262 56.4667 10.9699C56.2482 11.0573 56.0734 11.1447 55.8549 11.2321H55.7675L55.7238 11.1884C55.6364 11.0136 55.5927 10.8825 55.5052 10.7077V10.664C55.4615 10.6203 55.4615 10.5766 55.4178 10.5766L55.3741 10.5329H55.1556C55.0245 10.5766 54.9808 10.7077 55.0245 10.8825V10.9262C55.1119 11.101 55.1556 11.2321 55.243 11.407C55.2867 11.4507 55.243 11.4944 55.1993 11.5381C54.9808 11.6255 54.7623 11.7129 54.5437 11.844C54.5 11.8877 54.4563 11.844 54.4563 11.8003V11.7566C54.3689 11.5818 54.3252 11.407 54.2378 11.2758C54.1941 11.2321 54.1941 11.1884 54.1504 11.1447C54.0193 11.0573 53.8882 11.101 53.8007 11.2321C53.757 11.3195 53.757 11.407 53.8007 11.4944C53.8882 11.6692 53.9319 11.8003 54.0193 11.9751C54.063 12.0625 54.0193 12.0625 53.9756 12.1062C53.757 12.1936 53.5822 12.2811 53.3637 12.3685H53.2763C53.2763 12.3685 53.2326 12.3685 53.2326 12.3248C53.1452 12.1499 53.1015 12.0188 53.0141 11.844C52.9704 11.8003 52.9704 11.7566 52.9267 11.7566C52.8829 11.7129 52.7955 11.7129 52.7081 11.7129C52.577 11.7566 52.5333 11.844 52.4896 11.9314C52.4896 11.9751 52.4896 12.0188 52.5333 12.0625V12.1062C52.6207 12.2811 52.6644 12.4122 52.7518 12.587C52.7955 12.6307 52.7955 12.6744 52.7081 12.6744C52.4896 12.7618 52.2711 12.8492 52.0963 12.9366C52.0526 12.9803 52.0089 12.9803 51.9651 12.9366C51.9651 12.9366 51.9651 12.8929 51.9214 12.8929C51.834 12.7181 51.7903 12.587 51.7029 12.4122C51.6592 12.3685 51.6592 12.3248 51.6155 12.3248C51.4844 12.2373 51.3533 12.2811 51.2659 12.4122C51.2222 12.4996 51.2222 12.587 51.2659 12.6307V12.6744C51.3533 12.8492 51.397 12.9803 51.4844 13.1551C51.5281 13.2426 51.5281 13.2863 51.4407 13.33C51.2222 13.4174 51.0473 13.5048 50.8725 13.5922C50.8288 13.6359 50.7851 13.6359 50.7414 13.5922C50.7414 13.5922 50.7414 13.5485 50.6977 13.5485C50.654 13.3737 50.5666 13.2426 50.4792 13.0677V13.024C50.4355 12.9803 50.4355 12.9366 50.3918 12.9366L50.3481 12.8929H50.3044C50.2607 12.8929 50.1732 12.8492 50.1295 12.8929C49.9984 12.9366 49.9547 13.0677 49.9984 13.2426V13.2863C50.0858 13.4611 50.1295 13.5922 50.217 13.767C50.2607 13.8107 50.217 13.8544 50.1732 13.8981C49.9547 13.9855 49.7799 14.073 49.5614 14.1604C49.5177 14.2041 49.474 14.1604 49.474 14.1604L49.4303 14.1167C49.3429 13.9418 49.2991 13.8107 49.2117 13.6359V13.5922C49.2117 13.5485 49.168 13.5485 49.168 13.5048C49.1243 13.4611 49.0369 13.4611 48.9495 13.4611C48.9058 13.4611 48.8621 13.5048 48.8184 13.5485C48.7747 13.5922 48.731 13.6796 48.731 13.767C48.731 13.8107 48.7747 13.8981 48.7747 13.9418C48.8184 14.073 48.8621 14.1604 48.9495 14.2915C48.9495 14.3352 48.9932 14.3352 48.9932 14.3789C49.0369 14.4226 49.0369 14.4663 48.9495 14.4663C48.731 14.5537 48.5125 14.6411 48.2939 14.7722H48.2502V15.5589C49.8673 15.3841 51.6155 15.2967 52.9704 15.7337C53.0141 15.7337 53.0578 15.7774 53.1015 15.7774C53.1452 15.7774 53.2326 15.8211 53.2763 15.8211L53.5385 15.9523C53.5822 15.9523 53.5822 15.996 53.6259 15.996L53.8882 16.1271C53.8882 16.1271 53.9319 16.1271 53.9319 16.1708C54.0193 16.2582 54.1504 16.3019 54.2378 16.3893C54.9371 17.0012 55.3741 17.919 55.4178 19.3612C55.3741 21.2406 54.1504 22.7702 52.2711 22.7702C50.7414 22.7702 49.6488 22.1584 49.2554 20.9346C49.168 20.6287 49.1243 20.3228 49.1243 19.9731H42.6997C42.6997 20.1479 42.7434 20.279 42.7434 20.4539C42.7434 20.6724 42.7871 20.8909 42.7871 21.1094C42.8308 21.328 42.8308 21.5028 42.8745 21.7213C42.9182 21.9398 42.9619 22.1584 43.0493 22.3769C43.1805 22.8139 43.3116 23.251 43.4864 23.688V23.6443C43.7486 24.2562 44.0546 24.8244 44.4479 25.3051C44.7101 25.6547 44.9724 25.9607 45.2783 26.2666C45.8028 26.7911 46.3709 27.2281 47.0265 27.6215C48.5562 28.5393 50.4355 29.02 52.4896 29.02C56.8164 29.02 59.7446 26.8785 61.2743 23.994C61.4054 23.7317 61.5365 23.4258 61.6676 23.1199C61.755 22.8576 61.8862 22.5954 61.9299 22.3769C62.2795 21.3717 62.4106 20.279 62.4106 19.2301C62.4106 17.8316 62.1921 16.3456 61.6239 15.0345Z" fill="#0A3F4E"/>
<path d="M49.7799 11.5818L49.1681 12.7618L49.0806 12.8929C49.1244 12.8929 49.1681 12.8492 49.2118 12.8492C49.2555 12.8492 49.2555 12.8055 49.2992 12.8055C49.3429 12.8055 49.3429 12.8055 49.3866 12.7618C49.7799 12.587 50.1733 12.4122 50.5666 12.2373C50.6103 12.2373 50.6103 12.1936 50.654 12.1936C51.0474 12.0188 51.4407 11.844 51.8341 11.6692C51.8778 11.6692 51.8778 11.6255 51.9215 11.6255C52.3148 11.4507 52.7082 11.2758 53.1015 11.101C53.1452 11.101 53.1452 11.0573 53.1889 11.0573C53.2326 11.0573 53.2326 11.0136 53.2763 11.0136C53.626 10.8388 54.0193 10.664 54.3689 10.4891C54.3981 10.4891 54.4272 10.4746 54.4563 10.4454C54.8497 10.2706 55.243 10.0958 55.6364 9.87728C55.6801 9.87728 55.6801 9.83357 55.7238 9.83357C56.1171 9.65875 56.5105 9.48393 56.9038 9.30912C56.9475 9.30912 56.9912 9.26541 57.0349 9.26541C57.2535 9.178 57.4283 9.09059 57.6468 9.00318H57.6905L61.8425 1.35483V0.305908H43.8361V6.29348H52.5333L49.7799 11.5818Z" fill="#0A3F4E"/>
<path d="M95.2767 0.174805H91.7803C91.5181 0.174805 91.3433 0.349624 91.3433 0.611854V28.583C91.3433 28.8452 91.5181 29.02 91.7803 29.02H95.2767C95.5389 29.02 95.7138 28.8452 95.7138 28.583V0.611854C95.7138 0.349624 95.5389 0.174805 95.2767 0.174805Z" fill="#575858"/>
<path d="M100.74 0.174805H97.2434C96.9812 0.174805 96.8064 0.349624 96.8064 0.611854V28.583C96.8064 28.8452 96.9812 29.02 97.2434 29.02H100.74C101.002 29.02 101.177 28.8452 101.177 28.583V0.611854C101.177 0.349624 101.002 0.174805 100.74 0.174805Z" fill="#575858"/>
<path d="M106.203 0.174805H102.706C102.444 0.174805 102.269 0.349624 102.269 0.611854V28.583C102.269 28.8452 102.444 29.02 102.706 29.02H106.203C106.465 29.02 106.64 28.8452 106.64 28.583V0.611854C106.64 0.349624 106.465 0.174805 106.203 0.174805Z" fill="#575858"/>
<path d="M83.9921 28.2246C88.6796 28.2246 92.4796 24.4246 92.4796 19.7371C92.4796 15.0496 88.6796 11.2496 83.9921 11.2496C79.3046 11.2496 75.5046 15.0496 75.5046 19.7371C75.5046 24.4246 79.3046 28.2246 83.9921 28.2246Z" fill="#F8F9FB" stroke="#F8F9FB" stroke-width="2.06287" stroke-miterlimit="10"/>
<path d="M83.9921 28.2246C88.6796 28.2246 92.4796 24.4246 92.4796 19.7371C92.4796 15.0496 88.6796 11.2496 83.9921 11.2496C79.3046 11.2496 75.5046 15.0496 75.5046 19.7371C75.5046 24.4246 79.3046 28.2246 83.9921 28.2246Z" fill="#F8F9FB"/>
<path d="M91.9769 23.0018C91.9769 22.7527 91.9769 22.5429 91.9769 22.3288C91.9769 21.6208 91.9856 20.9171 91.9769 20.2091C91.9682 19.3219 91.5661 18.6751 90.7619 18.2861C90.5652 18.1899 90.3511 18.1331 90.1326 18.1244C89.4508 18.0982 88.7646 18.0938 88.0784 18.1244C86.9727 18.1725 86.1467 19.0509 86.1467 20.1567C86.1467 21.6732 86.1467 23.1854 86.1467 24.702C86.1467 24.7544 86.1773 24.8375 86.1205 24.8593C86.0724 24.8812 86.0199 24.8112 85.9806 24.7763C85.7402 24.5534 85.6572 24.2737 85.6572 23.9459C85.6659 22.9625 85.6616 21.9835 85.6572 21.0002C85.6572 20.7292 85.679 20.4582 85.6441 20.1873C85.5829 19.7109 85.2026 19.3612 84.7219 19.3481C84.4116 19.3394 84.1013 19.3481 83.791 19.3481C83.1616 19.3481 82.7595 18.9417 82.7595 18.3123C82.7595 17.3858 82.777 16.4549 82.7552 15.5283C82.7421 14.982 83.1704 14.4881 83.7953 14.4925C86.0636 14.5012 88.3275 14.5012 90.5958 14.4925C90.8056 14.4925 90.928 14.5537 91.0504 14.7285C92.0425 16.1489 92.5757 17.7179 92.6369 19.4486C92.6806 20.6199 92.4926 21.7519 92.0731 22.8445C92.0599 22.8838 92.0425 22.9188 92.025 22.9538C92.025 22.9625 92.0162 22.9669 91.9813 23.0106L91.9769 23.0018Z" fill="#00A6B6"/>
<path d="M82.4537 20.1741C82.9213 20.1741 83.3846 20.1741 83.8522 20.1741C84.4816 20.1741 84.8836 20.5762 84.888 21.2056C84.888 22.1234 84.888 23.0456 84.888 23.9634C84.888 24.6233 84.4859 25.0254 83.8216 25.0254C82.9038 25.0254 81.9816 25.0254 81.0638 25.0254C80.7273 25.0254 80.4345 24.9161 80.2247 24.6408C80.098 24.4747 80.028 24.2824 80.0237 24.0726C80.0237 23.0849 80.0149 22.1015 80.0237 21.1138C80.028 20.5806 80.4345 20.1829 80.9677 20.1741C81.4615 20.1654 81.9554 20.1741 82.4449 20.1741H82.4537Z" fill="#00A6B6"/>
<path d="M77.2047 16.9181C77.2047 16.4417 77.2047 15.9697 77.2047 15.4933C77.2047 14.9121 77.6112 14.4969 78.1924 14.4969C79.1583 14.4925 80.1198 14.4925 81.0857 14.4969C81.6495 14.4969 82.0603 14.9121 82.0647 15.4759C82.0691 16.4417 82.0734 17.4032 82.0647 18.3691C82.0647 18.9242 81.6626 19.3394 81.1119 19.3437C80.1286 19.3569 79.1496 19.3569 78.1662 19.3437C77.5937 19.335 77.2047 18.9111 77.2047 18.3342C77.2047 17.8621 77.2047 17.3945 77.2047 16.9225V16.9181Z" fill="#00A6B6"/>
<path d="M90.7706 19.2607C91.1771 19.5666 91.4 19.9687 91.4262 20.4713C91.4437 20.8297 91.435 21.1925 91.435 21.5508C91.435 22.2064 91.435 22.8664 91.435 23.5219C91.435 23.605 91.4131 23.6749 91.3781 23.7492C91.0853 24.3086 90.7226 24.8156 90.3117 25.292C90.2593 25.3575 90.1981 25.3794 90.1151 25.3794C89.5163 25.3794 88.9132 25.3794 88.3144 25.3794C88.2576 25.3794 88.2008 25.3794 88.1396 25.3794C88.0041 25.3881 87.9254 25.4624 87.9254 25.5848C87.9254 25.7028 88.0085 25.7815 88.144 25.7815C88.5985 25.7815 89.0487 25.7815 89.5032 25.7815C89.5644 25.7815 89.6256 25.7815 89.6911 25.7815C89.7173 25.7815 89.7479 25.7815 89.7611 25.8077C89.7742 25.8383 89.7479 25.8558 89.7305 25.8733C89.5556 26.0175 89.3808 26.1617 89.2104 26.3103C89.1667 26.3453 89.1186 26.3409 89.0705 26.3409C88.7733 26.3409 88.4761 26.3409 88.1789 26.3409C88.0915 26.3409 88.0085 26.354 87.9604 26.4371C87.8817 26.5682 87.9604 26.7299 88.1177 26.743C88.1877 26.7474 88.262 26.743 88.3319 26.743C88.38 26.743 88.4586 26.7124 88.4718 26.7736C88.4849 26.8304 88.4018 26.8435 88.3625 26.8697C88.1046 27.0227 87.8337 27.1451 87.5627 27.2631C87.3267 27.3636 87.0863 27.4554 86.8372 27.5297C86.693 27.5777 86.6886 27.5734 86.6886 27.4204C86.6886 26.2491 86.6886 25.0735 86.6886 23.9022C86.6886 22.8052 86.6886 21.7082 86.6886 20.6112C86.6886 20.1392 86.8459 19.7327 87.1825 19.4006C87.2131 19.37 87.2436 19.3175 87.2874 19.335C87.3354 19.3525 87.3092 19.4137 87.3092 19.453C87.3179 20.1042 87.2874 20.7598 87.3267 21.411C87.3617 21.9923 87.5365 22.5298 87.9167 22.98C88.1789 23.2903 88.5023 23.4564 88.9175 23.4826C89.713 23.535 90.1806 23.1111 90.4953 22.4512C90.6876 22.0534 90.7706 21.6251 90.7706 21.1837C90.7706 20.5893 90.7575 19.995 90.7488 19.3962C90.7488 19.3481 90.7313 19.3 90.775 19.2476L90.7706 19.2607Z" fill="#0A3F4E"/>
<path d="M90.1457 13.6796C89.8005 13.6796 89.4858 13.6796 89.1711 13.6796C86.811 13.6796 84.451 13.6796 82.0953 13.6796C81.4397 13.6796 81.042 13.2863 81.042 12.6263C81.042 12.3291 81.042 12.0319 81.042 11.7347C81.042 11.6473 81.0595 11.5992 81.1513 11.5686C82.2482 11.1884 83.3758 11.0398 84.534 11.1097C85.6397 11.1753 86.6887 11.4506 87.6895 11.9183C88.5855 12.3379 89.3853 12.9016 90.0889 13.6009C90.102 13.614 90.1151 13.6359 90.1501 13.684L90.1457 13.6796Z" fill="#00A6B6"/>
<path d="M77.7335 25.6853C77.7815 25.6504 77.8384 25.6679 77.8864 25.6679C80.4257 25.6679 82.9693 25.6679 85.5086 25.6679C85.8932 25.6679 86.1379 25.9039 86.1379 26.2885C86.1379 26.8566 86.1379 27.4248 86.1379 27.993C86.1379 28.0891 86.1073 28.1197 86.0199 28.1415C84.4946 28.5043 82.9824 28.4693 81.479 28.0192C80.0717 27.5952 78.8567 26.8566 77.8209 25.8121C77.7859 25.7771 77.7378 25.7465 77.7247 25.6897L77.7335 25.6853Z" fill="#00A6B6"/>
<path d="M79.2414 22.6085C79.2414 23.0893 79.2414 23.5656 79.2414 24.0464C79.2414 24.396 79.0884 24.6714 78.8 24.8681C78.6295 24.9861 78.4329 25.0254 78.2318 25.0298C77.8997 25.0341 77.5675 25.0298 77.231 25.0341C77.1523 25.0341 77.113 24.9904 77.0693 24.938C76.2564 23.8541 75.7232 22.6435 75.4784 21.3148C75.4172 20.9783 75.3823 20.6374 75.3517 20.2965C75.3429 20.2004 75.3692 20.1741 75.4653 20.1741C76.3918 20.1741 77.3228 20.1741 78.2493 20.1741C78.8306 20.1741 79.2327 20.5806 79.2414 21.1662C79.2458 21.647 79.2414 22.1234 79.2414 22.6041V22.6085Z" fill="#00A6B6"/>
<path d="M76.4705 15.5152C76.4705 15.6725 76.4705 15.8255 76.4705 15.9785C76.4705 16.7652 76.4705 17.5519 76.4705 18.3385C76.4705 18.9242 76.0596 19.3394 75.4783 19.3525C75.3735 19.3525 75.3385 19.3306 75.3472 19.2214C75.4128 18.1987 75.6444 17.2197 76.0553 16.2844C76.1558 16.0528 76.265 15.8255 76.3918 15.6026C76.4093 15.572 76.4136 15.5327 76.4748 15.5196L76.4705 15.5152Z" fill="#00A6B6"/>
<path d="M77.8734 13.6009C77.9433 13.5397 78.0133 13.4786 78.0788 13.4174C78.6645 12.8798 79.3026 12.4209 80.0106 12.0538C80.1373 11.9882 80.1417 11.9882 80.1417 12.1281C80.1417 12.3248 80.1461 12.5171 80.1417 12.7137C80.1242 13.1814 79.7789 13.5616 79.3244 13.6272C79.2545 13.6359 79.1846 13.6403 79.1103 13.6403C78.7082 13.6403 78.3017 13.6403 77.8996 13.6403C77.8909 13.6272 77.8822 13.614 77.8734 13.5966V13.6009Z" fill="#00A6B6"/>
</g>
<defs>
<clipPath id="clip0_566_21">
<rect width="109" height="37.0618" fill="white"/>
</clipPath>
</defs>
</svg>
