<svg width="20" height="20" viewBox="0 0 20 20" fill="none" xmlns="http://www.w3.org/2000/svg">
<path d="M14.8192 3.00701C11.6157 2.997 8.41227 2.999 5.2108 3.005C3.8192 3.00901 3.03221 3.7477 3.02032 5.141C2.99257 8.37202 2.99455 11.603 3.01834 14.8321C3.02825 16.2374 3.80731 16.9841 5.18305 16.9941C6.76693 17.0061 8.3528 16.9961 9.93669 16.9961C11.5543 16.9961 13.1719 17.0041 14.7894 16.9941C16.181 16.9861 16.968 16.2514 16.9799 14.8581C17.0077 11.6271 17.0057 8.39605 16.9799 5.16703C16.97 3.76171 16.191 3.00901 14.8152 3.005L14.8192 3.00701ZM15.8995 14.6999C15.9035 15.6368 15.4634 16.0112 14.5595 16.0072C11.5206 15.9912 8.48165 16.0072 5.44471 15.9972C4.40399 15.9932 4.12051 15.6889 4.11259 14.5998C4.10069 13.0684 4.10862 11.535 4.10862 10.0015C4.10862 8.46811 4.10069 6.93668 4.1106 5.40325C4.11853 4.31423 4.40201 4.00994 5.44273 4.00794C8.48165 3.99793 11.5206 4.01395 14.5575 3.99793C15.4595 3.99393 15.9015 4.36828 15.8976 5.30516C15.8837 8.43608 15.8837 11.569 15.8976 14.6999H15.8995Z" fill="white" stroke="white" stroke-width="0.2"/>
</svg>
