<svg width="20" height="20" viewBox="0 0 20 20" fill="none" xmlns="http://www.w3.org/2000/svg">
<path d="M6.83337 6.66666H13.1667V5.33333C13.1667 3.99999 12.6667 3.33333 11.1667 3.33333H8.83337C7.33337 3.33333 6.83337 3.99999 6.83337 5.33333V6.66666Z" stroke="white" stroke-miterlimit="10" stroke-linecap="round" stroke-linejoin="round"/>
<path d="M12.6667 12V14.6667C12.6667 16 12 16.6667 10.6667 16.6667H9.33337C8.00004 16.6667 7.33337 16 7.33337 14.6667V12H12.6667Z" stroke="white" stroke-miterlimit="10" stroke-linecap="round" stroke-linejoin="round"/>
<path d="M16 8.66667V12C16 13.3333 15.3333 14 14 14H12.6667V12H7.33333V14H6C4.66667 14 4 13.3333 4 12V8.66667C4 7.33334 4.66667 6.66667 6 6.66667H14C15.3333 6.66667 16 7.33334 16 8.66667Z" stroke="white" stroke-miterlimit="10" stroke-linecap="round" stroke-linejoin="round"/>
<path d="M13.3333 12H12.5266H6.66663" stroke="white" stroke-miterlimit="10" stroke-linecap="round" stroke-linejoin="round"/>
<path d="M6.66663 9.33333H8.66663" stroke="white" stroke-miterlimit="10" stroke-linecap="round" stroke-linejoin="round"/>
</svg>
