<svg width="343" height="117" viewBox="0 0 343 117" fill="none" xmlns="http://www.w3.org/2000/svg">
<g clip-path="url(#clip0_892_73)">
<path d="M117.313 112.362C117.863 111.262 118.138 110.024 118.138 108.511C118.138 106.998 117.863 105.76 117.313 104.66C116.763 103.56 115.938 102.735 114.975 102.185C114.012 101.635 112.912 101.359 111.674 101.359C110.437 101.359 109.336 101.635 108.374 102.185C107.411 102.735 106.586 103.56 106.036 104.66C105.486 105.76 105.211 106.998 105.211 108.511C105.211 110.024 105.486 111.262 106.036 112.362C106.586 113.462 107.411 114.287 108.374 114.837C109.336 115.388 110.437 115.663 111.674 115.663C112.5 115.663 113.325 115.525 114.15 115.25L115.25 116.625H118.001L115.938 114.15C116.488 113.6 116.901 113.05 117.313 112.362ZM109.749 112.499C109.199 112.087 108.786 111.674 108.511 110.987C108.236 110.299 108.099 109.474 108.099 108.511C108.099 107.548 108.236 106.723 108.511 106.036C108.786 105.348 109.199 104.798 109.749 104.523C110.299 104.248 110.849 103.973 111.674 103.973C112.362 103.973 113.05 104.11 113.6 104.523C114.15 104.935 114.563 105.348 114.838 106.036C115.113 106.723 115.25 107.548 115.25 108.511C115.25 109.474 115.113 110.299 114.838 110.987C114.7 111.399 114.425 111.674 114.288 111.949L113.325 110.574H110.849L112.637 112.912C112.362 112.912 112.225 113.05 111.95 113.05C110.987 113.05 110.299 112.912 109.749 112.499Z" fill="white" fill-opacity="0.831373"/>
<path d="M86.919 101.497H84.0309V115.387H92.9703V113.049H86.919V101.497Z" fill="white" fill-opacity="0.831373"/>
<path d="M131.892 110.299C131.892 110.849 131.754 111.262 131.479 111.674C131.204 112.087 130.929 112.362 130.516 112.637C130.104 112.912 129.554 113.049 129.003 113.049C128.453 113.049 127.903 112.912 127.491 112.637C127.078 112.362 126.803 112.087 126.528 111.674C126.253 111.262 126.115 110.849 126.115 110.299V101.497H123.365V110.574C123.365 111.537 123.64 112.499 124.052 113.187C124.465 114.012 125.153 114.562 126.115 114.975C126.94 115.387 128.041 115.663 129.141 115.663C130.241 115.663 131.341 115.387 132.167 114.975C132.992 114.562 133.679 114.012 134.23 113.187C134.78 112.362 134.917 111.537 134.917 110.574V101.497H132.029V110.299H131.892Z" fill="white" fill-opacity="0.831373"/>
<path d="M70.6903 101.497L65.8768 115.387H69.04L70.0027 112.224H74.9538L75.9165 115.387H79.3547L74.5412 101.497H70.6903ZM70.8279 110.024L72.4782 104.798H72.6157L74.2661 110.024H70.8279Z" fill="white" fill-opacity="0.831373"/>
<path d="M21.0422 101.497H18.1541V115.387H21.0422V101.497Z" fill="white" fill-opacity="0.831373"/>
<path d="M9.90243 102.322C8.93972 101.772 7.70195 101.497 6.32665 101.497H1.23804V115.387H6.18912C7.56442 115.387 8.80219 115.112 9.7649 114.562C10.7276 114.012 11.5528 113.187 12.1029 112.224C12.653 111.124 12.9281 109.886 12.9281 108.511C12.9281 107.136 12.653 105.898 12.1029 104.798C11.5528 103.697 10.8651 102.872 9.90243 102.322ZM9.62737 110.987C9.35231 111.674 8.93972 112.087 8.25207 112.362C7.70195 112.637 6.87677 112.774 6.05159 112.774H4.2637V103.972H6.18912C7.0143 103.972 7.83948 104.11 8.3896 104.385C8.93972 104.66 9.48984 105.21 9.7649 105.76C10.04 106.448 10.1775 107.273 10.1775 108.236C10.04 109.474 9.90243 110.299 9.62737 110.987Z" fill="white" fill-opacity="0.831373"/>
<path d="M52.1237 103.972H56.2496V115.387H59.2752V103.972H63.4011V101.497H52.1237V103.972Z" fill="white" fill-opacity="0.831373"/>
<path d="M47.0351 101.497H44.147V115.387H47.0351V101.497Z" fill="white" fill-opacity="0.831373"/>
<path d="M33.1449 110.162H36.1706C36.1706 110.712 36.033 111.262 35.758 111.674C35.4829 112.087 35.2079 112.5 34.6577 112.637C34.2451 112.912 33.5575 113.05 33.0074 113.05C32.3197 113.05 31.6321 112.912 31.082 112.5C30.5318 112.087 30.1192 111.674 29.8442 110.987C29.5691 110.299 29.4316 109.474 29.4316 108.511C29.4316 107.548 29.5691 106.723 29.8442 106.036C30.1192 105.348 30.5318 104.798 31.082 104.523C31.6321 104.11 32.1822 103.973 33.0074 103.973C33.42 103.973 33.695 103.973 34.1076 104.11C34.3827 104.248 34.6577 104.385 34.9328 104.523C35.2079 104.66 35.3454 104.935 35.6204 105.21C35.758 105.485 35.8955 105.761 36.033 106.036H39.0587C38.9212 105.348 38.7836 104.66 38.371 104.11C38.096 103.56 37.5459 103.01 37.1333 102.597C36.5832 102.185 36.033 101.91 35.3454 101.635C34.6577 101.36 33.9701 101.222 33.1449 101.222C32.1822 101.222 31.357 101.36 30.5318 101.635C29.7067 101.91 29.019 102.46 28.4689 103.01C27.9188 103.56 27.3686 104.385 27.0936 105.21C26.8185 106.036 26.5435 107.136 26.5435 108.236C26.5435 109.749 26.8185 110.987 27.3686 112.087C27.9188 113.187 28.7439 114.012 29.7067 114.562C30.6694 115.113 31.7696 115.388 33.1449 115.388C34.2451 115.388 35.3454 115.113 36.3081 114.7C37.2708 114.287 37.9585 113.6 38.371 112.637C38.9212 111.812 39.1962 110.712 39.1962 109.474V107.686H33.42V110.162H33.1449Z" fill="white" fill-opacity="0.831373"/>
<path d="M289.776 109.749H295.69V107.273H289.776V103.972H296.102V101.497H286.75V115.387H296.24V113.049H289.776V109.749Z" fill="white" fill-opacity="0.831373"/>
<path d="M311.093 102.185C310.13 101.635 309.03 101.359 307.792 101.359C306.555 101.359 305.454 101.635 304.492 102.185C303.529 102.735 302.704 103.56 302.154 104.66C301.604 105.76 301.329 106.998 301.329 108.511C301.329 110.024 301.604 111.262 302.154 112.362C302.704 113.462 303.529 114.287 304.492 114.837C305.454 115.388 306.555 115.663 307.792 115.663C309.03 115.663 310.13 115.388 311.093 114.837C312.056 114.287 312.881 113.462 313.431 112.362C313.981 111.262 314.256 110.024 314.256 108.511C314.256 106.998 313.981 105.76 313.431 104.66C312.881 103.56 312.056 102.735 311.093 102.185ZM310.818 110.987C310.543 111.674 310.13 112.224 309.58 112.499C309.03 112.912 308.48 113.05 307.655 113.05C306.83 113.05 306.28 112.912 305.73 112.499C305.179 112.087 304.767 111.674 304.492 110.987C304.217 110.299 304.079 109.474 304.079 108.511C304.079 107.548 304.217 106.723 304.492 106.036C304.767 105.348 305.179 104.798 305.73 104.523C306.28 104.11 306.83 103.973 307.655 103.973C308.48 103.973 309.03 104.11 309.58 104.523C310.13 104.935 310.543 105.348 310.818 106.036C311.093 106.723 311.231 107.548 311.231 108.511C311.368 109.474 311.231 110.299 310.818 110.987Z" fill="white" fill-opacity="0.831373"/>
<path d="M257.319 101.497L252.505 115.387H255.668L256.631 112.224H261.582L262.545 115.387H265.708L260.895 101.497H257.319ZM257.456 110.024L259.107 104.798H259.244L260.895 110.024H257.456Z" fill="white" fill-opacity="0.831373"/>
<path d="M282.212 101.497H278.636L273.685 107.686H273.547V101.497H270.521V115.387H273.547V111.537L274.922 109.749L278.773 115.387H282.212L277.123 107.823L282.212 101.497Z" fill="white" fill-opacity="0.831373"/>
<path d="M319.482 115.387H322.508V109.749H328.147V107.273H322.508V103.972H328.697V101.497H319.482V115.387Z" fill="white" fill-opacity="0.831373"/>
<path d="M343 103.972V101.497H333.785V115.387H336.673V109.749H342.312V107.273H336.673V103.972H343Z" fill="white" fill-opacity="0.831373"/>
<path d="M238.615 103.972H242.878V115.387H245.766V103.972H250.03V101.497H238.615V103.972Z" fill="white" fill-opacity="0.831373"/>
<path d="M193.505 101.497H190.617V115.387H193.505V101.497Z" fill="white" fill-opacity="0.831373"/>
<path d="M144.406 101.497L139.593 115.387H142.756L143.719 112.224H148.67L149.632 115.387H152.796L148.12 101.497H144.406ZM144.544 110.024L146.194 104.798H146.332L147.982 110.024H144.544Z" fill="white" fill-opacity="0.831373"/>
<path d="M166.411 110.299H166.274L160.222 101.497H157.747V115.387H160.635V106.723H160.773L166.824 115.387H169.299V101.497H166.411V110.299Z" fill="white" fill-opacity="0.831373"/>
<path d="M174.251 103.972H178.514V115.387H181.402V103.972H185.666V101.497H174.251V103.972Z" fill="white" fill-opacity="0.831373"/>
<path d="M220.598 107.548H220.461L217.298 101.497H213.997L219.085 110.574V115.387H221.974V110.574L227.062 101.497H223.761L220.598 107.548Z" fill="white" fill-opacity="0.831373"/>
<path d="M198.456 103.972H202.72V115.387H205.608V103.972H209.871V101.497H198.456V103.972Z" fill="white" fill-opacity="0.831373"/>
<path d="M23.3801 48.8229L42.2217 68.6272H44.9723L63.9515 48.8229V89.9444H87.1941V87.3313C86.7815 87.0563 86.3689 86.6437 85.9563 86.3686C78.3921 79.7672 74.4038 70.2776 74.4038 59.1377C74.4038 46.0723 79.6299 36.7203 87.1941 30.8065V0.687378H78.9423L43.597 39.1958L8.2518 0.687378H0V89.9444H23.2426V48.8229H23.3801Z" fill="white" fill-opacity="0.831373"/>
<path d="M134.367 58.5879H139.318C141.793 40.0213 132.304 27.3686 111.124 27.0935C102.46 27.0935 93.5204 30.1192 87.194 36.4456C82.1054 41.6717 78.6671 49.0983 78.6671 59.138C78.6671 68.6276 81.8303 76.3293 87.194 81.8305C93.5204 88.2944 103.01 91.7326 114.15 91.7326C122.677 91.5951 131.204 89.3946 138.63 85.9564L138.493 84.8561C135.33 81.2804 132.854 76.8794 131.479 71.9283C126.803 73.1661 120.751 74.1288 115.525 74.1288C108.099 74.1288 101.36 72.3409 100.259 64.3642H130.241V62.8513C130.241 61.7511 130.653 60.6508 131.479 59.8257C132.166 59.0005 133.267 58.5879 134.367 58.5879ZM120.064 51.4363H100.259C101.222 46.2102 106.448 43.5971 110.987 43.5971C115.525 43.5971 120.751 45.7976 120.064 51.4363Z" fill="white" fill-opacity="0.831373"/>
<path d="M152.108 46.3477C152.796 46.0726 153.483 45.66 154.171 45.385C154.267 45.2887 154.309 45.2062 154.309 45.1099C154.309 44.9724 154.171 44.9724 154.171 44.8348C154.171 44.8348 154.171 44.9724 154.309 44.9724C154.446 45.1099 154.309 45.2474 154.171 45.2474C153.483 45.66 152.796 46.0726 152.108 46.3477H151.833C151.971 46.4852 152.108 46.4852 152.108 46.3477Z" fill="#575858"/>
<path d="M139.731 79.7673C140.556 80.8675 141.381 81.8302 142.344 82.7929C141.519 81.8302 140.556 80.8675 139.731 79.7673Z" fill="#575858"/>
<path d="M136.843 74.5413C137.668 76.4667 138.63 78.2546 139.868 79.905C138.63 78.1171 137.668 76.3292 136.843 74.5413Z" fill="#575858"/>
<path d="M189.241 40.2965C189.517 40.5716 189.654 40.7091 189.929 40.9842C189.654 40.7091 189.379 40.434 189.241 40.2965Z" fill="#575858"/>
<path d="M192.954 45.2476C193.092 45.3851 193.092 45.5227 193.23 45.6602C193.092 45.5227 192.954 45.3851 192.954 45.2476Z" fill="#575858"/>
<path d="M193.78 47.0353C193.78 47.1728 193.917 47.1728 193.917 47.3103C193.917 47.2141 193.876 47.1315 193.78 47.0353Z" fill="#575858"/>
<path d="M186.353 37.9582C186.078 37.8207 185.941 37.6832 185.666 37.5457C185.941 37.6832 186.216 37.8207 186.353 37.9582Z" fill="#575858"/>
<path d="M184.428 36.7205C184.565 36.8581 184.84 36.858 184.978 36.9956C184.703 36.858 184.565 36.7205 184.428 36.7205Z" fill="#575858"/>
<path d="M186.766 38.2335C186.628 38.096 186.491 38.096 186.353 37.9584C186.491 37.9584 186.628 38.096 186.766 38.2335Z" fill="#575858"/>
<path d="M191.03 42.3593C191.305 42.6343 191.58 43.0469 191.717 43.4595C191.58 43.0469 191.305 42.7718 191.03 42.3593Z" fill="white"/>
<path d="M189.792 40.8465C190.067 41.1216 190.342 41.3966 190.617 41.8092C190.342 41.5341 190.067 41.2591 189.792 40.8465Z" fill="white"/>
<path d="M193.092 45.6599C193.367 46.0725 193.505 46.6226 193.78 47.0352C193.643 46.6226 193.367 46.0725 193.092 45.6599Z" fill="white"/>
<path d="M192.68 75.7791C193.23 74.9539 193.642 73.9912 193.917 73.166C193.505 73.9912 193.092 74.8164 192.68 75.7791Z" fill="white"/>
<path d="M184.978 36.9957C185.253 37.1332 185.528 37.2707 185.803 37.5458C185.39 37.2707 185.253 37.1332 184.978 36.9957Z" fill="white"/>
<path d="M193.917 73.0284C194.33 72.3408 194.605 71.5156 194.88 70.6904C194.605 71.5156 194.192 72.3408 193.917 73.0284Z" fill="white"/>
<path d="M193.917 47.3099C193.917 47.2137 193.876 47.1311 193.78 47.0349C193.505 46.4848 193.367 46.0722 193.092 45.6596C192.955 45.522 192.955 45.3845 192.817 45.247C192.542 44.8344 192.405 44.4218 192.13 44.0092C191.992 43.8717 191.855 43.5966 191.717 43.4591C191.442 43.0465 191.167 42.7714 191.029 42.3589C190.892 42.0838 190.754 41.9463 190.479 41.8087C190.204 41.5337 189.929 41.2586 189.654 40.846C189.379 40.571 189.241 40.4334 188.966 40.1584C188.691 39.8833 188.416 39.6083 188.141 39.3332C187.866 39.0581 187.591 38.9206 187.316 38.6455C187.041 38.3705 186.766 38.233 186.491 37.9579C186.353 37.8204 186.216 37.8204 186.078 37.6828C185.803 37.5453 185.666 37.4078 185.391 37.2702C185.116 37.1327 184.84 36.9952 184.565 36.7201C184.428 36.5826 184.153 36.5826 184.015 36.4451C183.74 36.3075 183.465 36.17 183.19 36.0325C182.915 35.8949 182.778 35.7574 182.502 35.7574C181.815 35.4823 181.127 35.2073 180.44 34.9322H180.164C180.027 34.6572 179.752 34.107 179.477 33.6945C178.927 32.8693 178.377 32.0441 178.377 31.9066C178.377 31.769 178.239 31.769 178.239 31.6315C178.239 31.6315 178.102 31.6315 178.102 31.494C177.964 31.494 177.964 31.3564 177.826 31.3564H177.689C177.414 31.3564 177.139 31.6315 177.001 32.0441C177.001 32.1816 177.001 32.3192 177.139 32.5942C177.414 33.1443 177.551 33.5569 177.826 33.9695C177.964 34.2446 177.964 34.3821 177.689 34.5196C177.001 34.7947 176.451 35.0698 175.764 35.3448H175.488L175.351 35.2073C175.076 34.6572 174.938 34.2446 174.663 33.6945V33.5569C174.526 33.4194 174.526 33.2819 174.388 33.2819L174.251 33.1443H173.563C173.15 33.2819 173.013 33.6945 173.15 34.2446V34.3821C173.425 34.9322 173.563 35.3448 173.838 35.8949C173.976 36.0325 173.838 36.17 173.701 36.3075C173.013 36.5826 172.325 36.8576 171.638 37.2702C171.5 37.4078 171.363 37.2702 171.363 37.1327V36.9952C171.087 36.4451 170.95 35.8949 170.675 35.4823C170.537 35.3448 170.537 35.2073 170.4 35.0698C169.987 34.7947 169.575 34.9322 169.3 35.3448C169.162 35.6199 169.162 35.8949 169.3 36.17C169.575 36.7201 169.712 37.1327 169.987 37.6828C170.125 37.9579 169.987 37.9579 169.85 38.0954C169.162 38.3705 168.612 38.6455 167.924 38.9206H167.649C167.649 38.9206 167.512 38.9206 167.512 38.7831C167.237 38.233 167.099 37.8204 166.824 37.2702C166.687 37.1327 166.687 36.9952 166.549 36.9952C166.411 36.8576 166.136 36.8576 165.861 36.8576C165.449 36.9952 165.311 37.2702 165.174 37.5453C165.174 37.6828 165.174 37.8204 165.311 37.9579V38.0954C165.586 38.6455 165.724 39.0581 165.999 39.6082C166.136 39.7458 166.136 39.8833 165.861 39.8833C165.174 40.1584 164.486 40.4334 163.936 40.7085C163.798 40.846 163.661 40.846 163.523 40.7085C163.523 40.7085 163.523 40.571 163.386 40.571C163.111 40.0208 162.973 39.6083 162.698 39.0581C162.561 38.9206 162.561 38.7831 162.423 38.7831C162.01 38.508 161.598 38.6455 161.323 39.0581C161.185 39.3332 161.185 39.6083 161.323 39.7458V39.8833C161.598 40.4334 161.735 40.846 162.01 41.3961C162.148 41.6712 162.148 41.8087 161.873 41.9463C161.185 42.2213 160.635 42.4964 160.085 42.7714C159.948 42.909 159.81 42.909 159.672 42.7714C159.672 42.7714 159.672 42.6339 159.535 42.6339C159.397 42.0838 159.122 41.6712 158.847 41.1211V40.9836C158.71 40.846 158.71 40.7085 158.572 40.7085L158.435 40.571H158.297C158.16 40.571 157.885 40.4334 157.747 40.571C157.334 40.7085 157.197 41.1211 157.334 41.6712V41.8087C157.61 42.3589 157.747 42.7714 158.022 43.3216C158.16 43.4591 158.022 43.5966 157.885 43.7342C157.197 44.0092 156.647 44.2843 155.959 44.5593C155.822 44.6969 155.684 44.5593 155.684 44.5593L155.547 44.4218C155.272 43.8717 155.134 43.4591 154.859 42.909V42.7714C154.859 42.6339 154.721 42.6339 154.721 42.4964C154.584 42.3589 154.309 42.3589 154.034 42.3589C153.896 42.3589 153.759 42.4964 153.621 42.6339C153.484 42.7714 153.346 43.0465 153.346 43.3216C153.346 43.4591 153.484 43.7342 153.484 43.8717C153.621 44.2843 153.759 44.5593 154.034 44.9719C154.034 45.1095 154.171 45.1095 154.171 45.247C154.309 45.3845 154.309 45.522 154.034 45.522C153.346 45.7971 152.658 46.0722 151.971 46.4848H151.833V48.9603C156.922 48.4102 162.423 48.1351 166.687 49.5104C166.824 49.5104 166.962 49.6479 167.099 49.6479C167.237 49.6479 167.512 49.7855 167.649 49.7855L168.474 50.1981C168.612 50.1981 168.612 50.3356 168.749 50.3356L169.575 50.7482C169.575 50.7482 169.712 50.7482 169.712 50.8857C169.987 51.1608 170.4 51.2983 170.675 51.5734C172.875 53.4988 174.251 56.3869 174.388 60.9254C174.251 66.8392 170.4 71.6528 164.486 71.6528C159.672 71.6528 156.234 69.7273 154.996 65.8765C154.721 64.9138 154.584 63.9511 154.584 62.8508H134.367C134.367 63.401 134.504 63.8135 134.504 64.3637C134.504 65.0513 134.642 65.739 134.642 66.4266C134.78 67.1143 134.78 67.6644 134.917 68.352C135.055 69.0397 135.192 69.7273 135.467 70.415C135.88 71.7903 136.292 73.1656 136.842 74.5409V74.4034C137.668 76.3288 138.63 78.1167 139.868 79.6295C140.693 80.7297 141.519 81.6925 142.481 82.6552C144.132 84.3055 145.919 85.6808 147.982 86.9186C152.796 89.8067 158.71 91.3196 165.174 91.3196C178.789 91.3196 188.004 84.5806 192.817 75.5036C193.23 74.6784 193.642 73.7157 194.055 72.753C194.33 71.9278 194.743 71.1026 194.88 70.415C195.98 67.2518 196.393 63.8135 196.393 60.5128C196.393 56.1119 195.705 51.4358 193.917 47.3099Z" fill="white"/>
<path d="M156.647 36.4455L154.721 40.1588L154.446 40.5714C154.584 40.5714 154.721 40.4339 154.859 40.4339C154.996 40.4339 154.996 40.2964 155.134 40.2964C155.271 40.2964 155.271 40.2964 155.409 40.1588C156.647 39.6087 157.884 39.0586 159.122 38.5085C159.26 38.5085 159.26 38.3709 159.397 38.3709C160.635 37.8208 161.873 37.2707 163.111 36.7206C163.248 36.7206 163.248 36.5831 163.386 36.5831C164.623 36.0329 165.861 35.4828 167.099 34.9327C167.237 34.9327 167.237 34.7952 167.374 34.7952C167.512 34.7952 167.512 34.6576 167.649 34.6576C168.749 34.1075 169.987 33.5574 171.087 33.0073C171.184 33.0073 171.266 32.966 171.362 32.8697C172.6 32.3196 173.838 31.7695 175.076 31.0819C175.213 31.0819 175.213 30.9443 175.351 30.9443C176.589 30.3942 177.826 29.8441 179.064 29.294C179.202 29.294 179.339 29.1564 179.477 29.1564C180.164 28.8814 180.714 28.6063 181.402 28.3313H181.54L194.605 4.26349V0.962769H137.943V19.8044H165.311L156.647 36.4455Z" fill="white"/>
<path d="M317.007 0.550171H306.004C305.179 0.550171 304.629 1.10029 304.629 1.92547V89.9447C304.629 90.7699 305.179 91.32 306.004 91.32H317.007C317.832 91.32 318.382 90.7699 318.382 89.9447V1.92547C318.382 1.10029 317.832 0.550171 317.007 0.550171Z" fill="white" fill-opacity="0.831373"/>
<path d="M334.198 0.550171H323.196C322.37 0.550171 321.82 1.10029 321.82 1.92547V89.9447C321.82 90.7699 322.37 91.32 323.196 91.32H334.198C335.023 91.32 335.573 90.7699 335.573 89.9447V1.92547C335.573 1.10029 335.023 0.550171 334.198 0.550171Z" fill="white" fill-opacity="0.831373"/>
<path d="M189.104 34.52C196.668 40.0212 200.657 49.0982 200.657 60.7883C200.657 65.6018 199.694 70.4154 197.768 74.8164C206.57 85.4062 220.048 90.7698 233.526 90.7698C238.89 90.7698 244.377 89.8896 249.521 88.143C242.548 84.1684 237.308 77.4707 235.273 69.5077C234.695 69.549 234.104 69.5902 233.526 69.5902C219.911 69.5902 211.246 58.3127 211.246 45.3849C211.246 30.6692 220.048 21.0421 233.526 21.0421C243.016 21.0421 249.755 24.6179 252.918 33.6949H254.843C257.814 32.7046 261.005 32.1545 264.306 32.1545C267.606 32.1545 270.797 32.7046 273.768 33.6949H275.335C271.897 9.90217 251.818 0 233.526 0C213.722 0 193.918 11.6901 189.104 34.52Z" fill="white" fill-opacity="0.831373"/>
<path d="M254.788 63.484C253.11 63.5115 251.831 64.763 251.817 66.4409C251.79 69.549 251.817 72.6435 251.817 75.7517C251.831 76.4118 252.051 77.0169 252.45 77.5395C253.11 78.406 254.032 78.7498 255.091 78.7498H263.769C265.859 78.7498 267.125 77.4845 267.125 75.4078V66.7297C267.111 64.7492 265.846 63.484 263.865 63.484H259.437C257.896 63.484 256.342 63.4565 254.788 63.484Z" fill="#00A6B6"/>
<path d="M242.947 53.2515V57.6937C242.947 59.5091 244.171 60.8431 245.973 60.8706C249.067 60.9119 252.148 60.9119 255.242 60.8706C256.975 60.8569 258.24 59.5503 258.24 57.8037C258.268 54.7643 258.254 51.7386 258.24 48.6992C258.226 46.9251 256.934 45.6185 255.16 45.6185C252.643 45.6185 250.14 45.6185 247.637 45.6185C245.697 47.5852 244.102 49.8957 242.947 52.4538V53.2377V53.2515Z" fill="#00A6B6"/>
<path d="M246.055 45.6185C244.226 45.6185 242.947 46.9251 242.947 48.7542V52.4538C244.102 49.9095 245.697 47.5852 247.637 45.6185C247.114 45.6185 246.578 45.6185 246.055 45.6185Z" fill="#00A6B6"/>
<path d="M272.791 86.2865C272.791 86.7679 272.804 86.7816 273.258 86.6304C274.042 86.3966 274.799 86.1077 275.541 85.7914C276.394 85.4201 277.247 85.035 278.058 84.5536C278.182 84.4711 278.443 84.4299 278.402 84.2511C278.361 84.0585 278.113 84.1548 277.962 84.1548C277.742 84.1548 277.508 84.1686 277.288 84.1548C276.793 84.1135 276.545 83.6047 276.793 83.1921C276.944 82.9308 277.205 82.8895 277.48 82.8895H280.286C280.437 82.8895 280.589 82.8895 280.726 82.7933C281.262 82.3257 281.813 81.8718 282.363 81.418C282.418 81.363 282.5 81.3079 282.459 81.2117C282.418 81.1291 282.321 81.1292 282.239 81.1292H277.989C276.394 82.2844 274.647 83.2334 272.791 83.9623V86.2865Z" fill="white"/>
<path d="M258.337 43.0468H277.935C274.084 40.2825 269.394 38.6459 264.305 38.6459C261.032 38.6459 257.924 39.3198 255.091 40.53C255.38 42.1116 256.549 43.0468 258.337 43.0468Z" fill="#00A6B6"/>
<path d="M287.438 81.1153V89.9447C287.438 90.7699 287.988 91.32 288.813 91.32H299.816C300.641 91.32 301.191 90.7699 301.191 89.9447V1.92547C301.191 1.10029 300.641 0.550171 299.816 0.550171H288.813C287.988 0.550171 287.438 1.10029 287.438 1.92547V43.1295C291.688 48.3006 294.26 54.9021 294.26 62.1086C294.26 69.3152 291.701 75.9441 287.438 81.1153Z" fill="white" fill-opacity="0.831373"/>
<path d="M287.438 47.764C287.149 47.2826 286.847 46.815 286.517 46.3474C286.173 45.8661 285.829 45.6598 285.293 45.6185C286.09 46.6225 286.792 47.6952 287.438 48.8092V47.7503V47.764Z" fill="#00A6B6"/>
<path d="M291.014 62.1085C291.014 65.2717 290.436 68.2836 289.432 71.0892V72.4095C289.556 72.272 289.584 72.2582 289.584 72.2307C289.639 72.1207 289.694 72.0107 289.735 71.8869C291.055 68.4486 291.646 64.8866 291.509 61.2008C291.33 56.3185 289.969 51.8625 287.438 47.7641V48.8231C289.694 52.7427 291.014 57.2674 291.014 62.1085Z" fill="#00A6B6"/>
<path d="M260.413 48.8645C260.482 51.7801 260.427 54.7095 260.427 57.6252C260.427 59.6056 261.692 60.8846 263.673 60.8846C264.649 60.8846 265.626 60.8571 266.602 60.8846C268.115 60.9259 269.312 62.0261 269.504 63.5252C269.614 64.3779 269.545 65.2306 269.545 66.0833C269.545 69.1777 269.573 72.2584 269.545 75.3528C269.545 76.3843 269.807 77.2645 270.563 77.9659C270.687 78.0759 270.852 78.2959 271.003 78.2272C271.182 78.1584 271.086 77.8971 271.086 77.7321V63.4289C271.086 59.9494 273.685 57.1851 277.165 57.0338C279.324 56.9375 281.483 56.9513 283.628 57.0338C284.316 57.0613 284.99 57.2401 285.609 57.5427C286.324 57.8865 286.929 58.3128 287.438 58.7942V58.4366C286.654 53.4855 284.344 49.0295 280.96 45.605C275.198 45.605 269.449 45.6325 263.687 45.605C261.72 45.605 260.372 47.1454 260.413 48.8645Z" fill="#00A6B6"/>
<path d="M287.438 58.794C287.438 58.794 287.493 58.8353 287.521 58.8628C287.507 58.7253 287.466 58.5877 287.438 58.4365V58.794Z" fill="#00A6B6"/>
<path d="M280.96 45.605C284.343 49.0158 286.654 53.4718 287.438 58.4366V48.8232C286.791 47.7093 286.09 46.6365 285.292 45.6325C285.223 45.6325 285.168 45.6188 285.086 45.6188C283.711 45.6188 282.335 45.6188 280.96 45.6188V45.605Z" fill="#00A6B6"/>
<path d="M287.438 48.8234V58.4367C287.466 58.5742 287.493 58.7118 287.521 58.8631C288.772 60.0596 289.418 61.6412 289.432 63.6078C289.46 65.8358 289.432 68.0501 289.432 70.2781V71.1032C290.436 68.2976 291.014 65.272 291.014 62.1225C291.014 57.2815 289.694 52.743 287.438 48.8371V48.8234Z" fill="#00A6B6"/>
<path d="M287.438 65.7944V63.0851C287.121 62.1086 286.53 61.2835 285.636 60.6096V60.5683C285.512 60.7333 285.567 60.8846 285.567 61.0359C285.595 62.9201 285.636 64.7905 285.636 66.6609C285.636 68.0499 285.375 69.3977 284.77 70.6493C283.779 72.726 282.308 74.06 279.805 73.895C278.498 73.8124 277.48 73.2898 276.655 72.3134C275.459 70.8968 274.909 69.2052 274.799 67.376C274.675 65.3268 274.771 63.2639 274.744 61.2147C274.744 61.0909 274.826 60.8984 274.675 60.8434C274.537 60.7883 274.441 60.9534 274.345 61.0497C273.286 62.0949 272.791 63.3739 272.791 64.8592V83.9622C274.647 83.2333 276.394 82.2843 277.989 81.129H277.37C276.944 81.129 276.683 80.8815 276.683 80.5102C276.683 80.1388 276.93 79.8913 277.357 79.8638H279.598C283.711 76.3292 286.544 71.3919 287.438 65.7944Z" fill="white"/>
<path d="M287.438 65.7944C287.521 65.258 287.617 64.7216 287.658 64.1715C287.617 63.7864 287.548 63.4289 287.438 63.0713V65.7806V65.7944Z" fill="white"/>
<path d="M279.599 79.8638H283.573C283.835 79.8638 284.027 79.7951 284.192 79.5888C285.43 78.1447 286.53 76.6044 287.438 74.9265V65.7945C286.544 71.3782 283.697 76.3155 279.599 79.8638Z" fill="white"/>
<path d="M287.438 74.9265C287.438 74.9265 287.507 74.8027 287.548 74.734C287.658 74.5002 287.727 74.2801 287.727 74.0188V67.8162C287.727 66.6885 287.754 65.547 287.699 64.4192C287.699 64.3367 287.672 64.2679 287.658 64.1854C287.603 64.7355 287.521 65.2719 287.438 65.8083V74.9403V74.9265Z" fill="white"/>
<path d="M282.995 43.047H283.683C283.573 42.9095 283.532 42.8407 283.491 42.7995C281.276 40.599 278.76 38.8248 275.94 37.5045C272.791 36.033 269.49 35.1665 266.011 34.9602C262.366 34.7402 258.818 35.2078 255.366 36.4043C255.077 36.5006 255.022 36.6519 255.022 36.9269V37.092C257.924 36.0192 261.032 35.4003 264.305 35.4003C271.58 35.4003 278.182 38.316 282.995 43.047Z" fill="#00A6B6"/>
<path d="M255.091 40.5302C257.924 39.3199 261.032 38.646 264.305 38.646C269.394 38.646 274.084 40.2826 277.934 43.047H282.995C278.182 38.316 271.58 35.4003 264.305 35.4003C261.032 35.4003 257.924 36.0192 255.022 37.0919V39.7325C255.022 40.0213 255.049 40.2826 255.091 40.5302Z" fill="#00A6B6"/>
<path d="M245.216 80.7715H245.092C244.941 80.7715 244.762 80.7165 244.611 80.8265H244.583C244.625 81.0191 244.776 81.1153 244.886 81.2254C248.145 84.5123 251.969 86.8366 256.397 88.1706C261.128 89.5872 265.887 89.6972 270.687 88.5557C270.962 88.4869 271.058 88.3907 271.058 88.0881V87.9231C268.899 88.4869 266.643 88.817 264.305 88.817C256.823 88.817 250.071 85.7363 245.216 80.7715Z" fill="#00A6B6"/>
<path d="M269.078 80.7717H250.14C254.087 83.7698 258.983 85.5715 264.305 85.5715C266.657 85.5715 268.913 85.2139 271.058 84.5675V82.7246C271.058 81.5143 270.288 80.7717 269.078 80.7717Z" fill="#00A6B6"/>
<path d="M264.305 85.5715C258.983 85.5715 254.087 83.7698 250.14 80.7717H245.216C250.071 85.7365 256.824 88.8172 264.305 88.8172C266.643 88.8172 268.899 88.4871 271.058 87.9232V84.5675C268.912 85.2139 266.657 85.5715 264.305 85.5715Z" fill="#00A6B6"/>
<path d="M237.473 63.4838C237.171 63.4838 237.088 63.5663 237.116 63.8689C237.212 64.9416 237.322 66.0144 237.515 67.0734C238.285 71.2543 239.963 75.0639 242.521 78.4746C242.658 78.6396 242.782 78.7772 243.029 78.7772C243.167 78.7772 243.318 78.7772 243.456 78.7772C240.073 74.5412 237.968 69.2601 237.666 63.4838H237.473Z" fill="#00A6B6"/>
<path d="M249.356 75.669V71.1443C249.356 69.6177 249.369 68.1186 249.356 66.6058C249.328 64.7629 248.063 63.4838 246.234 63.4838H240.911C241.255 69.3013 243.703 74.5688 247.54 78.4884C247.692 78.4196 247.829 78.3508 247.967 78.2546C248.874 77.6357 249.356 76.7692 249.356 75.669Z" fill="#00A6B6"/>
<path d="M247.54 78.4884C243.703 74.5687 241.255 69.3013 240.911 63.4838H237.666C237.955 69.2601 240.073 74.5412 243.456 78.7772C244.363 78.7772 245.271 78.7772 246.179 78.7772C246.646 78.7772 247.114 78.6947 247.54 78.5021V78.4884Z" fill="#00A6B6"/>
<path d="M240.636 48.8506C240.457 48.8919 240.444 49.0156 240.389 49.0982C239.99 49.7996 239.646 50.5147 239.33 51.2436C238.037 54.1868 237.308 57.2674 237.102 60.4857C237.074 60.8295 237.184 60.8982 237.514 60.8982C237.569 60.8982 237.611 60.8982 237.666 60.8845C237.844 56.8824 238.89 53.114 240.636 49.7583V48.8369V48.8506Z" fill="#00A6B6"/>
<path d="M240.636 57.7072V49.758C238.89 53.1137 237.845 56.8821 237.666 60.8842C239.412 60.7742 240.636 59.4951 240.636 57.7072Z" fill="#00A6B6"/>
<path d="M252.189 38.1643C252.189 37.7242 252.189 37.7242 251.777 37.9305C249.549 39.0857 247.541 40.5298 245.698 42.2214C245.491 42.414 245.271 42.6065 245.051 42.799C245.079 42.8541 245.106 42.8953 245.134 42.9228H245.753C247.651 41.0937 249.824 39.5396 252.189 38.3293C252.189 38.2743 252.189 38.2193 252.189 38.1643Z" fill="#00A6B6"/>
<path d="M249.617 42.8816C251.047 42.6753 252.134 41.4788 252.189 40.0072C252.189 39.4433 252.189 38.8932 252.189 38.3293C249.81 39.5396 247.65 41.0937 245.752 42.9228H248.943C249.177 42.9228 249.397 42.9091 249.617 42.8816Z" fill="#00A6B6"/>
</g>
<defs>
<clipPath id="clip0_892_73">
<rect width="343" height="116.626" fill="white"/>
</clipPath>
</defs>
</svg>
