<svg width="20" height="20" viewBox="0 0 20 20" fill="none" xmlns="http://www.w3.org/2000/svg">
<path d="M16.793 11.0591C16.444 10.974 16.2105 11.1693 16.0972 11.4865C15.9952 11.7714 15.9476 12.077 15.8569 12.3688C14.5492 16.5946 9.45861 18.1664 6.15405 15.3905C5.62369 14.9447 5.5149 14.6299 6.08833 14.1589C6.46683 13.8487 6.79321 13.4695 7.11958 13.1019C7.40743 12.7802 7.93552 12.5297 7.69754 11.9782C7.48449 11.4911 6.98133 11.6657 6.58469 11.6519C6.05659 11.6335 5.5285 11.6473 5.00267 11.6473C4.28646 11.6473 3.57025 11.6588 2.85403 11.645C2.369 11.6335 2.0245 11.7875 2.01996 12.3321C2.00863 13.782 1.9769 15.2343 2.02903 16.6819C2.05623 17.4287 2.51859 17.5804 3.11468 17.1714C3.36173 17.0036 3.59065 16.783 3.76517 16.5395C4.32952 15.7651 4.76922 15.8156 5.54437 16.4269C9.6082 19.6393 15.5623 17.6976 17.0831 12.7273C17.1828 12.401 17.2486 12.0609 17.2871 11.7231C17.3279 11.3693 17.1194 11.1372 16.7953 11.0568L16.793 11.0591ZM3.30507 15.0987C3.20534 12.4194 2.94016 12.7595 5.51717 12.8445C4.91201 13.7131 4.21167 14.3772 3.30507 15.0987Z" fill="white"/>
<path d="M17.9874 4.62732C17.9874 4.25047 18.0396 3.82077 17.5795 3.65762C17.1511 3.50596 16.8723 3.80239 16.6026 4.07813C16.4689 4.2137 16.3125 4.3309 16.2037 4.48256C15.6824 5.21328 15.2586 5.20638 14.5129 4.61124C10.4513 1.36435 4.47911 3.2532 2.93789 8.23038C2.76337 8.79795 2.27154 9.63897 3.17134 9.89174C4.03715 10.1353 3.87849 9.13344 4.11421 8.6394C4.1958 8.46936 4.24113 8.27863 4.31366 8.10399C5.87301 4.23668 10.721 2.98435 13.8465 5.6154C14.386 6.06808 14.4653 6.3737 13.8941 6.84247C13.4272 7.22621 13.0329 7.69957 12.6068 8.13157C12.3575 8.38433 12.124 8.65319 12.2985 9.03463C12.4527 9.37012 12.7813 9.35174 13.0873 9.35174C13.7287 9.35174 14.3701 9.35174 15.0138 9.35174C15.6552 9.35174 16.3012 9.31267 16.938 9.36093C17.7336 9.42067 18.0214 9.08289 17.9988 8.29702C17.9625 7.07455 17.9942 5.84979 17.9874 4.62502V4.62732ZM14.556 8.10859C15.2382 7.37327 15.8728 6.68851 16.5301 5.98306C17.201 8.07642 16.8587 8.43259 14.556 8.10859Z" fill="white"/>
</svg>
