<svg width="20" height="20" viewBox="0 0 20 20" fill="none" xmlns="http://www.w3.org/2000/svg">
<path d="M15.0756 4.1801C14.2779 4.1801 13.498 4.17876 12.7181 4.18099C12.5157 4.18144 12.3458 4.11902 12.2227 3.95404C11.9877 3.6388 12.1523 3.18489 12.5353 3.09616C12.6214 3.07609 12.7119 3.06985 12.8006 3.0694C13.9764 3.06762 15.1523 3.06807 16.3276 3.06851C16.3664 3.06851 16.4057 3.06851 16.4445 3.07208C16.7945 3.10508 16.9987 3.32534 16.9992 3.67848C17.0005 4.89084 17 6.1032 16.9992 7.31556C16.9992 7.70259 16.7811 7.95184 16.4476 7.95139C16.1136 7.95094 15.8893 7.70437 15.8866 7.31779C15.8822 6.61151 15.8858 5.90523 15.884 5.19895C15.884 5.14054 15.9018 5.07767 15.8621 5.02059C15.7935 5.03174 15.7636 5.0906 15.7221 5.13162C14.3501 6.49915 12.9785 7.86756 11.6083 9.23687C11.4866 9.3586 11.3572 9.45268 11.1744 9.45536C10.9452 9.45892 10.7758 9.36306 10.6692 9.16375C10.5578 8.95597 10.5858 8.75487 10.7241 8.56939C10.7669 8.51187 10.8213 8.46237 10.8726 8.41154C12.2316 7.05472 13.5912 5.69834 14.9498 4.34062C14.9917 4.29871 15.0461 4.26571 15.0742 4.1801H15.0756Z" fill="#F5F7FA"/>
<path d="M4.93056 15.8217C4.99076 15.856 5.05274 15.8391 5.11204 15.8395C5.85312 15.8409 6.59464 15.8386 7.33572 15.8418C7.60861 15.8431 7.83245 16.033 7.86901 16.2805C7.91226 16.5743 7.76244 16.8249 7.49491 16.9096C7.42401 16.9319 7.35222 16.9315 7.27998 16.9315C6.05377 16.9315 4.82756 16.9324 3.6018 16.9315C3.21164 16.9315 3.00073 16.7224 3.00073 16.3358C2.99984 15.0953 2.99939 13.8549 3.00162 12.6149C3.00207 12.3313 3.18979 12.1093 3.44752 12.0709C3.7369 12.0281 3.99106 12.1833 4.074 12.4508C4.09763 12.5271 4.09406 12.6046 4.09406 12.6822C4.09451 13.3943 4.09406 14.1059 4.09406 14.818C4.09406 14.8782 4.09406 14.9379 4.09406 15.0133C4.18547 14.9879 4.22516 14.9246 4.27331 14.8764C5.61769 13.5361 6.96162 12.1949 8.30465 10.8528C8.46963 10.6878 8.64933 10.5687 8.89769 10.628C9.28696 10.7212 9.45551 11.1555 9.22632 11.4819C9.17548 11.5541 9.11083 11.6174 9.04796 11.6799C7.72053 13.0059 6.39221 14.3311 5.06522 15.6576C5.01618 15.7062 4.94974 15.7441 4.93146 15.8217H4.93056Z" fill="#F5F7FA"/>
<path d="M4.17968 4.92473C4.17968 5.72241 4.17834 6.50227 4.18057 7.28212C4.18101 7.48455 4.11859 7.65443 3.95361 7.77749C3.63836 8.01248 3.18444 7.84794 3.09571 7.46493C3.07564 7.37887 3.0694 7.28836 3.06895 7.19963C3.06717 6.02383 3.06761 4.84804 3.06806 3.67269C3.06806 3.63389 3.06806 3.59466 3.07163 3.55586C3.10507 3.2054 3.32534 3.00118 3.67849 3.00074C4.89088 2.99985 6.10327 2.99985 7.31566 3.00029C7.70269 3.00029 7.95195 3.21833 7.9515 3.55185C7.95106 3.88582 7.70448 4.1101 7.31788 4.11277C6.61159 4.11723 5.90529 4.11367 5.19899 4.11545C5.14058 4.11545 5.07771 4.09761 5.02063 4.1373C5.03178 4.20596 5.09064 4.23584 5.13166 4.2773C6.49922 5.64929 7.86767 7.02083 9.23702 8.39103C9.35875 8.51276 9.45283 8.64206 9.4555 8.82488C9.45907 9.05406 9.36321 9.2235 9.16389 9.33006C8.9561 9.44153 8.755 9.41344 8.56951 9.27522C8.51199 9.23241 8.4625 9.17802 8.41167 9.12674C7.05481 7.76769 5.69839 6.40818 4.34064 5.04958C4.29873 5.00766 4.26573 4.95326 4.18012 4.92517L4.17968 4.92473Z" fill="#F5F7FA"/>
<path d="M15.8215 15.0695C15.8559 15.0093 15.8389 14.9473 15.8394 14.888C15.8407 14.1469 15.8385 13.4054 15.8416 12.6644C15.843 12.3915 16.0329 12.1677 16.2804 12.1311C16.5742 12.0879 16.8248 12.2377 16.9095 12.5052C16.9318 12.5761 16.9314 12.6479 16.9314 12.7201C16.9314 13.9463 16.9323 15.1725 16.9314 16.3982C16.9314 16.7884 16.7223 16.9993 16.3357 16.9993C15.0952 17.0002 13.8547 17.0006 12.6147 16.9984C12.3311 16.9979 12.109 16.8102 12.0707 16.5525C12.0279 16.2631 12.183 16.009 12.4506 15.926C12.5268 15.9024 12.6044 15.906 12.682 15.906C13.3941 15.9055 14.1057 15.906 14.8178 15.906C14.878 15.906 14.9378 15.906 15.0131 15.906C14.9877 15.8146 14.9244 15.7749 14.8762 15.7267C13.5359 14.3824 12.1946 13.0385 10.8525 11.6955C10.6875 11.5305 10.5685 11.3508 10.6278 11.1025C10.721 10.7132 11.1553 10.5447 11.4817 10.7738C11.5539 10.8247 11.6172 10.8893 11.6796 10.9522C13.0057 12.2796 14.3309 13.6079 15.6575 14.9348C15.7061 14.9839 15.744 15.0503 15.8215 15.0686V15.0695Z" fill="#F5F7FA"/>
</svg>
