<svg xmlns="http://www.w3.org/2000/svg" xmlns:xlink="http://www.w3.org/1999/xlink" version="1.1" width="612pt" height="792pt" viewBox="0 0 612 792">
<defs>
<clipPath id="clip_0">
<path transform="matrix(1,0,0,-1,0,792)" d="M.00000912 0H612V792H.00000912Z" fill-rule="evenodd"/>
</clipPath>
<clipPath id="clip_1">
<path transform="matrix(1,0,0,-1,0,792)" d="M.00000912 0H612V792H.00000912Z" fill-rule="evenodd"/>
</clipPath>
</defs>
<g>
<g clip-path="url(#clip_0)">
<text xml:space="preserve" transform="matrix(1 0 -0 1 0 792)" font-size="11.04" font-family="Calibri"><tspan y="-709.66" x="72.024 77.40048 83.19648 85.73568 90.05232 92.54736 95.08656 99.403209 101.89825 107.694248 112.01089 117.508808 123.26064 125.755687 129.02352 134.8968 138.74977 141.13442 144.83281 150.61777 153.11281 158.31266 163.81058 169.60659 175.1045 178.95748 184.10211 187.8005 193.22115 195.71619 201.51219 207.26404 210.63124 213.12628 216.49349 222.3778 226.23078 228.61542 232.31381 237.84487 242.1615 245.8599 248.3991 254.1951 259.32868 261.8237 267.6197 273.37153 277.2245 282.97633 288.7392 293.05586 298.55378 300.98255 306.85585 312.6187 315.0144">This is used for to generate pdf for testing purpose only</tspan></text>
</g>
<g clip-path="url(#clip_1)">
<text xml:space="preserve" transform="matrix(1 0 -0 1 0 792)" font-size="11.04" font-family="Calibri"><tspan y="-709.66" x="319.99"> </tspan></text>
</g>
</g>
</svg>
