<svg width="1919" height="835" viewBox="0 0 1919 835" fill="none" xmlns="http://www.w3.org/2000/svg">
<g clip-path="url(#clip0_674_4874)">
<line x1="1740.5" y1="-74" x2="1740.5" y2="918" stroke="#093F4E"/>
<line x1="1850.5" y1="-74" x2="1850.5" y2="918" stroke="#093F4E"/>
<line x1="102.5" y1="-237" x2="102.5" y2="843" stroke="#093F4E"/>
<line x1="-31" y1="782.5" x2="809" y2="782.5" stroke="#093F4E"/>
<line x1="809.5" y1="783" x2="809.5" y2="923" stroke="#093F4E"/>
<path d="M101.988 257L79 257C79 256.858 79 256.721 79 256.58L102 256.58C101.997 256.721 101.991 256.858 101.988 257Z" fill="#E7E7E7" stroke="#093F4E" stroke-width="0.5"/>
<path d="M84.3959 15.3948L102 15.3948C102 15.5417 102 15.6886 102 15.8355L84.4021 15.8355C84.4021 15.6886 84.399 15.5417 84.3959 15.3948Z" fill="#E7E7E7" stroke="#093F4E" stroke-width="0.5"/>
<path d="M101.978 176.636L84.4269 176.636C84.4269 176.499 84.4269 176.362 84.4269 176.231L102 176.231C101.994 176.367 101.988 176.504 101.978 176.636Z" fill="#E7E7E7" stroke="#093F4E" stroke-width="0.5"/>
<path d="M90.2701 111.86L102 111.86C102 112.007 102 112.149 102 112.296L90.2857 112.296C90.2794 112.149 90.2732 112.007 90.2701 111.86Z" fill="#E7E7E7" stroke="#093F4E" stroke-width="0.5"/>
<path d="M90.2981 208.325L102 208.325C102 208.472 102 208.613 102 208.76L90.2888 208.76C90.2888 208.613 90.295 208.472 90.295 208.325L90.2981 208.325Z" fill="#E7E7E7" stroke="#093F4E" stroke-width="0.5"/>
<path d="M90.3136 224.465L101.994 224.465C101.994 224.592 101.997 224.719 102 224.85L90.3136 224.85C90.3136 224.724 90.3136 224.597 90.3136 224.465Z" fill="#E7E7E7" stroke="#093F4E" stroke-width="0.5"/>
<path d="M90.382 128.001L101.994 128.001L102 128.365L90.3633 128.365C90.3695 128.244 90.3757 128.122 90.382 128.001Z" fill="#E7E7E7" stroke="#093F4E" stroke-width="0.5"/>
<path d="M102 96.1549L79.0404 96.1549C79.0404 96.0485 79.0404 95.9421 79.0404 95.8357L101.997 95.8357C101.997 95.9421 101.997 96.0485 101.997 96.1549L102 96.1549Z" fill="#E7E7E7" stroke="#093F4E" stroke-width="0.5"/>
<path d="M90.7547 31.5408L101.997 31.5408C101.997 31.6826 101.997 31.8245 102 31.9714L90.733 31.9714C90.7423 31.8295 90.7485 31.6877 90.7578 31.5408L90.7547 31.5408Z" fill="#E7E7E7" stroke="#093F4E" stroke-width="0.5"/>
<path d="M90.7516 160.085L101.994 160.085C101.994 160.232 101.997 160.379 102 160.525L90.7516 160.525C90.7516 160.379 90.7516 160.232 90.7516 160.085Z" fill="#E7E7E7" stroke="#093F4E" stroke-width="0.5"/>
<path d="M102 64.0911L90.764 64.0911C90.764 63.9746 90.7609 63.8631 90.7578 63.7466L101.997 63.7466C101.997 63.8631 101.997 63.9746 102 64.0911Z" fill="#E7E7E7" stroke="#093F4E" stroke-width="0.5"/>
<path d="M102 80.1305L90.7578 80.1305C90.7578 80.0191 90.7547 79.9076 90.7516 79.7961L101.975 79.7961L101.997 80.1305L102 80.1305Z" fill="#E7E7E7" stroke="#093F4E" stroke-width="0.5"/>
<path d="M102 240.875L90.4099 240.875L90.4099 240.555L101.997 240.555L101.997 240.875L102 240.875Z" fill="#E7E7E7" stroke="#093F4E" stroke-width="0.5"/>
<path d="M102 144.38L90.3944 144.38C90.3944 144.279 90.3944 144.172 90.3944 144.071L101.997 144.071C101.997 144.172 101.997 144.279 101.997 144.38L102 144.38Z" fill="#E7E7E7" stroke="#093F4E" stroke-width="0.5"/>
<path d="M102 192.619L90.413 192.619L90.413 192.341L101.997 192.341L101.997 192.619L102 192.619Z" fill="#E7E7E7" stroke="#093F4E" stroke-width="0.5"/>
<path d="M101.935 48.0413L90.851 48.0413C90.851 47.9197 90.851 47.7981 90.851 47.6765L102 47.6765L101.935 48.0413Z" fill="#E7E7E7" stroke="#093F4E" stroke-width="0.5"/>
<path d="M101.988 563L79 563C79 562.858 79 562.721 79 562.58L102 562.58C101.997 562.721 101.991 562.858 101.988 563Z" fill="#E7E7E7" stroke="#093F4E" stroke-width="0.5"/>
<path d="M79.7859 241L102 241L102 241.36L79.789 241.36L79.789 241L79.7859 241Z" fill="#E7E7E7" stroke="#093F4E" stroke-width="0.5"/>
<path d="M84.3959 321.395L102 321.395C102 321.542 102 321.689 102 321.836L84.4021 321.836C84.4021 321.689 84.399 321.542 84.3959 321.395Z" fill="#E7E7E7" stroke="#093F4E" stroke-width="0.5"/>
<path d="M101.978 482.636L84.4269 482.636C84.4269 482.499 84.4269 482.362 84.4269 482.231L102 482.231C101.994 482.367 101.988 482.504 101.978 482.636Z" fill="#E7E7E7" stroke="#093F4E" stroke-width="0.5"/>
<path d="M90.2701 417.86L102 417.86C102 418.007 102 418.149 102 418.296L90.2857 418.296C90.2794 418.149 90.2732 418.007 90.2701 417.86Z" fill="#E7E7E7" stroke="#093F4E" stroke-width="0.5"/>
<path d="M90.2981 514.325L102 514.325C102 514.472 102 514.613 102 514.76L90.2888 514.76C90.2888 514.613 90.295 514.472 90.295 514.325L90.2981 514.325Z" fill="#E7E7E7" stroke="#093F4E" stroke-width="0.5"/>
<path d="M90.3136 530.465L101.994 530.465C101.994 530.592 101.997 530.719 102 530.85L90.3136 530.85C90.3136 530.724 90.3136 530.597 90.3136 530.465Z" fill="#E7E7E7" stroke="#093F4E" stroke-width="0.5"/>
<path d="M90.382 434.001L101.994 434.001L102 434.365L90.3633 434.365C90.3695 434.244 90.3757 434.122 90.382 434.001Z" fill="#E7E7E7" stroke="#093F4E" stroke-width="0.5"/>
<path d="M102 402.155L79.0404 402.155C79.0404 402.048 79.0404 401.942 79.0404 401.836L101.997 401.836C101.997 401.942 101.997 402.048 101.997 402.155L102 402.155Z" fill="#E7E7E7" stroke="#093F4E" stroke-width="0.5"/>
<path d="M90.7547 337.541L101.997 337.541C101.997 337.683 101.997 337.824 102 337.971L90.733 337.971C90.7423 337.83 90.7485 337.688 90.7578 337.541L90.7547 337.541Z" fill="#E7E7E7" stroke="#093F4E" stroke-width="0.5"/>
<path d="M90.7516 466.085L101.994 466.085C101.994 466.232 101.997 466.379 102 466.525L90.7516 466.525C90.7516 466.379 90.7516 466.232 90.7516 466.085Z" fill="#E7E7E7" stroke="#093F4E" stroke-width="0.5"/>
<path d="M102 370.091L90.764 370.091C90.764 369.975 90.7609 369.863 90.7578 369.747L101.997 369.747C101.997 369.863 101.997 369.975 102 370.091Z" fill="#E7E7E7" stroke="#093F4E" stroke-width="0.5"/>
<path d="M90.792 289.235L102 289.235C102 289.377 102 289.519 102 289.66L90.7703 289.66C90.7765 289.519 90.7827 289.377 90.7889 289.235L90.792 289.235Z" fill="#E7E7E7" stroke="#093F4E" stroke-width="0.5"/>
<path d="M101.988 273.53L90.8697 273.53C90.8697 273.393 90.8666 273.261 90.8635 273.125L102 273.125C101.997 273.261 101.991 273.393 101.988 273.53Z" fill="#E7E7E7" stroke="#093F4E" stroke-width="0.5"/>
<path d="M102 386.131L90.7578 386.131C90.7578 386.019 90.7547 385.908 90.7516 385.796L101.975 385.796L101.997 386.131L102 386.131Z" fill="#E7E7E7" stroke="#093F4E" stroke-width="0.5"/>
<path d="M102 546.875L90.4099 546.875L90.4099 546.555L101.997 546.555L101.997 546.875L102 546.875Z" fill="#E7E7E7" stroke="#093F4E" stroke-width="0.5"/>
<path d="M102 450.38L90.3944 450.38C90.3944 450.279 90.3944 450.172 90.3944 450.071L101.997 450.071C101.997 450.172 101.997 450.279 101.997 450.38L102 450.38Z" fill="#E7E7E7" stroke="#093F4E" stroke-width="0.5"/>
<path d="M102 498.619L90.413 498.619L90.413 498.341L101.997 498.341L101.997 498.619L102 498.619Z" fill="#E7E7E7" stroke="#093F4E" stroke-width="0.5"/>
<path d="M101.935 354.041L90.851 354.041C90.851 353.92 90.851 353.798 90.851 353.677L102 353.677L101.935 354.041Z" fill="#E7E7E7" stroke="#093F4E" stroke-width="0.5"/>
<path d="M90.705 257.065L102 257.065C102 257.181 102 257.303 102 257.419L90.705 257.419C90.705 257.303 90.705 257.181 90.705 257.065Z" fill="#E7E7E7" stroke="#093F4E" stroke-width="0.5"/>
<path d="M90.8106 305.365L102 305.365C102 305.472 102 305.583 102 305.689L90.8137 305.689C90.8137 305.583 90.8137 305.472 90.8137 305.365L90.8106 305.365Z" fill="#E7E7E7" stroke="#093F4E" stroke-width="0.5"/>
<path d="M79.7859 562L102 562L102 562.36L79.789 562.36L79.789 562L79.7859 562Z" fill="#E7E7E7" stroke="#093F4E" stroke-width="0.5"/>
<path d="M84.3959 642.395L102 642.395C102 642.542 102 642.689 102 642.836L84.4021 642.836C84.4021 642.689 84.399 642.542 84.3959 642.395Z" fill="#E7E7E7" stroke="#093F4E" stroke-width="0.5"/>
<path d="M101.978 803.636L84.4269 803.636C84.4269 803.499 84.4269 803.362 84.4269 803.23L102 803.23C101.994 803.367 101.988 803.504 101.978 803.636Z" fill="#E7E7E7" stroke="#093F4E" stroke-width="0.5"/>
<path d="M90.2701 738.86L102 738.86C102 739.007 102 739.149 102 739.296L90.2857 739.296C90.2794 739.149 90.2732 739.007 90.2701 738.86Z" fill="#E7E7E7" stroke="#093F4E" stroke-width="0.5"/>
<path d="M90.382 755L101.994 755L102 755.365L90.3633 755.365C90.3695 755.244 90.3757 755.122 90.382 755Z" fill="#E7E7E7" stroke="#093F4E" stroke-width="0.5"/>
<path d="M102 723.155L79.0404 723.155C79.0404 723.049 79.0404 722.942 79.0404 722.836L101.997 722.836C101.997 722.942 101.997 723.049 101.997 723.155L102 723.155Z" fill="#E7E7E7" stroke="#093F4E" stroke-width="0.5"/>
<path d="M90.7547 658.541L101.997 658.541C101.997 658.683 101.997 658.825 102 658.972L90.733 658.972C90.7423 658.83 90.7485 658.688 90.7578 658.541L90.7547 658.541Z" fill="#E7E7E7" stroke="#093F4E" stroke-width="0.5"/>
<path d="M90.7516 787.085L101.994 787.085C101.994 787.232 101.997 787.379 102 787.526L90.7516 787.526C90.7516 787.379 90.7516 787.232 90.7516 787.085Z" fill="#E7E7E7" stroke="#093F4E" stroke-width="0.5"/>
<path d="M102 691.091L90.764 691.091C90.764 690.975 90.7609 690.863 90.7578 690.747L101.997 690.747C101.997 690.863 101.997 690.975 102 691.091Z" fill="#E7E7E7" stroke="#093F4E" stroke-width="0.5"/>
<path d="M90.792 610.235L102 610.235C102 610.377 102 610.519 102 610.66L90.7703 610.66C90.7765 610.519 90.7827 610.377 90.7889 610.235L90.792 610.235Z" fill="#E7E7E7" stroke="#093F4E" stroke-width="0.5"/>
<path d="M101.988 594.53L90.8697 594.53C90.8697 594.393 90.8666 594.261 90.8635 594.125L102 594.125C101.997 594.261 101.991 594.393 101.988 594.53Z" fill="#E7E7E7" stroke="#093F4E" stroke-width="0.5"/>
<path d="M102 707.131L90.7578 707.131C90.7578 707.019 90.7547 706.908 90.7516 706.796L101.975 706.796L101.997 707.131L102 707.131Z" fill="#E7E7E7" stroke="#093F4E" stroke-width="0.5"/>
<path d="M102 771.38L90.3944 771.38C90.3944 771.279 90.3944 771.172 90.3944 771.071L101.997 771.071C101.997 771.172 101.997 771.279 101.997 771.38L102 771.38Z" fill="#E7E7E7" stroke="#093F4E" stroke-width="0.5"/>
<path d="M102 819.619L90.413 819.619L90.413 819.341L101.997 819.341L101.997 819.619L102 819.619Z" fill="#E7E7E7" stroke="#093F4E" stroke-width="0.5"/>
<path d="M101.935 675.042L90.851 675.042C90.851 674.92 90.851 674.798 90.851 674.677L102 674.677L101.935 675.042Z" fill="#E7E7E7" stroke="#093F4E" stroke-width="0.5"/>
<path d="M90.705 578.065L102 578.065C102 578.181 102 578.303 102 578.419L90.705 578.419C90.705 578.303 90.705 578.181 90.705 578.065Z" fill="#E7E7E7" stroke="#093F4E" stroke-width="0.5"/>
<path d="M90.8106 626.365L102 626.365C102 626.472 102 626.583 102 626.689L90.8137 626.689C90.8137 626.583 90.8137 626.472 90.8137 626.365L90.8106 626.365Z" fill="#E7E7E7" stroke="#093F4E" stroke-width="0.5"/>
<line x1="2190" y1="45.6109" x2="1242.5" y2="45.6109" stroke="#093F4E" stroke-width="0.91018"/>
<line x1="1242.05" y1="46.0659" x2="1242.05" y2="-81.3593" stroke="#093F4E" stroke-width="0.91018"/>
<path d="M1535.58 46.0772V67.0001C1535.45 67.0001 1535.33 67.0001 1535.2 67.0001V46.0659C1535.33 46.0687 1535.45 46.0744 1535.58 46.0772Z" fill="#093F4E" stroke="#093F4E" stroke-width="0.45509"/>
<path d="M1242.5 66.2847V46.0659H1242.83V66.2819H1242.5V66.2847Z" fill="#093F4E" stroke="#093F4E" stroke-width="0.45509"/>
<path d="M1315.68 62.0888V46.0659C1315.81 46.0659 1315.94 46.0659 1316.08 46.0659V62.0832C1315.94 62.0832 1315.81 62.086 1315.68 62.0888Z" fill="#093F4E" stroke="#093F4E" stroke-width="0.45509"/>
<path d="M1462.44 46.0857V62.0606C1462.31 62.0606 1462.19 62.0606 1462.07 62.0606V46.0659C1462.19 46.0716 1462.32 46.0772 1462.44 46.0857Z" fill="#093F4E" stroke="#093F4E" stroke-width="0.45509"/>
<path d="M1403.48 56.7422V46.0659C1403.61 46.0659 1403.74 46.0659 1403.87 46.0659V56.7281C1403.74 56.7337 1403.61 56.7394 1403.48 56.7422Z" fill="#093F4E" stroke="#093F4E" stroke-width="0.45509"/>
<path d="M1491.28 56.7168V46.0659C1491.41 46.0659 1491.54 46.0659 1491.67 46.0659V56.7253C1491.54 56.7253 1491.41 56.7196 1491.28 56.7196V56.7168Z" fill="#093F4E" stroke="#093F4E" stroke-width="0.45509"/>
<path d="M1505.97 56.7026V46.0716C1506.08 46.0716 1506.2 46.0687 1506.32 46.0659V56.7026C1506.2 56.7026 1506.09 56.7026 1505.97 56.7026Z" fill="#093F4E" stroke="#093F4E" stroke-width="0.45509"/>
<path d="M1418.17 56.6404V46.0716L1418.5 46.0659V56.6574C1418.39 56.6517 1418.28 56.6461 1418.17 56.6404Z" fill="#093F4E" stroke="#093F4E" stroke-width="0.45509"/>
<path d="M1389.18 46.0659V66.9633C1389.09 66.9633 1388.99 66.9633 1388.89 66.9633V46.0687C1388.99 46.0687 1389.09 46.0687 1389.18 46.0687V46.0659Z" fill="#093F4E" stroke="#093F4E" stroke-width="0.45509"/>
<path d="M1330.37 56.3011V46.0687C1330.5 46.0687 1330.63 46.0687 1330.76 46.0659V56.3209C1330.64 56.3125 1330.51 56.3068 1330.37 56.2983V56.3011Z" fill="#093F4E" stroke="#093F4E" stroke-width="0.45509"/>
<path d="M1447.37 56.304V46.0716C1447.5 46.0716 1447.64 46.0687 1447.77 46.0659V56.304C1447.64 56.304 1447.5 56.304 1447.37 56.304Z" fill="#093F4E" stroke="#093F4E" stroke-width="0.45509"/>
<path d="M1360 46.0659V56.2927C1359.89 56.2927 1359.79 56.2955 1359.69 56.2983V46.0687C1359.79 46.0687 1359.89 46.0687 1360 46.0659Z" fill="#093F4E" stroke="#093F4E" stroke-width="0.45509"/>
<path d="M1286.41 56.2672V46.0659C1286.53 46.0659 1286.66 46.0659 1286.79 46.0659V56.287C1286.66 56.2813 1286.53 56.2757 1286.41 56.27V56.2672Z" fill="#093F4E" stroke="#093F4E" stroke-width="0.45509"/>
<path d="M1272.11 46.0772V56.1965C1271.99 56.1965 1271.87 56.1994 1271.74 56.2022V46.0659C1271.87 46.0687 1271.99 46.0744 1272.11 46.0772Z" fill="#093F4E" stroke="#093F4E" stroke-width="0.45509"/>
<path d="M1374.6 46.0659V56.2983C1374.5 56.2983 1374.4 56.3011 1374.29 56.304V46.0885L1374.6 46.0687V46.0659Z" fill="#093F4E" stroke="#093F4E" stroke-width="0.45509"/>
<path d="M1520.9 46.0659V56.615H1520.61V46.0687H1520.9V46.0659Z" fill="#093F4E" stroke="#093F4E" stroke-width="0.45509"/>
<path d="M1433.08 46.0659V56.6291C1432.98 56.6291 1432.89 56.6291 1432.8 56.6291V46.0687C1432.89 46.0687 1432.98 46.0687 1433.08 46.0687V46.0659Z" fill="#093F4E" stroke="#093F4E" stroke-width="0.45509"/>
<path d="M1476.98 46.0659V56.6122H1476.73V46.0687H1476.98V46.0659Z" fill="#093F4E" stroke="#093F4E" stroke-width="0.45509"/>
<path d="M1345.39 46.1253V56.2135C1345.28 56.2135 1345.17 56.2135 1345.06 56.2135V46.0659L1345.39 46.1253Z" fill="#093F4E" stroke="#093F4E" stroke-width="0.45509"/>
<path d="M1257.13 56.3464V46.0659C1257.23 46.0659 1257.34 46.0659 1257.45 46.0659V56.3464C1257.34 56.3464 1257.23 56.3464 1257.13 56.3464Z" fill="#093F4E" stroke="#093F4E" stroke-width="0.45509"/>
<path d="M1301.09 56.2502V46.0659C1301.18 46.0659 1301.29 46.0659 1301.38 46.0659V56.2474C1301.29 56.2474 1301.18 56.2474 1301.09 56.2474V56.2502Z" fill="#093F4E" stroke="#093F4E" stroke-width="0.45509"/>
<path d="M1230.94 11.7747L1241.59 11.7747C1241.59 11.9084 1241.59 12.0375 1241.59 12.1712L1230.93 12.1712C1230.93 12.0375 1230.94 11.9084 1230.94 11.7747L1230.94 11.7747Z" fill="#093F4E" stroke="#093F4E" stroke-width="0.45509"/>
<path d="M1230.96 26.4656L1241.59 26.4656C1241.59 26.5809 1241.59 26.6961 1241.59 26.816L1230.96 26.816C1230.96 26.7007 1230.96 26.5855 1230.96 26.4656Z" fill="#093F4E" stroke="#093F4E" stroke-width="0.45509"/>
<path d="M1241.59 41.4009L1231.04 41.4009L1231.04 41.1104L1241.59 41.1104L1241.59 41.4009L1241.59 41.4009Z" fill="#093F4E" stroke="#093F4E" stroke-width="0.45509"/>
<path d="M1828.66 46.0772V67.0001C1828.53 67.0001 1828.41 67.0001 1828.28 67.0001V46.0659C1828.41 46.0687 1828.53 46.0744 1828.66 46.0772Z" fill="#093F4E" stroke="#093F4E" stroke-width="0.45509"/>
<path d="M1535.58 66.2847V46.0659H1535.91V66.2819H1535.58V66.2847Z" fill="#093F4E" stroke="#093F4E" stroke-width="0.45509"/>
<path d="M1608.75 62.0888V46.0659C1608.89 46.0659 1609.02 46.0659 1609.16 46.0659V62.0832C1609.02 62.0832 1608.89 62.086 1608.75 62.0888Z" fill="#093F4E" stroke="#093F4E" stroke-width="0.45509"/>
<path d="M1755.51 46.0857V62.0606C1755.39 62.0606 1755.26 62.0606 1755.14 62.0606V46.0659C1755.27 46.0716 1755.39 46.0772 1755.51 46.0857Z" fill="#093F4E" stroke="#093F4E" stroke-width="0.45509"/>
<path d="M1696.56 56.7422V46.0659C1696.69 46.0659 1696.82 46.0659 1696.95 46.0659V56.7281C1696.82 56.7337 1696.69 56.7394 1696.56 56.7422Z" fill="#093F4E" stroke="#093F4E" stroke-width="0.45509"/>
<path d="M1784.36 56.7168V46.0659C1784.49 46.0659 1784.62 46.0659 1784.75 46.0659V56.7253C1784.62 56.7253 1784.49 56.7196 1784.36 56.7196V56.7168Z" fill="#093F4E" stroke="#093F4E" stroke-width="0.45509"/>
<path d="M1799.05 56.7026V46.0716C1799.16 46.0716 1799.28 46.0687 1799.4 46.0659V56.7026C1799.28 56.7026 1799.17 56.7026 1799.05 56.7026Z" fill="#093F4E" stroke="#093F4E" stroke-width="0.45509"/>
<path d="M1711.25 56.6404V46.0716L1711.58 46.0659V56.6574C1711.47 56.6517 1711.36 56.6461 1711.25 56.6404Z" fill="#093F4E" stroke="#093F4E" stroke-width="0.45509"/>
<path d="M1682.26 46.0659V66.9633C1682.16 66.9633 1682.07 66.9633 1681.97 66.9633V46.0687C1682.07 46.0687 1682.16 46.0687 1682.26 46.0687V46.0659Z" fill="#093F4E" stroke="#093F4E" stroke-width="0.45509"/>
<path d="M1623.45 56.3011V46.0687C1623.58 46.0687 1623.71 46.0687 1623.84 46.0659V56.3209C1623.71 56.3125 1623.58 56.3068 1623.45 56.2983V56.3011Z" fill="#093F4E" stroke="#093F4E" stroke-width="0.45509"/>
<path d="M1740.45 56.304V46.0716C1740.58 46.0716 1740.72 46.0687 1740.85 46.0659V56.304C1740.72 56.304 1740.58 56.304 1740.45 56.304Z" fill="#093F4E" stroke="#093F4E" stroke-width="0.45509"/>
<path d="M1653.08 46.0659V56.2927C1652.97 56.2927 1652.87 56.2955 1652.76 56.2983V46.0687C1652.87 46.0687 1652.97 46.0687 1653.08 46.0659Z" fill="#093F4E" stroke="#093F4E" stroke-width="0.45509"/>
<path d="M1579.48 56.2672V46.0659C1579.61 46.0659 1579.74 46.0659 1579.87 46.0659V56.287C1579.74 56.2813 1579.61 56.2757 1579.48 56.27V56.2672Z" fill="#093F4E" stroke="#093F4E" stroke-width="0.45509"/>
<path d="M1565.19 46.0772V56.1965C1565.06 56.1965 1564.94 56.1994 1564.82 56.2022V46.0659C1564.94 46.0687 1565.06 46.0744 1565.19 46.0772Z" fill="#093F4E" stroke="#093F4E" stroke-width="0.45509"/>
<path d="M1667.68 46.0659V56.2983C1667.57 56.2983 1667.47 56.3011 1667.37 56.304V46.0885L1667.68 46.0687V46.0659Z" fill="#093F4E" stroke="#093F4E" stroke-width="0.45509"/>
<path d="M1813.98 46.0659V56.615H1813.69V46.0687H1813.98V46.0659Z" fill="#093F4E" stroke="#093F4E" stroke-width="0.45509"/>
<path d="M1726.15 46.0659V56.6291C1726.06 56.6291 1725.97 56.6291 1725.87 56.6291V46.0687C1725.97 46.0687 1726.06 46.0687 1726.15 46.0687V46.0659Z" fill="#093F4E" stroke="#093F4E" stroke-width="0.45509"/>
<path d="M1770.06 46.0659V56.6122H1769.81V46.0687H1770.06V46.0659Z" fill="#093F4E" stroke="#093F4E" stroke-width="0.45509"/>
<path d="M1638.47 46.1253V56.2135C1638.36 56.2135 1638.25 56.2135 1638.14 56.2135V46.0659L1638.47 46.1253Z" fill="#093F4E" stroke="#093F4E" stroke-width="0.45509"/>
<path d="M1550.2 56.3464V46.0659C1550.31 46.0659 1550.42 46.0659 1550.53 46.0659V56.3464C1550.42 56.3464 1550.31 56.3464 1550.2 56.3464Z" fill="#093F4E" stroke="#093F4E" stroke-width="0.45509"/>
<path d="M1594.17 56.2502V46.0659C1594.26 46.0659 1594.36 46.0659 1594.46 46.0659V56.2474C1594.36 56.2474 1594.26 56.2474 1594.17 56.2474V56.2502Z" fill="#093F4E" stroke="#093F4E" stroke-width="0.45509"/>
<path d="M1828.66 66.2847V46.0659H1828.99V66.2819H1828.66V66.2847Z" fill="#093F4E" stroke="#093F4E" stroke-width="0.45509"/>
<path d="M1901.83 62.0888V46.0659C1901.97 46.0659 1902.1 46.0659 1902.23 46.0659V62.0832C1902.1 62.0832 1901.97 62.086 1901.83 62.0888Z" fill="#093F4E" stroke="#093F4E" stroke-width="0.45509"/>
<path d="M1916.53 56.3011V46.0687C1916.66 46.0687 1916.79 46.0687 1916.92 46.0659V56.3209C1916.79 56.3125 1916.66 56.3068 1916.53 56.2983V56.3011Z" fill="#093F4E" stroke="#093F4E" stroke-width="0.45509"/>
<path d="M1872.56 56.2672V46.0659C1872.69 46.0659 1872.82 46.0659 1872.95 46.0659V56.287C1872.82 56.2813 1872.69 56.2757 1872.56 56.27V56.2672Z" fill="#093F4E" stroke="#093F4E" stroke-width="0.45509"/>
<path d="M1858.27 46.0772V56.1965C1858.14 56.1965 1858.02 56.1994 1857.9 56.2022V46.0659C1858.02 46.0687 1858.14 46.0744 1858.27 46.0772Z" fill="#093F4E" stroke="#093F4E" stroke-width="0.45509"/>
<path d="M1843.28 56.3464V46.0659C1843.39 46.0659 1843.5 46.0659 1843.6 46.0659V56.3464C1843.5 56.3464 1843.39 56.3464 1843.28 56.3464Z" fill="#093F4E" stroke="#093F4E" stroke-width="0.45509"/>
<path d="M1887.24 56.2502V46.0659C1887.34 46.0659 1887.44 46.0659 1887.54 46.0659V56.2474C1887.44 56.2474 1887.34 56.2474 1887.24 56.2474V56.2502Z" fill="#093F4E" stroke="#093F4E" stroke-width="0.45509"/>
</g>
<defs>
<clipPath id="clip0_674_4874">
<rect width="1920" height="835" fill="white"/>
</clipPath>
</defs>
</svg>
