<svg width="71" height="59" viewBox="0 0 71 59" fill="none" xmlns="http://www.w3.org/2000/svg">
<path d="M1 16.0628C1.37315 14.8844 2.19507 14.0361 3.04222 13.1879C6.43582 9.7949 9.80926 6.37143 13.1928 2.96827C14.6602 1.49526 16.425 1.2159 18.0185 2.18097C18.3866 2.40446 18.6942 2.70415 18.9967 3.00891C21.3314 5.36064 23.6409 7.73777 26.0108 10.0539C27.3622 11.3695 27.8816 13.2742 26.8428 14.9606C26.6008 15.3568 26.9235 15.4888 27.1101 15.6768C30.0095 18.6075 32.9191 21.5332 35.8236 24.464C37.064 25.7135 38.3146 26.9478 39.5298 28.2126C39.8223 28.5173 39.9735 28.497 40.2559 28.2126C43.1352 25.292 46.0296 22.3815 48.929 19.4761C49.1912 19.212 49.3072 18.9479 49.2518 18.5771C49.1912 18.2012 49.0702 17.7898 49.1509 17.4393C49.3728 16.5098 48.9996 15.885 48.3138 15.3517C48.1374 15.2146 47.9962 15.0317 47.8348 14.8742C47.5474 14.5898 47.2902 14.158 46.9524 14.0717C46.554 13.9701 46.3573 14.5238 46.0548 14.7676C45.5959 15.1333 45.132 15.1536 44.7236 14.7523C43.2965 13.3403 41.8796 11.9181 40.4879 10.4755C40.024 9.99299 40.0895 9.55617 40.6442 8.99744C42.2074 7.40761 43.7857 5.82794 45.3589 4.24318C46.2666 3.3289 47.1642 2.41462 48.0768 1.5105C48.7626 0.824791 49.1408 0.82987 49.8367 1.52574C51.0973 2.78541 52.3479 4.05017 53.6034 5.31492C54.3094 6.03111 54.3497 6.47809 53.6135 7.13333C53.079 7.61079 53.0588 7.95618 53.6337 8.35745C53.6539 8.36761 53.6639 8.38792 53.6791 8.40316C54.5716 9.41903 55.4893 10.0285 57.0374 10.1047C61.4143 10.3181 64.2633 13.9041 63.8347 18.252C63.7943 18.6685 64.0213 18.8818 64.2431 19.1256C65.6399 20.6748 66.7997 22.3815 67.7527 24.2405C68.6604 26.0132 69.2957 27.8926 69.9361 29.7669C70.2135 30.5846 69.5478 31.2246 68.7108 30.9402C66.9056 30.3307 65.1054 29.6957 63.401 28.8323C61.4849 27.857 59.7351 26.6431 58.1518 25.1904C57.8694 24.9313 57.5971 24.7993 57.1937 24.845C56.4071 24.9364 55.6204 24.8805 54.854 24.6723C54.5464 24.591 54.3598 24.657 54.148 24.8755C51.2788 27.7758 48.4147 30.6811 45.5203 33.556C45.1219 33.9522 45.3993 34.0995 45.6312 34.3332C51.7478 40.4893 57.8644 46.6506 63.9759 52.8067C64.9239 53.7566 64.9188 54.0766 63.9557 55.0213C63.1035 55.8543 62.2412 56.6823 61.3941 57.5305C61.0109 57.9115 60.6125 58.0384 60.0578 57.9216C58.4997 57.5915 56.9365 57.3172 55.3683 57.0429C54.7935 56.9413 54.3901 56.6772 54.1077 56.154C53.437 54.9299 52.7109 53.7312 52.0453 52.502C51.8486 52.1413 51.5965 51.9839 51.2234 51.9178C49.9224 51.6842 48.6265 51.4201 47.3205 51.2118C46.6246 51.1001 46.1456 50.7953 45.8077 50.1452C45.1925 48.9667 44.4916 47.8341 43.8512 46.6658C43.6445 46.2899 43.3772 46.1223 42.9688 46.0512C41.5771 45.8074 40.1954 45.5179 38.8037 45.2791C38.2843 45.1928 37.9565 44.9236 37.7145 44.4766C37.4725 44.0195 37.1699 43.5877 36.9581 43.1204C36.706 42.5719 36.5043 42.648 36.1261 43.029C31.6282 47.5852 27.1151 52.1261 22.6021 56.667C21.1952 58.0842 19.5363 58.3788 17.9529 57.5153C15.9309 56.4131 15.3711 53.7515 16.7931 51.928C16.9999 51.6639 17.2318 51.4099 17.4688 51.1712C21.3717 47.2347 25.2746 43.2931 29.1977 39.3719C29.5658 39.0011 29.6263 38.7471 29.349 38.29C28.6733 37.1979 28.0531 36.0703 27.4278 34.9478C27.2412 34.6125 27.0345 34.4144 26.621 34.3484C25.204 34.1198 23.8022 33.8202 22.3903 33.5662C21.9113 33.4798 21.5835 33.2462 21.3415 32.8145C20.6254 31.5345 19.8842 30.2697 19.1631 28.9948C19.0118 28.7256 18.8404 28.5681 18.5076 28.5123C17.2066 28.2938 15.9107 28.0246 14.6097 27.7707C14.3828 27.725 14.1811 27.7402 13.9592 27.8367C12.3809 28.5173 10.9085 28.3142 9.67815 27.0951C7.13169 24.5758 4.62556 22.0107 2.09422 19.471C1.55468 18.9275 1.30759 18.2266 1.01009 17.551V16.0577L1 16.0628ZM30.9626 37.4773C31.0483 37.4316 31.0937 37.4163 31.1239 37.3859C33.5242 34.9732 35.9194 32.5554 38.3297 30.1529C38.6675 29.8126 38.4356 29.6754 38.2288 29.4722C34.0839 25.297 29.9339 21.1269 25.8041 16.9415C25.4713 16.6063 25.3099 16.6672 25.0225 16.9618C23.8476 18.1758 22.6475 19.3644 21.4575 20.5682C19.7581 22.2799 18.0588 23.9916 16.3645 25.7034C16.2586 25.81 16.0872 25.9624 16.1023 26.0691C16.1326 26.3027 16.3847 26.2215 16.546 26.257C17.4234 26.4348 18.3008 26.6481 19.1833 26.765C19.8338 26.8513 20.2271 27.1713 20.5347 27.73C21.1801 28.9186 21.8861 30.0716 22.5315 31.2602C22.7332 31.636 22.9803 31.8087 23.3988 31.8799C24.7452 32.1084 26.0814 32.3929 27.4278 32.6214C28.0026 32.7179 28.406 32.977 28.6934 33.5002C29.4196 34.8259 30.186 36.1262 30.9575 37.4722L30.9626 37.4773ZM19.8691 56.1337C20.4842 56.1642 20.9633 55.7223 21.4322 55.2499C27.448 49.1852 33.4637 43.1255 39.4794 37.0659C43.6848 32.8297 47.8903 28.5834 52.1058 24.3574C52.484 23.9764 52.6907 23.7631 52.0705 23.3974C51.3696 22.9859 50.8099 22.3612 50.4166 21.645C50.0989 21.0659 49.9022 21.071 49.4434 21.5332C39.2172 31.8595 28.9758 42.1706 18.7345 52.4867C18.558 52.6645 18.3815 52.8372 18.2302 53.0353C17.7411 53.6651 17.6756 54.3661 18.0185 55.0721C18.3664 55.7781 18.9564 56.1439 19.864 56.1388L19.8691 56.1337ZM2.84556 16.7841C2.82035 17.3479 3.02709 17.8101 3.41032 18.1961C5.91644 20.7256 8.41753 23.2602 10.9388 25.7745C11.7859 26.6177 12.8499 26.6227 13.692 25.7796C17.4638 22.0005 21.2305 18.2114 24.9822 14.4069C25.8142 13.5638 25.8041 12.4717 24.9721 11.6235C22.4912 9.09903 20.0002 6.58984 17.494 4.0908C16.6217 3.22224 15.5527 3.21716 14.6854 4.08573C10.9287 7.84951 7.18716 11.6336 3.44057 15.4076C3.05734 15.7936 2.82539 16.2406 2.84556 16.7841ZM60.0377 56.0321C60.2898 56.1388 60.4209 55.9153 60.5772 55.7629C61.0966 55.26 61.5908 54.7318 62.1253 54.2543C62.4429 53.9699 62.4127 53.8124 62.1253 53.5229C56.1751 47.5496 50.235 41.5662 44.305 35.5776C43.9975 35.2678 43.8361 35.2576 43.5285 35.5776C42.1317 37.0201 40.7047 38.4271 39.2978 39.8595C38.8591 40.3065 38.1078 40.6874 38.0826 41.2411C38.0574 41.7795 38.6423 42.3281 38.9045 42.8969C39.1314 43.3896 39.4895 43.5623 39.9937 43.6436C41.2997 43.8569 42.5906 44.1414 43.8916 44.3649C44.4715 44.4665 44.8547 44.7458 45.1371 45.269C45.7976 46.4779 46.5086 47.6512 47.1742 48.8601C47.381 49.2309 47.6281 49.4137 48.0516 49.4848C49.4434 49.7185 50.825 50.0233 52.2167 50.2569C52.7361 50.3432 53.0538 50.6125 53.3059 51.0544C54.0018 52.2937 54.7128 53.5229 55.4238 54.7521C55.5448 54.9654 55.6255 55.2194 55.9129 55.2702C57.2794 55.5242 58.6459 55.7781 60.0377 56.0372V56.0321ZM67.5712 28.5884C67.1678 27.344 66.724 26.2418 66.1845 25.1853C65.2214 23.2856 64.0313 21.5332 62.5438 19.9993C62.0547 19.4914 61.8883 18.9733 62.0043 18.2317C62.5942 14.4425 59.3469 11.2831 55.5751 11.9384C54.9901 12.04 54.5363 11.9028 54.1228 11.466C53.4622 10.76 52.7512 10.0946 52.0856 9.39363C51.8386 9.13459 51.6873 9.14982 51.4452 9.40379C50.4922 10.3943 49.524 11.3746 48.5408 12.3295C48.2432 12.619 48.3189 12.7815 48.571 13.0254C49.2669 13.7009 49.9375 14.4019 50.6233 15.0825C50.9813 15.438 51.1477 15.8292 51.062 16.3574C50.4115 20.3802 53.432 23.5243 57.4357 22.9504C58.0711 22.859 58.5148 23.0113 58.9435 23.4329C60.4915 24.9313 62.2261 26.1707 64.1372 27.151C65.2062 27.6996 66.3206 28.1516 67.5611 28.5834L67.5712 28.5884ZM51.9091 6.22921C51.8436 6.15302 51.7881 6.0819 51.7226 6.01587C50.8805 5.16762 50.0333 4.32445 49.2064 3.46605C48.9795 3.22732 48.8433 3.32382 48.6618 3.51176C46.6801 5.51302 44.6984 7.51428 42.7066 9.50538C42.4393 9.77458 42.4998 9.92696 42.7368 10.1555C43.5436 10.9428 44.3403 11.7403 45.1169 12.5581C45.3539 12.8069 45.48 12.7612 45.6968 12.5428C47.6734 10.5365 49.6602 8.5403 51.6419 6.53904C51.7377 6.44254 51.8184 6.33587 51.9091 6.22921Z" fill="black"/>
<path d="M12.4616 23.1282C12.3961 23.1282 12.3255 23.1282 12.2599 23.118C10.3034 23.0012 8.09985 20.1517 8.54863 18.3333C8.68982 17.7644 8.99742 17.3072 9.40082 16.9009C11.6548 14.6304 13.8987 12.3498 16.1679 10.0946C17.4688 8.79935 19.0875 8.80443 20.4187 10.0692C20.7616 10.3943 21.0944 10.7346 21.4171 11.0749C22.6979 12.426 22.6979 14.0819 21.3919 15.4076C19.274 17.5612 17.1411 19.6945 15.0131 21.838C14.8064 22.0463 14.5996 22.2545 14.3778 22.4475C13.8281 22.9199 13.1928 23.1637 12.4616 23.1332V23.1282ZM12.5221 21.2945C12.8348 21.2691 13.102 21.1574 13.3138 20.939C15.5981 18.638 17.8924 16.3472 20.1615 14.0361C20.6859 13.4977 20.6607 12.9796 20.1615 12.4158C19.864 12.0806 19.5363 11.7657 19.2135 11.4558C18.5479 10.8209 18.0185 10.8209 17.3528 11.4812C16.4755 12.3549 15.6081 13.2387 14.7358 14.1174C13.4197 15.4431 12.0986 16.7638 10.7875 18.0945C10.0916 18.8006 10.1017 19.2933 10.7925 20.0094C11.0901 20.3193 11.3926 20.619 11.6952 20.9186C11.9271 21.1523 12.2045 21.2742 12.5221 21.2945Z" fill="black"/>
<path d="M1 16.0628C1.37315 14.8844 2.19507 14.0361 3.04222 13.1879C6.43582 9.7949 9.80926 6.37143 13.1928 2.96827C14.6602 1.49526 16.425 1.2159 18.0185 2.18097C18.3866 2.40446 18.6942 2.70415 18.9967 3.00891C21.3314 5.36064 23.6409 7.73777 26.0108 10.0539C27.3622 11.3695 27.8816 13.2742 26.8428 14.9606C26.6008 15.3568 26.9235 15.4888 27.1101 15.6768C30.0095 18.6075 32.9191 21.5332 35.8236 24.464C37.064 25.7135 38.3146 26.9478 39.5298 28.2126C39.8223 28.5173 39.9735 28.497 40.2559 28.2126C43.1352 25.292 46.0296 22.3815 48.929 19.4761C49.1912 19.212 49.3072 18.9479 49.2518 18.5771C49.1912 18.2012 49.0702 17.7898 49.1509 17.4393C49.3728 16.5098 48.9996 15.885 48.3138 15.3517C48.1374 15.2146 47.9962 15.0317 47.8348 14.8742C47.5474 14.5898 47.2902 14.158 46.9524 14.0717C46.554 13.9701 46.3573 14.5238 46.0548 14.7676C45.5959 15.1333 45.132 15.1536 44.7236 14.7523C43.2965 13.3403 41.8796 11.9181 40.4879 10.4755C40.024 9.99299 40.0895 9.55617 40.6442 8.99744C42.2074 7.40761 43.7857 5.82794 45.3589 4.24318C46.2666 3.3289 47.1642 2.41462 48.0768 1.5105C48.7626 0.824791 49.1408 0.82987 49.8367 1.52574C51.0973 2.78541 52.3479 4.05017 53.6034 5.31492C54.3094 6.03111 54.3497 6.47809 53.6135 7.13333C53.079 7.61079 53.0588 7.95618 53.6337 8.35745C53.6539 8.36761 53.6639 8.38792 53.6791 8.40316C54.5716 9.41903 55.4893 10.0285 57.0374 10.1047C61.4143 10.3181 64.2633 13.9041 63.8347 18.252C63.7943 18.6685 64.0213 18.8818 64.2431 19.1256C65.6399 20.6748 66.7997 22.3815 67.7527 24.2405C68.6604 26.0132 69.2957 27.8926 69.9361 29.7669C70.2135 30.5846 69.5478 31.2246 68.7108 30.9402C66.9056 30.3307 65.1054 29.6957 63.401 28.8323C61.4849 27.857 59.7351 26.6431 58.1518 25.1904C57.8694 24.9313 57.5971 24.7993 57.1937 24.845C56.4071 24.9364 55.6204 24.8805 54.854 24.6723C54.5464 24.591 54.3598 24.657 54.148 24.8755C51.2788 27.7758 48.4147 30.6811 45.5203 33.556C45.1219 33.9522 45.3993 34.0995 45.6312 34.3332C51.7478 40.4893 57.8644 46.6506 63.9759 52.8067C64.9239 53.7566 64.9188 54.0766 63.9557 55.0213C63.1035 55.8543 62.2412 56.6823 61.3941 57.5305C61.0109 57.9115 60.6125 58.0384 60.0578 57.9216C58.4997 57.5915 56.9365 57.3172 55.3683 57.0429C54.7935 56.9413 54.3901 56.6772 54.1077 56.154C53.437 54.9299 52.7109 53.7312 52.0453 52.502C51.8486 52.1413 51.5965 51.9839 51.2234 51.9178C49.9224 51.6842 48.6265 51.4201 47.3205 51.2118C46.6246 51.1001 46.1456 50.7953 45.8077 50.1452C45.1925 48.9667 44.4916 47.8341 43.8512 46.6658C43.6445 46.2899 43.3772 46.1223 42.9688 46.0512C41.5771 45.8074 40.1954 45.5179 38.8037 45.2791C38.2843 45.1928 37.9565 44.9236 37.7145 44.4766C37.4725 44.0195 37.1699 43.5877 36.9581 43.1204C36.706 42.5719 36.5043 42.648 36.1261 43.029C31.6282 47.5852 27.1151 52.1261 22.6021 56.667C21.1952 58.0842 19.5363 58.3788 17.9529 57.5153C15.9309 56.4131 15.3711 53.7515 16.7931 51.928C16.9999 51.6639 17.2318 51.4099 17.4688 51.1712C21.3717 47.2347 25.2746 43.2931 29.1977 39.3719C29.5658 39.0011 29.6263 38.7471 29.349 38.29C28.6733 37.1979 28.0531 36.0703 27.4278 34.9478C27.2412 34.6125 27.0345 34.4144 26.621 34.3484C25.204 34.1198 23.8022 33.8202 22.3903 33.5662C21.9113 33.4798 21.5835 33.2462 21.3415 32.8145C20.6254 31.5345 19.8842 30.2697 19.1631 28.9948C19.0118 28.7256 18.8404 28.5681 18.5076 28.5123C17.2066 28.2938 15.9107 28.0246 14.6097 27.7707C14.3828 27.725 14.1811 27.7402 13.9592 27.8367C12.3809 28.5173 10.9085 28.3142 9.67815 27.0951C7.13169 24.5758 4.62556 22.0107 2.09422 19.471C1.55468 18.9275 1.30759 18.2266 1.01009 17.551V16.0577L1 16.0628ZM30.9626 37.4773C31.0483 37.4316 31.0937 37.4163 31.1239 37.3859C33.5242 34.9732 35.9194 32.5554 38.3297 30.1529C38.6675 29.8126 38.4356 29.6754 38.2288 29.4722C34.0839 25.297 29.9339 21.1269 25.8041 16.9415C25.4713 16.6063 25.3099 16.6672 25.0225 16.9618C23.8476 18.1758 22.6475 19.3644 21.4575 20.5682C19.7581 22.2799 18.0588 23.9916 16.3645 25.7034C16.2586 25.81 16.0872 25.9624 16.1023 26.0691C16.1326 26.3027 16.3847 26.2215 16.546 26.257C17.4234 26.4348 18.3008 26.6481 19.1833 26.765C19.8338 26.8513 20.2271 27.1713 20.5347 27.73C21.1801 28.9186 21.8861 30.0716 22.5315 31.2602C22.7332 31.636 22.9803 31.8087 23.3988 31.8799C24.7452 32.1084 26.0814 32.3929 27.4278 32.6214C28.0026 32.7179 28.406 32.977 28.6934 33.5002C29.4196 34.8259 30.186 36.1262 30.9575 37.4722L30.9626 37.4773ZM19.8691 56.1337C20.4842 56.1642 20.9633 55.7223 21.4322 55.2499C27.448 49.1852 33.4637 43.1255 39.4794 37.0659C43.6848 32.8297 47.8903 28.5834 52.1058 24.3574C52.484 23.9764 52.6907 23.7631 52.0705 23.3974C51.3696 22.9859 50.8099 22.3612 50.4166 21.645C50.0989 21.0659 49.9022 21.071 49.4434 21.5332C39.2172 31.8595 28.9758 42.1706 18.7345 52.4867C18.558 52.6645 18.3815 52.8372 18.2302 53.0353C17.7411 53.6651 17.6756 54.3661 18.0185 55.0721C18.3664 55.7781 18.9564 56.1439 19.864 56.1388L19.8691 56.1337ZM2.84556 16.7841C2.82035 17.3479 3.02709 17.8101 3.41032 18.1961C5.91644 20.7256 8.41753 23.2602 10.9388 25.7745C11.7859 26.6177 12.8499 26.6227 13.692 25.7796C17.4638 22.0005 21.2305 18.2114 24.9822 14.4069C25.8142 13.5638 25.8041 12.4717 24.9721 11.6235C22.4912 9.09903 20.0002 6.58984 17.494 4.0908C16.6217 3.22224 15.5527 3.21716 14.6854 4.08573C10.9287 7.84951 7.18716 11.6336 3.44057 15.4076C3.05734 15.7936 2.82539 16.2406 2.84556 16.7841ZM60.0377 56.0321C60.2898 56.1388 60.4209 55.9153 60.5772 55.7629C61.0966 55.26 61.5908 54.7318 62.1253 54.2543C62.4429 53.9699 62.4127 53.8124 62.1253 53.5229C56.1751 47.5496 50.235 41.5662 44.305 35.5776C43.9975 35.2678 43.8361 35.2576 43.5285 35.5776C42.1317 37.0201 40.7047 38.4271 39.2978 39.8595C38.8591 40.3065 38.1078 40.6874 38.0826 41.2411C38.0574 41.7795 38.6423 42.3281 38.9045 42.8969C39.1314 43.3896 39.4895 43.5623 39.9937 43.6436C41.2997 43.8569 42.5906 44.1414 43.8916 44.3649C44.4715 44.4665 44.8547 44.7458 45.1371 45.269C45.7976 46.4779 46.5086 47.6512 47.1742 48.8601C47.381 49.2309 47.6281 49.4137 48.0516 49.4848C49.4434 49.7185 50.825 50.0233 52.2167 50.2569C52.7361 50.3432 53.0538 50.6125 53.3059 51.0544C54.0018 52.2937 54.7128 53.5229 55.4238 54.7521C55.5448 54.9654 55.6255 55.2194 55.9129 55.2702C57.2794 55.5242 58.6459 55.7781 60.0377 56.0372V56.0321ZM67.5712 28.5884C67.1678 27.344 66.724 26.2418 66.1845 25.1853C65.2214 23.2856 64.0313 21.5332 62.5438 19.9993C62.0547 19.4914 61.8883 18.9733 62.0043 18.2317C62.5942 14.4425 59.3469 11.2831 55.5751 11.9384C54.9901 12.04 54.5363 11.9028 54.1228 11.466C53.4622 10.76 52.7512 10.0946 52.0856 9.39363C51.8386 9.13459 51.6873 9.14982 51.4452 9.40379C50.4922 10.3943 49.524 11.3746 48.5408 12.3295C48.2432 12.619 48.3189 12.7815 48.571 13.0254C49.2669 13.7009 49.9375 14.4019 50.6233 15.0825C50.9813 15.438 51.1477 15.8292 51.062 16.3574C50.4115 20.3802 53.432 23.5243 57.4357 22.9504C58.0711 22.859 58.5148 23.0113 58.9435 23.4329C60.4915 24.9313 62.2261 26.1707 64.1372 27.151C65.2062 27.6996 66.3206 28.1516 67.5611 28.5834L67.5712 28.5884ZM51.9091 6.22921C51.8436 6.15302 51.7881 6.0819 51.7226 6.01587C50.8805 5.16762 50.0333 4.32445 49.2064 3.46605C48.9795 3.22732 48.8433 3.32382 48.6618 3.51176C46.6801 5.51302 44.6984 7.51428 42.7066 9.50538C42.4393 9.77458 42.4998 9.92696 42.7368 10.1555C43.5436 10.9428 44.3403 11.7403 45.1169 12.5581C45.3539 12.8069 45.48 12.7612 45.6968 12.5428C47.6734 10.5365 49.6602 8.5403 51.6419 6.53904C51.7377 6.44254 51.8184 6.33587 51.9091 6.22921Z" stroke="black" stroke-width="0.3"/>
<path d="M12.4616 23.1282C12.3961 23.1282 12.3255 23.1282 12.2599 23.118C10.3034 23.0012 8.09985 20.1517 8.54863 18.3333C8.68982 17.7644 8.99742 17.3072 9.40082 16.9009C11.6548 14.6304 13.8987 12.3498 16.1679 10.0946C17.4688 8.79935 19.0875 8.80443 20.4187 10.0692C20.7616 10.3943 21.0944 10.7346 21.4171 11.0749C22.6979 12.426 22.6979 14.0819 21.3919 15.4076C19.274 17.5612 17.1411 19.6945 15.0131 21.838C14.8064 22.0463 14.5996 22.2545 14.3778 22.4475C13.8281 22.9199 13.1928 23.1637 12.4616 23.1332V23.1282ZM12.5221 21.2945C12.8348 21.2691 13.102 21.1574 13.3138 20.939C15.5981 18.638 17.8924 16.3472 20.1615 14.0361C20.6859 13.4977 20.6607 12.9796 20.1615 12.4158C19.864 12.0806 19.5363 11.7657 19.2135 11.4558C18.5479 10.8209 18.0185 10.8209 17.3528 11.4812C16.4755 12.3549 15.6081 13.2387 14.7358 14.1174C13.4197 15.4431 12.0986 16.7638 10.7875 18.0945C10.0916 18.8006 10.1017 19.2933 10.7925 20.0094C11.0901 20.3193 11.3926 20.619 11.6952 20.9186C11.9271 21.1523 12.2045 21.2742 12.5221 21.2945Z" stroke="black" stroke-width="0.3"/>
</svg>
