<svg width="43" height="58" viewBox="0 0 43 58" fill="none" xmlns="http://www.w3.org/2000/svg">
<path d="M25.5293 0C26.4188 0.73454 27.0792 1.5769 26.8771 2.83258C26.8074 3.26163 27.1511 3.4009 27.4229 3.58509C30.4375 5.62249 32.0548 8.45507 32.2255 12.0896C32.2457 12.5343 32.4569 12.723 32.7714 12.9544C34.5459 14.2595 34.4943 16.3755 32.6388 17.5571C32.2525 17.8019 32.0593 18.0445 31.9807 18.4915C31.7178 19.9561 31.3831 21.4072 31.1136 22.8718C30.689 25.1878 29.5389 27.0252 27.5981 28.3618C27.2342 28.6111 26.8771 28.7953 26.8524 29.3636C26.8164 30.1498 26.9782 30.4486 27.8699 30.4576C30.3229 30.4778 32.7983 30.1566 35.2288 30.6597C39.6877 31.5807 42.9426 35.5342 42.9718 40.0852C43.0055 45.3415 42.9628 50.5979 42.9965 55.8542C43.0033 56.9122 42.6304 57.2986 41.5589 57.2964C28.1754 57.2716 14.792 57.2716 1.41078 57.2964C0.314585 57.2964 -0.00663552 56.8651 0.000103373 55.8295C0.0315516 50.6114 -0.00888182 45.391 0.0225664 40.1728C0.0562608 34.7772 4.37814 30.4868 9.78498 30.4351C11.5753 30.4171 13.3633 30.4441 15.1536 30.4194C15.4793 30.4149 16.014 30.6552 16.0814 30.1206C16.1443 29.613 16.3756 28.9907 15.7512 28.5976C15.5939 28.4988 15.4412 28.391 15.2884 28.2832C13.4622 27.0005 12.3637 25.2439 11.9167 23.0695C11.6921 21.9755 11.4495 20.8861 11.263 19.7854C11.0833 18.7251 10.8565 17.8379 9.82541 17.1146C8.46865 16.1621 8.67306 14.0776 10.0635 13.0757C10.5263 12.741 10.7509 12.4512 10.7868 11.8492C10.9868 8.47978 12.521 5.80668 15.2412 3.84117C15.8298 3.41662 16.2139 3.04598 16.1443 2.24855C16.0454 1.12315 16.8204 0.507664 17.6942 0.0044926H25.5248L25.5293 0ZM12.7793 17.9569C13.1342 19.6933 13.4667 21.3668 13.8193 23.0358C14.1495 24.6015 14.9986 25.8392 16.306 26.7467C17.4988 27.5756 18.7185 28.364 19.9248 29.1682C20.7245 29.7006 21.6567 29.9297 22.4676 29.4625C24.3343 28.391 26.2189 27.3083 27.7733 25.7853C28.445 25.1271 28.8987 24.287 29.1032 23.366C29.5007 21.5914 29.8422 19.8034 30.2196 17.9569H12.7793ZM26.8726 5.40909C26.8726 6.35703 26.8613 7.01968 26.8748 7.68234C26.8905 8.34276 26.7625 8.93578 25.9628 8.92679C25.1609 8.91781 25.0666 8.31355 25.071 7.65988C25.0823 6.05827 25.0374 4.45666 25.089 2.85729C25.116 2.01044 24.7925 1.75661 23.9793 1.77907C22.3059 1.82624 20.6279 1.82175 18.9544 1.77907C18.1861 1.7611 17.8874 2.01493 17.9076 2.80563C17.9503 4.47912 17.9166 6.15711 17.9211 7.8306C17.9211 8.48203 17.6852 8.95375 16.9731 8.92679C16.3262 8.89984 16.1151 8.44159 16.124 7.84183C16.133 7.11628 16.124 6.39072 16.124 5.43829C13.8575 7.23084 12.8242 9.38728 12.5681 11.9728C12.521 12.4535 12.7771 12.5343 13.1657 12.5254C13.7609 12.5141 14.3562 12.5254 14.9537 12.5254C19.7945 12.5254 24.633 12.5299 29.4738 12.5186C29.9028 12.5186 30.5138 12.7388 30.424 11.8807C30.1522 9.33337 29.1234 7.20388 26.8703 5.40684L26.8726 5.40909ZM1.81511 46.8264C1.81511 49.7713 1.83758 52.195 1.79939 54.6188C1.78816 55.3039 1.98134 55.5487 2.67994 55.5016C3.49534 55.4454 4.32648 55.4252 5.13739 55.5061C6.02468 55.5959 6.18416 55.223 6.17069 54.4278C6.12801 51.5571 6.25829 48.6796 6.12351 45.8155C6.00671 43.3648 6.59973 41.3409 8.58995 39.7977C9.25935 39.2788 9.64571 38.5487 9.64796 37.6659C9.65245 36.1003 9.62774 34.5324 9.66144 32.9667C9.67491 32.3287 9.43905 32.2501 8.864 32.322C5.39347 32.7533 2.55639 35.3725 1.99482 38.8587C1.54331 41.6711 1.94091 44.5172 1.81287 46.8241L1.81511 46.8264ZM41.186 47.3363C41.186 44.9866 41.2174 42.637 41.1793 40.2874C41.1119 36.1474 38.1041 32.796 34.1259 32.3175C33.5284 32.2456 33.3195 32.3602 33.3419 32.9757C33.3779 34.018 33.4452 35.0737 33.3307 36.1048C33.124 37.9827 33.7238 39.4315 35.2019 40.6086C36.4193 41.5767 36.8641 42.938 36.8529 44.4767C36.8349 47.0128 36.8237 49.5489 36.8596 52.0849C36.8753 53.1879 36.3654 54.639 37.0887 55.2971C37.7963 55.9418 39.2272 55.3982 40.3346 55.4948C41.049 55.5577 41.213 55.2724 41.2017 54.6053C41.1658 52.1815 41.1882 49.7578 41.186 47.334V47.3363ZM14.3068 44.7485C16.0948 44.7485 17.8829 44.7171 19.6687 44.7642C20.383 44.7822 20.6436 44.5958 20.6211 43.841C20.5695 42.017 20.5762 40.193 20.6211 38.369C20.6369 37.7221 20.401 37.4952 19.8012 37.302C18.2311 36.7966 17.1888 35.7004 16.4722 34.2089C16.1622 33.5642 16.5598 32.5601 15.7512 32.2861C15.0818 32.0592 14.2776 32.2321 13.5341 32.2277C13.1994 32.2277 12.8579 32.2658 12.53 32.2209C11.7258 32.1108 11.3686 32.3624 11.4495 33.243C11.5281 34.0921 11.3888 34.9636 11.4809 35.8083C11.755 38.3353 11.0452 40.4222 8.98305 42.0058C8.44394 42.4191 8.13171 43.0144 8.0441 43.7242C7.95649 44.4385 8.0733 44.8069 8.94711 44.771C10.7307 44.6991 12.521 44.7508 14.3068 44.7508V44.7485ZM28.5753 44.7485C30.251 44.7485 31.9268 44.7485 33.6025 44.7485C35.0311 44.7485 35.3793 44.1802 34.7009 42.8863C34.5145 42.5314 34.2607 42.172 33.9484 41.9317C31.9515 40.3997 31.3045 38.3758 31.5134 35.9273C31.6145 34.757 32.0391 33.1599 31.3427 32.4815C30.5408 31.702 28.9437 32.3063 27.6947 32.2254C27.6565 32.2232 27.6206 32.2299 27.5824 32.2254C27.0747 32.1603 26.9085 32.3624 26.8299 32.8926C26.5042 35.1164 25.2373 36.6282 23.1055 37.329C22.5125 37.5244 22.3822 37.8007 22.389 38.3578C22.4159 40.22 22.4227 42.0822 22.3867 43.9421C22.3732 44.5823 22.5844 44.7732 23.2134 44.7598C24.9992 44.7238 26.7872 44.7463 28.5753 44.7485ZM14.4168 46.5456H10.6184C7.95425 46.5456 7.97896 46.5456 8.01714 49.2636C8.02613 49.9554 8.2238 50.1419 8.90668 50.1329C11.9235 50.097 14.9402 50.1172 17.9593 50.1172C20.7177 50.1172 20.6953 50.1172 20.6211 47.343C20.6032 46.6983 20.4032 46.5209 19.7833 46.5321C17.9952 46.5658 16.2071 46.5433 14.4191 46.5433L14.4168 46.5456ZM28.7752 46.5456H25.0868C22.3126 46.5456 22.3418 46.5456 22.38 49.2771C22.389 49.9981 22.6383 50.1374 23.2897 50.1307C26.3065 50.1015 29.3233 50.1172 32.3423 50.1172C35.0918 50.1172 35.0671 50.1172 34.9862 47.3295C34.966 46.6758 34.7481 46.5209 34.1416 46.5321C32.3535 46.5658 30.5655 46.5433 28.7774 46.5433L28.7752 46.5456ZM14.3517 51.9165H10.6633C7.96997 51.9165 7.99917 51.9165 8.01265 54.5873C8.01714 55.3421 8.26199 55.5128 8.96733 55.5038C11.9482 55.4701 14.929 55.4903 17.9076 55.4903C20.7604 55.4903 20.7379 55.4903 20.6166 52.651C20.5897 52.0445 20.3853 51.9007 19.8259 51.9075C17.9997 51.9344 16.1757 51.9165 14.3495 51.9165H14.3517ZM28.6472 55.4903H32.3356C35.0311 55.4903 35.0019 55.4903 34.9885 52.8217C34.9862 52.0715 34.7459 51.894 34.036 51.903C31.0552 51.9389 28.0743 51.9187 25.0958 51.9187C22.2452 51.9187 22.2654 51.9187 22.3845 54.7558C22.4092 55.3578 22.6091 55.5105 23.1729 55.5016C24.9992 55.4746 26.8232 55.4926 28.6494 55.4926L28.6472 55.4903ZM21.614 14.3269C18.4849 14.3269 15.3558 14.3314 12.229 14.3246C11.5641 14.3246 10.8385 14.3381 10.8115 15.1895C10.7868 16.0431 11.4877 16.1127 12.1683 16.1127C18.3883 16.1082 24.6083 16.1082 30.8283 16.1127C31.5067 16.1127 32.212 16.0476 32.1896 15.194C32.1671 14.3449 31.4416 14.3246 30.7766 14.3246C27.7217 14.3314 24.669 14.3269 21.614 14.3269ZM25.0216 30.0667C22.654 32.0008 20.3381 31.9828 17.9795 30.0735C17.8604 32.158 17.7167 34.0314 19.6148 35.222C20.8615 36.0037 22.1509 36.0037 23.3953 35.2175C25.2844 34.0224 25.1429 32.1535 25.0216 30.0667Z" fill="black"/>
</svg>
