<svg width="63" height="52" viewBox="0 0 63 52" fill="none" xmlns="http://www.w3.org/2000/svg">
<path d="M20.4415 51.9813C14.0419 51.9813 7.64698 51.9674 1.24739 51.9999C0.335153 52.0045 -0.00460715 51.8375 4.71013e-05 50.8166C0.0419353 41.5777 0.0326268 32.334 0.0093556 23.0951C0.0093556 22.4176 0.237414 21.9675 0.698184 21.5081C7.6749 14.5847 14.6377 7.64732 21.5771 0.686774C22.0891 0.176334 22.5964 0.00928073 23.2992 0.00928073C36.0937 0.0278422 48.8883 0.0324825 61.6875 0C62.6695 0 63.0046 0.180974 63 1.24826C62.9534 10.4501 62.9674 19.6473 62.9906 28.8491C62.9906 29.5638 62.7626 30.0464 62.2599 30.5429C55.3111 37.4384 48.381 44.3433 41.4694 51.276C40.9249 51.8236 40.385 51.9999 39.6449 51.9999C33.2453 51.9767 26.8504 51.986 20.4508 51.986L20.4415 51.9813ZM53.7799 2.01392C53.3377 1.96287 53.1841 1.92575 53.0305 1.92575C45.5651 1.92575 38.0997 1.93039 30.639 1.90719C29.9734 1.90719 29.5964 2.22737 29.1822 2.64037C22.3125 9.49882 15.4475 16.3573 8.55455 23.1879C8.00535 23.7308 7.82384 24.2737 7.82849 25.0116C7.85176 30.9837 7.86573 36.9512 7.81918 42.9234C7.80988 43.9164 8.02863 44.2319 9.08514 44.2227C16.7972 44.1763 24.5047 44.167 32.2168 44.2273C33.3757 44.2366 33.5292 43.8514 33.5246 42.8445C33.4827 36.3433 33.5153 29.8422 33.4874 23.341C33.4874 22.5522 33.6689 21.9721 34.2646 21.4153C35.8145 19.9536 37.2945 18.4222 38.8025 16.9188C43.736 12.0093 48.6695 7.1044 53.7845 2.01392H53.7799ZM60.8823 4.47795C60.7473 4.58468 60.6216 4.66821 60.5192 4.77493C54.2825 10.9884 48.0552 17.2111 41.8045 23.4106C41.3251 23.8839 41.3065 24.3851 41.3065 24.9605C41.3065 32.4408 41.3065 39.9257 41.3158 47.406C41.3158 47.7493 41.1855 48.1298 41.4973 48.5243C41.6835 48.3572 41.8604 48.2134 42.0233 48.051C48.1762 41.9257 54.3151 35.7911 60.482 29.6798C60.9754 29.1879 61.0684 28.6774 61.0638 28.0371C61.0498 20.5568 61.0591 13.0719 61.0498 5.59164C61.0498 5.24825 61.1755 4.86774 60.8776 4.47795H60.8823ZM20.6137 50.0834C26.4781 50.0834 32.3378 50.0602 38.2021 50.1066C39.1609 50.1159 39.4355 49.8746 39.4262 48.8955C39.3843 41.6612 39.4029 34.4269 39.4029 27.1879C39.4029 24.4965 39.4029 24.5661 36.7546 24.4686C35.5585 24.4222 35.377 24.8538 35.3816 25.9118C35.4282 32.2459 35.3816 38.5846 35.4282 44.9187C35.4375 45.9118 35.1303 46.1206 34.1948 46.1159C25.1749 46.0834 16.1549 46.0834 7.13501 46.1159C6.1902 46.1159 5.90163 45.8978 5.90629 44.9141C5.95283 39.0672 5.92956 33.225 5.92956 27.3781C5.92956 24.4501 5.92956 24.4918 2.97877 24.4779C2.07119 24.4779 1.9176 24.7888 1.9176 25.6009C1.94552 33.406 1.95018 41.2157 1.9176 49.0254C1.9176 49.9025 2.18289 50.1066 3.02531 50.102C8.88966 50.0649 14.7494 50.0834 20.6137 50.0834ZM27.0273 2.19953L26.9016 1.92111C26.1755 1.92111 25.4355 1.99072 24.7188 1.90719C23.518 1.76334 22.6802 2.20417 21.8331 3.06264C15.6988 9.25288 9.50868 15.3874 3.3418 21.5452C3.0672 21.819 2.69951 22.0324 2.54127 22.6032C3.35576 22.6032 4.12371 22.5475 4.87304 22.6171C6.01334 22.7239 6.83714 22.3619 7.66094 21.5127C10.7607 18.3062 13.9488 15.1879 17.1137 12.0464C20.4182 8.76101 23.7274 5.48491 27.0319 2.20417L27.0273 2.19953ZM60.5053 2.19953C60.4587 2.10672 60.4075 2.01392 60.361 1.92575C59.6303 1.92575 58.8902 1.99536 58.1642 1.91183C56.9587 1.76798 56.1303 2.23665 55.2879 3.08584C49.1489 9.27145 42.9634 15.4106 36.7919 21.5638C36.5173 21.8375 36.2613 22.1253 35.8098 22.6032C36.8384 22.6032 37.6064 22.5382 38.365 22.6171C39.5193 22.7378 40.3245 22.3294 41.1436 21.4942C45.2114 17.3457 49.349 13.2668 53.468 9.16936C55.8091 6.8399 58.1595 4.52435 60.5099 2.19953H60.5053Z" fill="black"/>
</svg>
