<svg width="83" height="77" viewBox="0 0 83 77" fill="none" xmlns="http://www.w3.org/2000/svg">
<g opacity="0.4">
<mask id="mask0_336_589" style="mask-type:alpha" maskUnits="userSpaceOnUse" x="0" y="0" width="83" height="77">
<rect width="83" height="76.6962" fill="#D9D9D9"/>
</mask>
<g mask="url(#mask0_336_589)">
<path d="M47.8301 76.9646C39.1294 76.9646 30.426 76.8658 21.7279 76.9985C15.8856 77.0896 12.0273 73.09 12.0143 67.2923C11.9803 52.8501 12.0169 38.4106 12.0221 23.9684C12.0221 20.687 12.9253 17.7856 15.6376 15.7064C20.2347 12.1831 26.7426 14.3481 28.5099 20.0677C28.9485 21.4859 29.6168 21.819 30.9873 21.8164C47.1723 21.7773 63.3547 21.7903 79.5397 21.7903C79.8869 21.7903 80.2367 21.7851 80.5839 21.7903C82.6279 21.8424 82.9933 22.1963 82.996 24.2728C83.0012 41.0127 83.0038 57.7527 82.9881 74.4926C82.9881 75.445 83.1865 76.8111 81.7743 76.7981C80.3463 76.7851 80.6178 75.4189 80.6152 74.4665C80.6021 58.4214 80.6074 42.3763 80.6074 26.3286C80.6074 25.0448 79.9626 24.4021 78.673 24.4003C62.749 24.4003 46.8277 24.4003 30.9037 24.4003C29.6733 24.4003 29.0573 25.0257 29.0555 26.2765C29.0555 39.7195 29.0607 53.165 29.0425 66.6079C29.0425 67.5291 29.4132 68.8562 27.8834 68.8952C26.492 68.9317 26.6748 67.6618 26.5729 66.7614C26.2127 63.631 23.4064 61.0652 20.3965 61.1485C17.3397 61.2344 14.6848 64.0526 14.4316 67.3287C14.1627 70.8365 16.9742 74.4275 21.0465 74.4015C38.7535 74.287 56.4604 74.352 74.1647 74.3572C74.7729 74.3572 75.3864 74.3625 75.9842 74.4509C76.6734 74.5524 77.0571 75.0156 77.0519 75.7156C77.0467 76.3765 76.629 76.7617 76.0155 76.8684C75.5065 76.9568 74.9765 76.9594 74.4571 76.9594C65.5814 76.9646 56.7058 76.962 47.8327 76.962L47.8301 76.9646ZM26.4241 61.0002C26.7139 60.4459 26.6043 59.9619 26.6043 59.4961C26.6121 47.8747 26.6095 36.2559 26.6069 24.6345C26.6069 23.768 26.6826 22.8885 26.5651 22.0376C26.244 19.6722 25.004 17.8662 22.7773 16.9737C20.6054 16.1046 18.4831 16.409 16.687 18.0068C15.1442 19.3807 14.4211 21.1476 14.4211 23.2085C14.4211 35.4362 14.4185 47.664 14.4264 59.8891C14.4264 60.2508 14.2723 60.6697 14.63 60.9768C19.0025 57.469 23.1558 58.1846 26.4241 60.9976V61.0002Z" fill="#D4D4D4"/>
<path d="M60.6841 42.3321C56.6849 42.3321 52.6856 42.3321 48.6864 42.3321C46.6763 42.3321 46.4701 42.1239 46.4674 40.0786C46.4648 37.0886 46.457 34.0987 46.4727 31.1088C46.4805 29.649 46.7885 29.3263 48.2269 29.3211C52.0513 29.3055 55.8782 29.3133 59.7026 29.3211C60.4623 29.3211 61.295 29.3471 61.3133 30.3828C61.3342 31.4393 60.5171 31.6292 59.6869 31.6344C56.557 31.6553 53.427 31.6423 50.297 31.6501C48.6133 31.6553 48.5637 31.7073 48.5584 33.4274C48.5532 35.2047 48.5793 36.9819 48.5532 38.7566C48.5402 39.6362 48.9056 40.0031 49.7932 40.0005C57.053 39.9849 64.3127 39.9849 71.5725 40.0005C72.4522 40.0005 72.836 39.6466 72.8229 38.7619C72.7968 36.8128 72.7916 34.8612 72.8255 32.9121C72.8438 31.9337 72.3739 31.6162 71.4654 31.6449C70.4656 31.6761 69.4658 31.6527 68.466 31.6318C67.7351 31.6162 67.1503 31.3378 67.1294 30.5233C67.1059 29.6282 67.7194 29.3367 68.5078 29.3315C70.1602 29.3211 71.8126 29.3315 73.4625 29.3263C74.3761 29.3263 74.8617 29.8311 74.8695 30.6872C74.8982 34.1091 74.9035 37.5336 74.8669 40.9555C74.8539 42.077 74.0707 42.3451 73.0683 42.3399C68.9385 42.319 64.8087 42.3321 60.6789 42.3321H60.6841Z" fill="#D4D4D4"/>
<path d="M52.9937 57.8281C52.9937 60.9065 53.0041 63.9849 52.9884 67.0607C52.9806 68.5908 52.6882 68.8692 51.135 68.8796C49.1354 68.8926 47.1331 68.8848 45.1335 68.8822C44.3242 68.8822 43.421 68.8744 43.4315 67.7763C43.4419 66.738 44.3164 66.7771 45.0734 66.7771C46.551 66.7771 48.0311 66.7406 49.5087 66.7849C50.4928 66.8135 50.9209 66.47 50.9157 65.4369C50.8844 60.321 50.8896 55.2077 50.9157 50.0918C50.9183 49.3111 50.6442 49.0587 49.8663 49.0067C45.0865 48.6892 40.3041 48.939 35.5243 48.8662C34.7359 48.8532 34.4618 49.2695 34.4618 50.0059C34.4697 55.2077 34.4749 60.4095 34.4592 65.6113C34.4592 66.4362 34.8064 66.7953 35.6261 66.7927C36.2735 66.7927 36.7356 67.1049 36.7382 67.7997C36.7382 68.5778 36.1821 68.8406 35.5165 68.8614C31.9793 68.9785 32.3604 68.8926 32.3604 66.0927C32.3604 60.3262 32.3578 54.5624 32.3604 48.7959C32.3604 46.9327 32.5379 46.7428 34.3365 46.7402C39.9021 46.7298 45.4702 46.7298 51.0358 46.7376C52.73 46.7402 52.9832 47.0056 52.991 48.723C53.0015 51.7572 52.9937 54.7914 52.9937 57.8255V57.8281Z" fill="#D4D4D4"/>
<path d="M74.9818 58.0675C74.9818 61.2266 74.9922 64.3856 74.9792 67.5447C74.9713 69.2205 74.585 69.6056 72.9012 69.6291C71.5124 69.6473 70.1237 69.6317 68.7323 69.6239C67.6228 69.6161 67.0381 69.0618 67.0355 67.9428C67.0355 61.3645 67.0328 54.7862 67.0355 48.2078C67.0355 47.1799 67.5314 46.5528 68.5991 46.5346C70.1602 46.506 71.7239 46.5242 73.2876 46.519C74.6006 46.519 74.9896 47.284 74.9844 48.4576C74.9661 51.6609 74.9792 54.8616 74.9792 58.0649L74.9818 58.0675ZM72.5853 58.2158C72.5853 55.6657 72.541 53.1129 72.6036 50.5628C72.6323 49.3866 72.1337 49.0821 71.0478 49.0978C70.0349 49.1134 69.4293 49.2461 69.4423 50.4951C69.4971 55.5538 69.4919 60.6125 69.4423 65.6711C69.4319 66.8968 70.0166 67.0841 71.0452 67.0919C72.1311 67.1023 72.6271 66.7745 72.601 65.6087C72.541 63.1444 72.5827 60.6801 72.5827 58.2158H72.5853Z" fill="#D4D4D4"/>
<path d="M57.1104 58.0207C57.1104 54.8564 57.0999 51.6921 57.1156 48.5279C57.1234 46.9119 57.4994 46.5294 59.1231 46.519C60.6006 46.5086 62.0781 46.5398 63.5557 46.5919C64.5607 46.6283 65.0254 47.2008 65.0228 48.1974C65.0175 54.7862 65.0175 61.3749 65.0228 67.9637C65.0228 69.0956 64.4563 69.6343 63.3338 69.6291C61.898 69.6239 60.4623 69.6629 59.0291 69.6161C57.4759 69.5666 57.1234 69.1893 57.1156 67.6436C57.1026 64.4351 57.1104 61.2292 57.113 58.0207H57.1104ZM62.6263 58.0831C62.6263 55.5746 62.5767 53.0661 62.6472 50.5602C62.6812 49.3788 62.193 49.0769 61.1044 49.1004C60.0942 49.1212 59.4729 49.2565 59.4859 50.5003C59.5329 55.559 59.5303 60.6177 59.4859 65.6763C59.4755 66.902 60.0837 67.0789 61.107 67.0945C62.2034 67.1101 62.6759 66.7693 62.6446 65.6061C62.5794 63.1002 62.6237 60.5916 62.6263 58.0831Z" fill="#D4D4D4"/>
<path d="M44.4574 35.8058C44.4574 37.4529 44.4417 39.1001 44.4626 40.7447C44.4756 41.8819 43.9509 42.4179 42.8049 42.4127C39.8499 42.3997 36.8922 42.3919 33.9371 42.4153C32.799 42.4231 32.1803 41.8689 32.1698 40.7942C32.1333 37.4582 32.1411 34.1221 32.1724 30.7887C32.1829 29.6698 32.8251 29.2144 33.9554 29.23C36.9105 29.269 39.8681 29.2638 42.8232 29.23C43.9901 29.217 44.4887 29.7114 44.4652 30.8642C44.4313 32.5088 44.4574 34.156 44.4574 35.8032V35.8058ZM34.5401 35.7693C34.5401 36.766 34.5715 37.7652 34.5297 38.7592C34.4984 39.5711 34.7725 39.9563 35.6444 39.938C37.4691 39.9016 39.2964 39.9094 41.1212 39.9328C41.886 39.9432 42.228 39.6648 42.215 38.8711C42.1863 36.8336 42.1863 34.7961 42.215 32.7612C42.2254 31.9519 41.8495 31.7073 41.1029 31.7177C39.2782 31.7411 37.4508 31.7437 35.6261 31.7177C34.8612 31.7073 34.5036 31.9857 34.5323 32.782C34.5689 33.7787 34.5401 34.7753 34.5401 35.7719V35.7693Z" fill="#D4D4D4"/>
<path d="M18.9764 38.9388C18.9764 34.3902 18.9764 29.8415 18.979 25.2929C18.979 24.8609 18.979 24.4212 19.0678 24.0022C19.1774 23.487 19.5586 23.1851 20.0885 23.1487C20.6393 23.1123 21.0283 23.4193 21.1484 23.9267C21.2867 24.5122 21.3781 25.1212 21.3781 25.7197C21.3911 34.5567 21.3911 43.3938 21.3781 52.2334C21.3781 52.7903 21.2998 53.3576 21.1771 53.904C21.0492 54.4713 20.6419 54.8096 20.0415 54.7679C19.4385 54.7263 19.1122 54.3152 19.0234 53.7531C18.9634 53.3706 18.9764 52.975 18.9764 52.5873C18.9738 48.0387 18.9764 43.49 18.9764 38.9414V38.9388Z" fill="#D4D4D4"/>
</g>
</g>
</svg>
