<svg width="51" height="51" viewBox="0 0 51 51" fill="none" xmlns="http://www.w3.org/2000/svg">
<path d="M16.3216 31.5168C14.7343 31.5168 13.1471 31.515 11.5598 31.5168C10.9758 31.5168 10.4293 31.4459 10.1466 30.8341C9.86775 30.2298 10.2327 29.8139 10.5828 29.3998C17.308 21.4221 24.0332 13.4445 30.7603 5.46502C32.1267 3.84413 33.4931 2.2251 34.8519 0.596746C35.2057 0.173336 35.5969 -0.117641 36.179 0.0464998C36.8266 0.227428 37.0644 0.831766 36.7705 1.65247C35.9394 3.97469 35.0915 6.28946 34.2492 8.60609C33.0888 11.7975 31.9414 14.9945 30.7584 18.1766C30.5375 18.7698 30.691 18.8817 31.2731 18.9003C33.9067 18.9787 36.5403 19.0981 39.1738 19.2025C39.3367 19.21 39.4995 19.2305 39.6624 19.2473C40.164 19.3014 40.6413 19.4002 40.8565 19.943C41.0699 20.4802 40.7985 20.8794 40.4822 21.2748C32.7425 30.892 25.0065 40.511 17.2687 50.1282C16.5817 50.9806 16.0913 51.1783 15.5336 50.85C14.9739 50.5218 14.899 50.0144 15.294 48.9941C17.4315 43.46 19.5728 37.9295 21.7122 32.3972C22.0435 31.5429 22.0285 31.5187 21.0889 31.5168C19.5017 31.515 17.9144 31.5168 16.3272 31.5168H16.3216ZM19.6645 43.5439C19.7076 43.5607 19.7525 43.5756 19.7955 43.5924C19.8573 43.5252 19.9228 43.4618 19.9808 43.3891C23.9228 38.4891 27.8647 33.591 31.8047 28.691C33.6147 26.4396 35.4228 24.1883 37.2272 21.9332C37.3507 21.7784 37.6034 21.6348 37.4855 21.4091C37.3844 21.2151 37.1168 21.2524 36.9128 21.2226C36.8435 21.2132 36.7724 21.2151 36.7031 21.2132C34.2567 21.1163 31.8085 21.0174 29.3621 20.9223C28.1922 20.8756 27.7636 20.2732 28.1567 19.1708C28.8923 17.1116 29.6447 15.0598 30.3916 13.0043C31.1665 10.8705 31.9451 8.73852 32.735 6.56924C32.4748 6.60468 32.4205 6.78188 32.3232 6.89753C26.1951 14.1608 20.0707 21.4259 13.9519 28.6947C13.8115 28.8626 13.5064 29.0118 13.6244 29.2524C13.7367 29.4819 14.0493 29.3625 14.2701 29.3643C17.2818 29.3718 20.2916 29.3625 23.3032 29.3737C24.4319 29.3793 24.8792 30.0284 24.4843 31.0654C23.6551 33.2384 22.8128 35.4077 21.9743 37.577C21.205 39.5672 20.4338 41.5555 19.6645 43.5439Z" fill="black"/>
<path d="M2.09809 25.5462C2.42003 34.1244 6.09616 40.8206 13.4222 45.4595C13.6581 45.6087 13.9164 45.743 14.1073 45.937C14.4741 46.3119 14.5378 46.7652 14.2308 47.2072C13.9369 47.6306 13.5121 47.8395 13.016 47.6138C12.5313 47.3919 12.0633 47.1177 11.6216 46.8193C5.14905 42.4658 1.25954 36.4597 0.224461 28.732C-1.38338 16.7311 5.78358 5.35124 17.3286 1.43051C21.3828 0.0539608 25.5231 -0.291109 29.7477 0.447526C30.5581 0.589285 30.9475 1.03881 30.8426 1.69164C30.7453 2.30157 30.2418 2.63172 29.4575 2.51048C25.5119 1.89868 21.6111 2.08334 17.8658 3.486C9.01423 6.80053 3.84069 13.1759 2.30585 22.4685C2.13927 23.4739 2.06065 24.5017 2.09996 25.5462H2.09809Z" fill="black"/>
<path d="M48.8808 25.4044C48.6206 17.2664 45.2402 10.7921 38.4906 6.11226C38.2997 5.97983 38.0901 5.85859 37.9403 5.68885C37.5959 5.29528 37.5398 4.84576 37.8636 4.41116C38.1743 3.99335 38.6067 3.81988 39.0952 4.0549C39.492 4.24515 39.8664 4.49137 40.2239 4.74877C46.3632 9.17685 49.9776 15.1549 50.8218 22.6383C51.679 30.2317 49.4348 36.9447 44.2837 42.6206C40.2894 47.0207 35.2862 49.6414 29.4182 50.6038C26.7042 51.0496 23.9845 51.0384 21.2742 50.5441C20.5124 50.4042 20.0932 49.951 20.1605 49.3634C20.2317 48.733 20.7726 48.3599 21.5756 48.4849C25.2049 49.0426 28.8155 48.94 32.297 47.7705C41.332 44.7376 46.775 38.5171 48.57 29.1685C48.8078 27.9337 48.8939 26.6803 48.8826 25.4063L48.8808 25.4044Z" fill="black"/>
</svg>
