<svg width="83" height="77" viewBox="0 0 83 77" fill="none" xmlns="http://www.w3.org/2000/svg">
<g opacity="0.4">
<mask id="mask0_336_578" style="mask-type:alpha" maskUnits="userSpaceOnUse" x="0" y="0" width="83" height="77">
<rect width="83" height="76.6962" fill="#D9D9D9"/>
</mask>
<g mask="url(#mask0_336_578)">
<path d="M40.4683 14.0022C46.7066 14.0022 52.9449 13.9954 59.1867 14.0057C62.0926 14.0125 63.2543 15.1767 63.2647 18.0854C63.2785 22.0896 63.3201 26.0972 63.2404 30.0979C63.2127 31.5505 63.7501 31.966 65.1511 31.9454C69.4232 31.8767 73.6989 31.9111 77.9745 31.9248C81.4283 31.9351 82.9887 33.4461 82.9922 36.8116C83.0026 48.539 83.0026 60.2665 82.9922 71.9974C82.9887 75.2598 81.6121 76.8601 78.3213 76.8978C69.0799 76.9974 59.8351 76.9837 50.5938 76.9081C47.7746 76.8841 46.3251 75.2495 46.1656 72.4301C46.1448 72.0867 46.1552 71.7432 46.1518 71.3998C46.1309 69.4321 44.3347 68.4019 42.5662 69.3428C41.9663 69.6622 42.0426 70.064 42.2645 70.6306C43.7556 74.4425 42.2125 76.8601 38.079 76.9253C32.0141 77.0249 25.9457 77.0249 19.8842 76.9253C15.723 76.8532 14.2007 74.5352 15.5982 70.6855C15.7681 70.2151 15.8305 69.8201 15.5739 69.3875C15.4872 69.2398 15.4213 69.0784 15.3416 68.9273C14.5197 67.351 15.5808 65.9637 15.6953 64.5007C15.8028 63.158 14.4747 61.7878 15.2375 60.2493C15.4629 59.7926 15.6537 59.1882 16.042 58.9581C17.7273 57.9588 17.658 56.4237 17.6545 54.7822C17.6198 42.7113 17.6337 30.6405 17.6372 18.5696C17.6441 14.9638 18.6151 14.0057 22.27 14.0022C28.3349 13.9988 34.3998 14.0022 40.4683 14.0022ZM40.4232 16.3134C34.4137 16.3134 28.4008 16.358 22.3913 16.2859C20.7477 16.2653 20.1374 16.7942 20.1443 18.446C20.1859 30.8637 20.1859 43.2848 20.1408 55.7026C20.1339 57.2033 20.6298 57.6875 22.1417 57.6669C27.631 57.5947 33.1203 57.6085 38.6131 57.6531C42.053 57.6806 43.8839 60.4794 42.3824 63.546C41.7374 64.8647 42.5246 65.7095 43.0759 66.4719C43.5753 67.1587 44.7057 66.7157 45.5449 66.6676C46.2731 66.6264 46.1448 65.9293 46.1448 65.4417C46.1518 56.2829 46.1448 47.1276 46.1552 37.9688C46.1552 36.9455 45.7252 36.5162 44.6953 36.554C43.714 36.5883 42.7292 36.5712 41.7513 36.5094C41.1167 36.4681 40.6555 36.1076 40.6139 35.431C40.5723 34.7545 40.9815 34.3218 41.6091 34.2257C42.4032 34.1055 43.2181 34.0471 44.0191 34.078C45.5033 34.1364 46.8349 34.0231 47.9307 32.7799C48.6381 31.9798 49.7651 31.9077 50.8366 31.9111C53.4373 31.9283 56.0415 31.8424 58.6388 31.942C60.1923 32.0004 60.8061 31.5333 60.7645 29.9159C60.6709 26.1418 60.7437 22.3608 60.7298 18.5833C60.7229 16.5091 60.5287 16.3134 58.4516 16.31C52.4421 16.2997 46.4292 16.3065 40.4197 16.31L40.4232 16.3134ZM80.4469 54.5247C80.4469 48.6936 80.4539 42.8624 80.4469 37.0313C80.4435 34.7305 80.1695 34.4558 77.8497 34.4523C69.0175 34.4455 60.1854 34.4455 51.3532 34.4523C49.0438 34.4523 48.7074 34.7717 48.704 37.0073C48.6936 48.6111 48.697 60.215 48.704 71.8222C48.704 73.996 49.1721 74.4631 51.329 74.4665C60.1611 74.4768 68.9932 74.4768 77.8254 74.4665C80.0378 74.4665 80.4331 74.0647 80.44 71.8428C80.4539 66.0701 80.4435 60.2939 80.4469 54.5212V54.5247ZM28.8377 74.4699C31.9551 74.4699 35.0726 74.4699 38.19 74.4699C39.3413 74.4699 40.4024 74.1334 40.385 72.8353C40.3712 71.5441 39.3205 71.2419 38.1588 71.2453C32.0384 71.259 25.9179 71.2522 19.7975 71.2487C18.6809 71.2487 17.5886 71.417 17.5505 72.7906C17.5089 74.2776 18.6393 74.4768 19.8287 74.4734C22.8317 74.4734 25.8347 74.4734 28.8343 74.4699H28.8377ZM29.0146 63.1649C32.1251 63.1649 35.239 63.1614 38.3495 63.1649C39.4349 63.1649 40.4197 62.897 40.4197 61.647C40.4197 60.3832 39.4141 60.1463 38.3356 60.1463C32.1112 60.1497 25.8902 60.1463 19.6658 60.1497C18.6393 60.1497 17.5817 60.2562 17.5366 61.5852C17.4881 63.0172 18.5526 63.1717 19.6762 63.1683C22.7866 63.1614 25.9006 63.1683 29.0111 63.1649H29.0146ZM28.966 65.713C28.966 65.713 28.966 65.7198 28.966 65.7233C25.7376 65.7233 22.5127 65.7164 19.2843 65.7233C18.3064 65.7233 17.5539 66.0873 17.5262 67.1759C17.5019 68.2542 18.2093 68.6629 19.1976 68.7178C19.4265 68.7315 19.6588 68.735 19.8877 68.735C25.9388 68.735 31.9898 68.735 38.0409 68.735C39.1887 68.735 40.4509 68.6869 40.4093 67.1828C40.3677 65.6992 39.0847 65.7027 37.9542 65.7027C34.9581 65.7027 31.9621 65.7027 28.966 65.7027V65.713Z" fill="#D4D4D4"/>
<path d="M36.4215 25.3657C36.3695 25.8568 36.1614 26.2551 35.6829 26.4371C35.0206 26.6913 34.5247 26.3787 34.2369 25.8327C33.5052 24.4453 32.2742 24.3973 30.9565 24.5484C30.2629 24.6274 29.7324 24.9536 29.6561 25.6988C29.5833 26.4165 30.1104 26.7119 30.6894 26.8801C31.8511 27.2201 33.044 27.4639 34.1918 27.8485C35.721 28.3637 36.8029 29.3321 36.9 31.0491C37.0006 32.8074 36.1163 34.0093 34.5594 34.703C33.7965 35.043 33.2347 35.4516 32.7804 36.19C32.236 37.0794 31.3414 37.0313 30.849 36.1385C30.3912 35.3074 29.7254 34.9022 28.9417 34.5141C27.9812 34.0368 27.3015 33.2676 26.9236 32.2545C26.6496 31.5093 26.7571 30.8603 27.5165 30.5134C28.2447 30.1803 28.7441 30.5958 29.0458 31.2277C29.8364 32.8761 31.2755 33.0718 32.8533 32.8864C33.6439 32.7937 34.3478 32.4056 34.4796 31.5677C34.6252 30.6336 33.8693 30.2833 33.1342 30.0532C32.0349 29.7098 30.9044 29.4488 29.8052 29.102C28.3106 28.6315 27.2426 27.6768 27.1212 26.0731C26.9999 24.4728 27.8737 23.3396 29.3197 22.7043C29.9924 22.4055 30.4467 22.0071 30.8004 21.365C31.2269 20.5889 32.1667 20.2317 32.5967 21.0353C33.2243 22.2097 34.3132 22.6321 35.246 23.3396C35.9048 23.8375 36.3244 24.5243 36.425 25.3691L36.4215 25.3657Z" fill="#D4D4D4"/>
<path d="M33.3249 43.326C30.8386 43.326 28.3557 43.3432 25.8694 43.3157C24.8915 43.3054 23.6605 43.3432 23.6778 41.9867C23.6952 40.7058 24.8846 40.8329 25.7966 40.8295C30.9391 40.8192 36.0817 40.826 41.2242 40.8295C41.512 40.8295 41.8033 40.8295 42.0911 40.8569C42.7985 40.9222 43.3499 41.2381 43.3742 41.9902C43.3984 42.7491 42.8367 43.1578 42.157 43.1956C40.4856 43.2883 38.8107 43.302 37.1393 43.326C35.8667 43.3432 34.5975 43.3295 33.3249 43.326Z" fill="#D4D4D4"/>
<path d="M33.4393 54.2774C30.842 54.2774 28.2447 54.3083 25.6475 54.2602C24.732 54.2431 23.5877 54.1675 23.6778 52.8866C23.7576 51.7293 24.8326 51.8083 25.6995 51.8083C30.894 51.8014 36.0886 51.8048 41.2866 51.8083C42.2125 51.8083 43.3742 51.7259 43.3429 53.0205C43.3152 54.2396 42.1501 54.2602 41.2311 54.2705C38.6339 54.3049 36.0366 54.2843 33.4393 54.2843C33.4393 54.2843 33.4393 54.2774 33.4393 54.274V54.2774Z" fill="#D4D4D4"/>
<path d="M48.7802 29.9811C46.6996 29.9811 44.6225 29.9983 42.5419 29.9743C41.6542 29.964 40.6416 29.8747 40.6243 28.7277C40.607 27.5669 41.5952 27.4674 42.5038 27.4674C46.8349 27.4605 51.166 27.4605 55.4971 27.4674C56.3605 27.4674 57.2379 27.6322 57.2517 28.6796C57.2656 29.7098 56.3918 29.9537 55.5352 29.964C53.2847 29.9914 51.0308 29.9743 48.7768 29.9743V29.9811H48.7802Z" fill="#D4D4D4"/>
<path d="M48.7802 23.1988C46.5887 23.1988 44.3971 23.2022 42.2056 23.1919C41.4045 23.1885 40.6104 23.0271 40.6347 22.0312C40.659 21.0456 41.46 20.9082 42.2541 20.9082C46.6927 20.9014 51.1348 20.9014 55.5734 20.9048C56.3675 20.9048 57.1963 21.0353 57.2344 21.9968C57.276 23.0957 56.371 23.1953 55.5248 23.2022C53.2778 23.2125 51.0273 23.2022 48.7802 23.2022V23.1988Z" fill="#D4D4D4"/>
<path d="M38.2212 46.3309C39.428 46.3309 40.6347 46.324 41.8415 46.3309C42.5905 46.3378 43.2771 46.5507 43.3672 47.3886C43.4574 48.2368 42.8263 48.6386 42.0842 48.7004C39.5077 48.9065 36.9208 48.8996 34.3444 48.7004C33.5988 48.642 32.9885 48.2265 33.0717 47.3817C33.1446 46.6434 33.7375 46.3549 34.4345 46.3412C35.6968 46.3206 36.9625 46.3343 38.2247 46.3343V46.3275L38.2212 46.3309Z" fill="#D4D4D4"/>
<path d="M27.7766 46.3549C28.699 46.3549 29.6249 46.3206 30.5473 46.3652C31.1715 46.3961 31.6743 46.7052 31.7436 47.3886C31.8199 48.1578 31.3448 48.594 30.6444 48.6832C28.6921 48.9271 26.7259 48.9065 24.7736 48.697C24.0905 48.6249 23.5773 48.1681 23.6536 47.4092C23.7299 46.6537 24.3124 46.3687 25.006 46.3481C25.9284 46.3172 26.8542 46.3412 27.7766 46.3412C27.7766 46.3446 27.7766 46.3515 27.7766 46.3549Z" fill="#D4D4D4"/>
<path d="M64.5373 36.3342C68.4627 36.3342 72.3916 36.372 76.3169 36.3136C77.8809 36.2896 78.5363 36.9214 78.4877 38.4496C78.4357 39.9915 78.4669 41.5369 78.4738 43.0822C78.4808 44.4009 77.9017 45.1221 76.5077 45.1186C68.539 45.1118 60.5703 45.1118 52.6016 45.1186C51.2978 45.1186 50.7048 44.4387 50.6944 43.2024C50.684 41.5437 50.6875 39.8851 50.6944 38.2264C50.6979 36.8734 51.3741 36.3067 52.7577 36.3239C56.683 36.3686 60.6119 36.3411 64.5373 36.3376V36.3342ZM64.5546 38.6454C61.3852 38.6454 58.2158 38.7072 55.0498 38.6179C53.6003 38.5767 53.1356 39.0849 53.1772 40.4895C53.2154 41.7704 53.257 42.6495 54.9804 42.6289C61.3748 42.5499 67.7692 42.5499 74.1601 42.6289C75.8939 42.6495 75.9078 41.7361 75.9563 40.4723C76.0118 39.0437 75.4778 38.5836 74.056 38.6179C70.89 38.7003 67.7206 38.6419 64.5512 38.6454H64.5546Z" fill="#D4D4D4"/>
<path d="M70.363 63.9032C70.363 61.7294 70.3838 59.5556 70.3526 57.3853C70.3318 56.0219 70.9733 55.3626 72.3257 55.3591C73.7682 55.3523 75.2142 55.3454 76.6568 55.3694C77.8496 55.3866 78.4669 56.0185 78.4669 57.1998C78.4738 61.7191 78.4738 66.2349 78.4669 70.7542C78.4669 71.9218 77.867 72.5743 76.6602 72.588C75.1587 72.6052 73.6572 72.6052 72.1558 72.588C70.9629 72.5743 70.356 71.9802 70.363 70.7714C70.3768 68.4843 70.3664 66.1972 70.363 63.9101V63.9032ZM75.9251 64.1024C75.9251 62.4986 75.8974 60.8983 75.9355 59.2981C75.9563 58.3056 75.6095 57.8317 74.5346 57.8386C73.5047 57.842 72.8805 58.0721 72.8909 59.2569C72.9221 62.3475 72.9186 65.4348 72.8909 68.5255C72.8805 69.5901 73.2619 70.0914 74.4028 70.0949C75.5194 70.0949 75.9736 69.6759 75.939 68.5701C75.8904 67.0832 75.9286 65.5962 75.9286 64.1092L75.9251 64.1024Z" fill="#D4D4D4"/>
<path d="M64.5789 55.3454C67.3392 55.3385 68.7193 56.6904 68.7193 59.4011C68.7193 62.2125 67.2767 63.6182 64.3917 63.6182C63.9305 63.6182 63.4693 63.625 63.0081 63.6147C60.9448 63.5598 60.6396 63.2507 60.6188 61.1834C60.6084 60.0433 60.6084 58.8997 60.6188 57.7596C60.6362 55.7094 60.9413 55.4038 63.0254 55.3488C63.5421 55.3351 64.0622 55.3488 64.5824 55.3488L64.5789 55.3454ZM64.52 57.8901C63.3756 57.6394 62.9318 58.1511 62.9318 59.3633C62.9318 60.5309 63.1814 61.1696 64.5512 61.1284C65.6816 61.0941 66.2399 60.8262 66.2156 59.5831C66.1914 58.4327 66.0076 57.6394 64.52 57.8901Z" fill="#D4D4D4"/>
<path d="M58.781 59.5694C58.781 62.2686 57.4344 63.617 54.7412 63.6147C52.0479 63.6124 50.6944 62.2903 50.6805 59.6483C50.6805 56.7706 52.1473 55.3328 55.081 55.3351C55.4832 55.3351 55.889 55.3282 56.2912 55.3385C58.4411 55.3866 58.7636 55.7094 58.7844 57.8557C58.7914 58.4258 58.7844 58.9959 58.7844 59.5659L58.781 59.5694ZM54.7689 57.8729C53.5205 57.6772 53.2084 58.3022 53.1842 59.4389C53.1564 60.6957 53.6003 61.1216 54.8799 61.1319C56.2773 61.1456 56.4542 60.4691 56.468 59.3324C56.4819 58.079 55.9098 57.7046 54.7689 57.8695V57.8729Z" fill="#D4D4D4"/>
<path d="M74.3612 54.456C71.6934 54.456 70.3595 53.1167 70.3595 50.4381C70.3595 47.716 71.7558 46.3549 74.5484 46.3549C77.1746 46.3549 78.4877 47.6358 78.4877 50.1977C78.4877 50.2561 78.4877 50.311 78.4877 50.3694C78.4877 53.0938 77.1133 54.456 74.3646 54.456H74.3612ZM75.8939 50.4175C76.1158 49.2877 75.5575 48.8687 74.3612 48.8618C73.0331 48.855 72.8978 49.5967 72.884 50.6304C72.8701 51.7087 73.2654 52.1517 74.3993 52.1654C75.6581 52.1826 76.0638 51.6366 75.8939 50.4175Z" fill="#D4D4D4"/>
<path d="M58.781 68.5667C58.781 71.2522 57.4448 72.5949 54.7724 72.5949C52.0398 72.5949 50.6736 71.2522 50.6736 68.5667C50.6736 65.8812 52.0653 64.5236 54.8487 64.4939C57.4725 64.4939 58.7833 65.8503 58.781 68.5633V68.5667ZM56.2739 68.5049C56.5374 67.3648 56.2322 66.7878 54.9284 66.7878C53.7321 66.7878 53.1599 67.0763 53.1772 68.4019C53.1946 69.6347 53.5899 70.1052 54.8625 70.1017C56.1039 70.1017 56.5478 69.6553 56.2704 68.5049H56.2739Z" fill="#D4D4D4"/>
<path d="M58.7844 50.3934C58.7879 54.7582 59.0965 54.4594 54.6371 54.456C51.9994 54.456 50.6805 53.1304 50.6805 50.4793C50.6805 47.7297 52.0364 46.3549 54.7481 46.3549C57.4598 46.3549 58.8053 47.7011 58.7844 50.3934ZM54.8036 52.1173C56.0068 52.2891 56.4715 51.7774 56.4611 50.5823C56.4507 49.3426 55.9514 48.8721 54.6961 48.8584C53.3853 48.8447 53.2119 49.5074 53.1946 50.5754C53.1738 51.7568 53.5899 52.3097 54.8036 52.1173Z" fill="#D4D4D4"/>
<path d="M60.6119 50.4037C60.6119 47.7022 61.9539 46.3515 64.6379 46.3515C67.3588 46.3515 68.7193 47.7217 68.7193 50.4621C68.7193 53.1224 67.4039 54.4525 64.7731 54.4525C60.3484 54.4491 60.6015 54.8028 60.6119 50.4037ZM64.5858 48.903C63.3895 48.7348 62.9318 49.2293 62.9318 50.4243C62.9318 51.6228 63.2751 52.1826 64.5928 52.1689C65.7649 52.1551 66.226 51.7945 66.2122 50.596C66.1983 49.4181 65.9348 48.6901 64.5824 48.903H64.5858Z" fill="#D4D4D4"/>
<path d="M64.5789 64.4939C67.3392 64.4939 68.7193 65.8824 68.7193 68.6594C68.7193 71.2854 67.3681 72.5983 64.6656 72.5983C61.9631 72.5983 60.6119 71.2568 60.6119 68.5736C60.6119 68.5152 60.6119 68.4602 60.6119 68.4019C60.6119 65.7988 61.9331 64.4973 64.5754 64.4973L64.5789 64.4939ZM66.1498 68.3847C66.3821 67.2961 65.9521 66.7878 64.6968 66.7913C63.497 66.7947 62.904 67.1209 62.9318 68.4293C62.956 69.5317 63.2161 70.1121 64.4714 70.0983C65.6573 70.0846 66.3925 69.8098 66.1498 68.3847Z" fill="#D4D4D4"/>
</g>
</g>
</svg>
