<svg width="83" height="77" viewBox="0 0 83 77" fill="none" xmlns="http://www.w3.org/2000/svg">
<g opacity="0.4">
<mask id="mask0_336_712" style="mask-type:alpha" maskUnits="userSpaceOnUse" x="0" y="0" width="83" height="77">
<rect width="83" height="76.6962" fill="#D9D9D9"/>
</mask>
<g mask="url(#mask0_336_712)">
<path d="M14.0191 62.1146C14.0191 47.2741 14.0191 32.4337 14.0191 17.5932C14.0858 17.4038 14.1622 17.2239 14.2289 17.025C15.0492 14.5437 17.1572 13 19.7993 13C37.0064 13 54.223 13 71.4301 13C73.7765 13 75.4934 14.0891 76.6284 16.1064C77.2007 17.1292 77.3247 18.2657 77.3343 19.4021C77.3438 24.1469 77.3343 28.8917 77.3343 33.6365C77.3343 34.1479 77.3343 34.6593 77.3343 35.1707C77.3343 35.559 77.5155 35.7389 77.9066 35.7389C78.3739 35.7389 78.8508 35.7295 79.3182 35.7484C81.512 35.8526 83 37.2353 83 39.2146C83 50.6646 83 62.124 83 73.574C83 75.4681 81.493 76.9929 79.5853 76.9929C68.0535 77.0024 56.5122 77.0024 44.9804 76.9929C43.1872 76.9929 41.7469 75.6954 41.5561 73.9339C41.3367 71.9166 41.4989 69.8805 41.4607 67.8538C41.4417 66.7173 41.4607 66.7173 40.3066 66.7078C33.3723 66.7078 26.4379 66.6983 19.5036 66.6983C18.6547 66.6983 17.863 66.4616 17.119 66.0922C15.4403 65.2588 14.5055 63.8477 14 62.1051L14.0191 62.1146ZM62.2638 74.54C67.8532 74.54 73.4426 74.54 79.0225 74.54C80.2244 74.54 80.5773 74.1896 80.6059 72.9963C80.6059 72.7501 80.6059 72.5038 80.6059 72.2576C80.6059 64.6811 80.6059 57.1046 80.6059 49.5281C80.6059 46.3176 80.6059 43.1071 80.6059 39.906C80.6059 38.5801 80.2244 38.2392 78.9176 38.2392C67.8341 38.2392 56.7506 38.2392 45.6576 38.2392C44.3032 38.2392 43.9598 38.5801 43.9598 39.9439C43.9598 50.9108 43.9598 61.8683 43.9598 72.8353C43.9598 74.2654 44.2459 74.5495 45.6957 74.5495C51.2184 74.5495 56.7411 74.5495 62.2542 74.5495L62.2638 74.54ZM45.6004 15.3866C37.3688 15.3866 29.1277 15.3866 20.8962 15.3866C17.5673 15.3866 16.3846 16.5609 16.3846 19.8472C16.3846 33.1913 16.3846 46.5449 16.3846 59.889C16.3846 60.1542 16.3846 60.4288 16.3846 60.694C16.4609 62.0862 16.9187 63.27 18.2636 63.9329C18.9218 64.2549 19.6371 64.3402 20.3525 64.3402C27.0865 64.3402 33.8206 64.3402 40.5546 64.3402C40.6214 64.3402 40.6881 64.3402 40.7549 64.3402C41.27 64.3875 41.5084 64.1697 41.4894 63.6488C41.4703 63.1374 41.4894 62.626 41.4894 62.1146C41.4894 61.0917 41.4894 61.0823 40.4211 61.0823C34.431 61.0823 28.441 61.0823 22.4414 61.0823C20.6482 61.0823 19.6562 60.1352 19.6562 58.3737C19.6467 47.9465 19.6467 37.5194 19.6562 27.0923C19.6562 25.2928 20.61 24.3742 22.4128 24.3742C37.8743 24.3742 53.3359 24.3742 68.7975 24.3742C70.6384 24.3742 71.5636 25.3023 71.5636 27.1396C71.5636 29.744 71.5731 32.3579 71.5636 34.9623C71.5636 35.5211 71.7257 35.7958 72.3267 35.7579C72.9276 35.72 73.538 35.7295 74.1485 35.7579C74.6731 35.7768 74.8543 35.559 74.8543 35.0381C74.8448 29.6209 74.8543 24.2132 74.8352 18.796C74.8352 17.025 73.6239 15.7275 71.8497 15.4813C71.411 15.4245 70.9531 15.3866 70.5144 15.3866C62.2065 15.3866 53.9082 15.3866 45.6004 15.3866ZM50.7892 31.193C52.6778 31.193 54.5568 31.193 56.4454 31.193C60.3752 31.193 64.2954 31.1836 68.2252 31.2025C68.8738 31.2025 69.1123 30.9942 69.0741 30.3502C69.0359 29.5546 69.0741 28.7496 69.0646 27.9446C69.0646 27.2122 68.6926 26.846 67.9486 26.846C56.5122 26.846 45.0662 26.846 33.6298 26.846C33.4772 26.846 33.315 26.8555 33.1624 26.846C32.7046 26.8176 32.5138 27.026 32.5234 27.4806C32.5329 28.3897 32.5234 29.3084 32.5234 30.2176C32.5234 31.1741 32.5234 31.1836 33.5058 31.1836C39.2669 31.1836 45.0376 31.1836 50.7987 31.1836L50.7892 31.193ZM50.7892 33.6838C49.8926 33.6838 48.996 33.6838 48.0994 33.6838C43.1872 33.6838 38.275 33.6838 33.3627 33.6743C32.7237 33.6743 32.4757 33.8637 32.5043 34.5172C32.552 35.4738 32.5234 36.4303 32.5043 37.3868C32.5043 37.8414 32.6855 38.0308 33.1434 38.0308C35.8331 38.0308 38.5229 38.0308 41.2127 38.0308C41.4894 38.0308 41.7469 37.9835 41.8995 37.7088C42.7579 36.184 44.141 35.7389 45.8102 35.7484C51.9529 35.7673 58.0955 35.7484 64.2477 35.7484C65.5926 35.7484 66.9375 35.7484 68.2824 35.7484C68.5209 35.7484 68.8452 35.8147 68.9501 35.559C69.1504 35.0286 69.1409 34.4509 68.9692 33.93C68.8356 33.5417 68.3778 33.6933 68.063 33.6933C62.3019 33.6933 56.5408 33.6933 50.7701 33.6933L50.7892 33.6838ZM37.035 40.5121C35.7568 40.5121 34.4787 40.5216 33.2006 40.5121C32.7141 40.5121 32.5043 40.6826 32.5138 41.1751C32.5329 42.1979 32.5329 43.2207 32.5138 44.2435C32.5043 44.7644 32.7046 44.9538 33.2292 44.9538C35.7378 44.9444 38.2559 44.9444 40.7644 44.9538C41.27 44.9538 41.5084 44.7834 41.4989 44.253C41.4798 43.2491 41.4798 42.2452 41.4989 41.2508C41.5084 40.7015 41.2891 40.4932 40.7454 40.5121C39.5149 40.5405 38.275 40.5121 37.0445 40.5121H37.035ZM36.9873 51.7727C38.2654 51.7727 39.5435 51.7727 40.8217 51.7727C41.27 51.7727 41.4894 51.6117 41.4894 51.1571C41.4894 50.0869 41.4894 49.0262 41.4894 47.956C41.4894 47.5014 41.2891 47.3215 40.8312 47.3215C38.275 47.3215 35.7282 47.331 33.172 47.3215C32.6664 47.3215 32.5043 47.5393 32.5138 48.0128C32.5329 49.0357 32.5329 50.0585 32.5138 51.0813C32.5043 51.6022 32.7141 51.7916 33.2292 51.7821C34.4787 51.7632 35.7378 51.7821 36.9873 51.7821V51.7727ZM36.9873 58.5915C38.2368 58.5915 39.4959 58.582 40.7454 58.5915C41.2509 58.5915 41.4989 58.44 41.4894 57.9096C41.4703 56.9057 41.4798 55.9113 41.4894 54.9074C41.4894 54.4244 41.2795 54.2256 40.8026 54.235C38.275 54.235 35.7473 54.2445 33.2101 54.235C32.676 54.235 32.5043 54.4623 32.5138 54.9643C32.5329 55.9397 32.5329 56.9247 32.5138 57.9002C32.5043 58.421 32.7141 58.6104 33.2292 58.601C34.4787 58.582 35.7378 58.601 36.9873 58.601V58.5915ZM26.0182 44.9349C27.1152 44.9349 28.2121 44.9159 29.309 44.9349C29.8336 44.9444 30.0243 44.736 30.0148 44.2246C29.9862 43.2018 29.9957 42.1789 30.0148 41.1561C30.0148 40.6636 29.8145 40.4837 29.3376 40.4932C27.1628 40.5026 24.9977 40.5026 22.8229 40.4932C22.3269 40.4932 22.1457 40.6921 22.1552 41.1656C22.1743 42.1884 22.1839 43.2112 22.1552 44.2341C22.1457 44.7644 22.3555 44.9444 22.8706 44.9349C23.9198 44.9159 24.9786 44.9349 26.0278 44.9349H26.0182ZM26.0755 51.7632C27.1724 51.7632 28.2693 51.7537 29.3662 51.7632C29.824 51.7632 30.0148 51.5927 30.0148 51.1287C30.0053 50.0585 30.0053 48.9883 30.0148 47.9276C30.0148 47.4541 29.7954 47.312 29.3567 47.312C27.1819 47.3215 25.0072 47.3215 22.8325 47.312C22.346 47.312 22.1457 47.492 22.1552 47.975C22.1743 48.9978 22.1839 50.0206 22.1552 51.0434C22.1362 51.6117 22.3842 51.7727 22.9183 51.7632C23.9675 51.7348 25.0263 51.7632 26.0755 51.7632ZM26.085 31.1836C27.1819 31.1836 28.2788 31.1836 29.3757 31.1836C29.8336 31.1836 30.0243 30.9942 30.0148 30.549C30.0053 29.5262 30.0053 28.5034 30.0148 27.4806C30.0148 27.026 29.824 26.846 29.3757 26.846C27.1819 26.846 24.9881 26.846 22.7943 26.846C22.3365 26.846 22.1457 27.0354 22.1552 27.49C22.1743 28.4939 22.1743 29.4883 22.1552 30.4922C22.1457 31.0131 22.346 31.212 22.8706 31.2025C23.9484 31.1836 25.0167 31.2025 26.0946 31.2025L26.085 31.1836ZM26.1422 33.6743C25.0453 33.6743 23.9484 33.6838 22.8515 33.6743C22.3842 33.6743 22.1457 33.8164 22.1552 34.3183C22.1743 35.3412 22.1743 36.364 22.1552 37.3868C22.1552 37.8414 22.346 38.0213 22.8038 38.0213C24.9977 38.0213 27.1915 38.0213 29.3853 38.0213C29.8431 38.0213 30.0243 37.813 30.0148 37.3679C30.0053 36.364 29.9957 35.3696 30.0148 34.3657C30.0243 33.8448 29.8145 33.6554 29.2994 33.6649C28.2502 33.6838 27.1915 33.6649 26.1422 33.6649V33.6743ZM26.085 58.582C27.1628 58.582 28.2311 58.5726 29.309 58.582C29.7763 58.582 30.0243 58.4494 30.0148 57.938C29.9957 56.9152 29.9957 55.8924 30.0148 54.8696C30.0148 54.415 29.824 54.2256 29.3757 54.2256C27.1819 54.2256 24.9881 54.2256 22.7943 54.2256C22.3365 54.2256 22.1552 54.4339 22.1648 54.879C22.1743 55.8829 22.1839 56.8773 22.1648 57.8812C22.1552 58.4021 22.3555 58.5915 22.8801 58.582C23.958 58.5631 25.0263 58.582 26.1041 58.582H26.085Z" fill="#D4D4D4"/>
<path d="M59.0207 56.5269C58.5057 56.5269 57.9811 56.5648 57.4755 56.5269C56.846 56.4701 56.5694 56.7353 56.5217 57.3414C56.3882 58.8283 56.2356 60.3057 56.0925 61.7926C55.8636 64.0466 55.6728 66.31 55.3866 68.5641C55.091 70.9128 52.8304 72.5228 50.236 72.3428C48.1185 72.1913 46.1822 70.1551 46.1631 68.0526C46.1631 67.2287 46.5256 66.7362 47.1933 66.651C47.8991 66.5658 48.3951 66.9919 48.5572 67.8064C48.8434 69.2175 49.5206 69.9373 50.6175 69.9846C51.9529 70.0509 52.8876 69.1986 53.0212 67.8253C53.3645 64.3118 53.7174 60.7887 54.0894 57.2751C54.1467 56.7542 53.9559 56.5364 53.4218 56.5459C52.5442 56.5459 51.6667 56.5837 50.7987 56.4985C49.8163 56.4038 49.3298 55.5893 49.7018 54.7938C49.9403 54.2919 50.36 54.0835 50.8941 54.0835C51.7907 54.0835 52.6873 54.0456 53.5839 54.0835C54.2134 54.1214 54.4328 53.8373 54.4805 53.288C54.6236 51.7632 54.7571 50.229 54.9097 48.7042C55.0623 47.1984 55.1863 45.6925 55.4248 44.1962C55.7586 42.0842 57.7045 40.3701 60.1653 40.4742C62.6357 40.5784 64.4766 42.4536 64.6388 44.8307C64.6865 45.5221 64.2096 46.1282 63.5419 46.2134C62.9505 46.2892 62.3782 45.8725 62.2161 45.2285C62.1398 44.9254 62.1302 44.6034 62.0348 44.3193C61.7201 43.3912 60.6995 42.7282 59.7933 42.8324C58.7346 42.9555 57.9334 43.6848 57.8189 44.7171C57.5328 47.3499 57.2752 49.9827 57.0082 52.6156C57.0082 52.6818 57.0082 52.7481 56.9986 52.8144C56.9223 53.6542 57.3038 54.074 58.1432 54.074C59.0589 54.074 59.9841 54.074 60.8998 54.074C61.7678 54.0835 62.321 54.557 62.3305 55.2579C62.3496 55.9303 61.8536 56.4417 61.0238 56.508C60.3561 56.5648 59.6789 56.5174 59.0112 56.5174C59.0112 56.5174 59.0112 56.5364 59.0112 56.5459L59.0207 56.5269Z" fill="#D4D4D4"/>
<path d="M74.9592 59.9553C74.9688 60.3436 74.6731 60.675 74.3583 60.997C73.2042 62.143 72.0596 63.3173 70.8768 64.4349C70.4667 64.8326 70.4095 65.0789 70.8578 65.4956C72.0024 66.5658 73.0897 67.6928 74.1962 68.7914C74.3583 68.9524 74.5205 69.1039 74.654 69.2743C75.0641 69.8047 75.0355 70.4866 74.6063 70.9222C74.1771 71.3579 73.4903 71.3863 72.9466 70.9791C72.7654 70.8465 72.6128 70.6855 72.4506 70.5245C71.3061 69.388 70.1519 68.2705 69.0264 67.1151C68.6926 66.7741 68.4827 66.7836 68.1584 67.1151C67.0329 68.261 65.8788 69.388 64.7342 70.515C64.5434 70.7044 64.3526 70.8938 64.1333 71.0548C63.6087 71.4242 62.9601 71.3768 62.5404 70.9506C62.1016 70.515 62.0635 69.9089 62.445 69.3691C62.5881 69.1702 62.7597 68.9997 62.941 68.8198C64.0474 67.7117 65.1443 66.5942 66.2794 65.5145C66.7086 65.1073 66.7658 64.8232 66.2985 64.3875C65.0776 63.2416 63.8948 62.0483 62.7216 60.8455C61.9204 60.0216 62.1779 58.8851 63.1985 58.6483C63.7517 58.5252 64.1523 58.8093 64.5053 59.1597C65.6975 60.3341 66.8994 61.5085 68.0726 62.7112C68.4732 63.1185 68.7307 63.09 69.1122 62.7112C70.2187 61.5747 71.3537 60.4667 72.4888 59.3492C72.7082 59.1313 72.9466 58.9135 73.2137 58.762C74.034 58.3263 74.9688 58.9135 74.9592 59.9363V59.9553Z" fill="#D4D4D4"/>
<path d="M57.6568 21.1163C53.5553 21.1163 49.4443 21.1163 45.3428 21.1163C44.3985 21.1163 43.8835 20.6901 43.8644 19.9325C43.8453 19.3453 44.1315 18.957 44.6751 18.7676C44.9994 18.654 45.3333 18.635 45.6671 18.635C53.6793 18.635 61.6819 18.635 69.6941 18.635C70.0089 18.635 70.3236 18.654 70.6288 18.7487C71.2202 18.9286 71.5254 19.3264 71.535 19.923C71.5445 20.4818 71.0962 20.9743 70.5048 21.0784C70.2473 21.1258 69.9707 21.1163 69.7036 21.1163C65.688 21.1163 61.6724 21.1163 57.6568 21.1163Z" fill="#D4D4D4"/>
<path d="M38.1319 21.1163C37.4165 21.1163 36.7011 21.1353 35.9858 21.1163C35.2036 21.0974 34.6981 20.6428 34.6504 19.9798C34.6027 19.3358 35.0605 18.7581 35.8332 18.6918C37.3688 18.5782 38.9236 18.5877 40.4592 18.6918C41.2318 18.7392 41.6897 19.3074 41.661 19.9609C41.6324 20.6428 41.0983 21.0974 40.278 21.1258C40.2303 21.1258 40.1921 21.1258 40.1445 21.1258C39.4768 21.1258 38.7996 21.1258 38.1319 21.1258V21.1163Z" fill="#D4D4D4"/>
<path d="M23.1568 21.1163C22.8038 21.1163 22.4414 21.1353 22.0885 21.1163C21.4017 21.069 20.9153 20.6238 20.858 20.0177C20.8008 19.4116 21.1823 18.8528 21.8596 18.7297C22.7657 18.5687 23.6814 18.5592 24.5875 18.7392C25.2456 18.8718 25.6081 19.3832 25.5604 19.9798C25.5127 20.5765 25.0835 21.0405 24.4254 21.0974C24.0057 21.1353 23.5764 21.0974 23.1568 21.0974V21.1163Z" fill="#D4D4D4"/>
<path d="M30.1006 21.1068C29.7 21.1068 29.2899 21.1353 28.8988 21.1068C28.2597 21.05 27.8019 20.586 27.7447 19.9988C27.6874 19.4305 28.0785 18.8812 28.7176 18.7487C29.6428 18.5592 30.5871 18.5592 31.5028 18.7487C32.1323 18.8812 32.5234 19.44 32.4661 20.0082C32.3994 20.5954 31.9511 21.05 31.3025 21.1068C30.9019 21.1447 30.5012 21.1068 30.1006 21.1068Z" fill="#D4D4D4"/>
</g>
</g>
</svg>
