<svg width="153" height="53" viewBox="0 0 153 53" fill="none" xmlns="http://www.w3.org/2000/svg">
<g clip-path="url(#clip0_494_4444)">
<path d="M52.3292 50.1207C52.5746 49.6299 52.6973 49.0778 52.6973 48.4029C52.6973 47.7281 52.5746 47.176 52.3292 46.6852C52.0838 46.1944 51.7157 45.8264 51.2863 45.581C50.8569 45.3356 50.3661 45.2129 49.814 45.2129C49.2619 45.2129 48.7711 45.3356 48.3417 45.581C47.9122 45.8264 47.5441 46.1944 47.2987 46.6852C47.0534 47.176 46.9307 47.7281 46.9307 48.4029C46.9307 49.0778 47.0534 49.6299 47.2987 50.1207C47.5441 50.6114 47.9122 50.9795 48.3417 51.2249C48.7711 51.4703 49.2619 51.593 49.814 51.593C50.1821 51.593 50.5502 51.5317 50.9182 51.409L51.409 52.0224H52.636L51.7158 50.9182C51.9611 50.6728 52.1452 50.4274 52.3292 50.1207ZM48.9551 50.182C48.7097 49.998 48.5257 49.8139 48.403 49.5072C48.2803 49.2005 48.219 48.8324 48.219 48.4029C48.219 47.9735 48.2803 47.6054 48.403 47.2987C48.5257 46.992 48.7097 46.7466 48.9551 46.6239C49.2005 46.5012 49.4459 46.3785 49.814 46.3785C50.1207 46.3785 50.4275 46.4398 50.6728 46.6239C50.9182 46.8079 51.1023 46.992 51.225 47.2987C51.3477 47.6054 51.409 47.9735 51.409 48.4029C51.409 48.8324 51.3477 49.2005 51.225 49.5072C51.1636 49.6912 51.0409 49.8139 50.9796 49.9366L50.5502 49.3232H49.4459L50.2434 50.3661C50.1207 50.3661 50.0594 50.4274 49.9367 50.4274C49.5072 50.4274 49.2005 50.3661 48.9551 50.182Z" fill="white"/>
<path d="M38.7714 45.2743H37.4832V51.4704H41.4707V50.4275H38.7714V45.2743Z" fill="white"/>
<path d="M58.8321 49.2005C58.8321 49.4459 58.7707 49.6299 58.6481 49.814C58.5254 49.998 58.4027 50.1207 58.2186 50.2434C58.0346 50.3661 57.7892 50.4275 57.5438 50.4275C57.2984 50.4275 57.053 50.3661 56.869 50.2434C56.6849 50.1207 56.5622 49.998 56.4396 49.814C56.3169 49.6299 56.2555 49.4459 56.2555 49.2005V45.2743H55.0286V49.3232C55.0286 49.7526 55.1513 50.1821 55.3353 50.4888C55.5193 50.8569 55.8261 51.1023 56.2555 51.2863C56.6236 51.4704 57.1144 51.5931 57.6052 51.5931C58.0959 51.5931 58.5867 51.4704 58.9548 51.2863C59.3229 51.1023 59.6296 50.8569 59.875 50.4888C60.1204 50.1207 60.1817 49.7526 60.1817 49.3232V45.2743H58.8934V49.2005H58.8321Z" fill="white"/>
<path d="M31.5324 45.2743L29.3853 51.4704H30.7962L31.2257 50.0594H33.4342L33.8636 51.4704H35.3973L33.2501 45.2743H31.5324ZM31.5938 49.0778L32.3299 46.7466H32.3913L33.1274 49.0778H31.5938Z" fill="white"/>
<path d="M9.38619 45.2743H8.0979V51.4704H9.38619V45.2743Z" fill="white"/>
<path d="M4.41712 45.6424C3.98769 45.397 3.43557 45.2743 2.82209 45.2743H0.552246V51.4704H2.76075C3.37422 51.4704 3.92634 51.3477 4.35577 51.1023C4.78521 50.8569 5.15329 50.4888 5.39868 50.0594C5.64407 49.5686 5.76676 49.0165 5.76676 48.403C5.76676 47.7895 5.64407 47.2374 5.39868 46.7466C5.15329 46.2558 4.84655 45.8878 4.41712 45.6424ZM4.29443 49.5072C4.17173 49.814 3.98769 49.998 3.68095 50.1207C3.43557 50.2434 3.06748 50.3048 2.6994 50.3048H1.90189V46.3785H2.76075C3.12883 46.3785 3.49691 46.4399 3.7423 46.5626C3.98769 46.6853 4.23308 46.9307 4.35577 47.1761C4.47847 47.4828 4.53982 47.8509 4.53982 48.2803C4.47847 48.8324 4.41712 49.2005 4.29443 49.5072Z" fill="white"/>
<path d="M23.2505 46.3785H25.0909V51.4704H26.4405V46.3785H28.281V45.2743H23.2505V46.3785Z" fill="white"/>
<path d="M20.9807 45.2743H19.6924V51.4704H20.9807V45.2743Z" fill="white"/>
<path d="M14.7848 49.1392H16.1344C16.1344 49.3846 16.073 49.63 15.9504 49.814C15.8277 49.998 15.705 50.1821 15.4596 50.2434C15.2755 50.3661 14.9688 50.4275 14.7234 50.4275C14.4167 50.4275 14.1099 50.3661 13.8645 50.1821C13.6192 49.998 13.4351 49.814 13.3124 49.5073C13.1897 49.2005 13.1284 48.8324 13.1284 48.403C13.1284 47.9736 13.1897 47.6055 13.3124 47.2988C13.4351 46.992 13.6192 46.7466 13.8645 46.6239C14.1099 46.4399 14.3553 46.3786 14.7234 46.3786C14.9074 46.3786 15.0301 46.3786 15.2142 46.4399C15.3369 46.5012 15.4596 46.5626 15.5823 46.6239C15.705 46.6853 15.7663 46.808 15.889 46.9307C15.9504 47.0534 16.0117 47.1761 16.073 47.2988H17.4227C17.3613 46.992 17.3 46.6853 17.116 46.4399C16.9933 46.1945 16.7479 45.9491 16.5638 45.7651C16.3184 45.581 16.073 45.4583 15.7663 45.3357C15.4596 45.213 15.1528 45.1516 14.7848 45.1516C14.3553 45.1516 13.9872 45.213 13.6192 45.3357C13.2511 45.4583 12.9443 45.7037 12.699 45.9491C12.4536 46.1945 12.2082 46.5626 12.0855 46.9307C11.9628 47.2988 11.8401 47.7895 11.8401 48.2803C11.8401 48.9551 11.9628 49.5073 12.2082 49.998C12.4536 50.4888 12.8216 50.8569 13.2511 51.1023C13.6805 51.3477 14.1713 51.4704 14.7848 51.4704C15.2755 51.4704 15.7663 51.3477 16.1957 51.1636C16.6252 50.9796 16.9319 50.6729 17.116 50.2434C17.3613 49.8753 17.484 49.3846 17.484 48.8324V48.0349H14.9074V49.1392H14.7848Z" fill="white"/>
<path d="M129.259 48.9551H131.897V47.8509H129.259V46.3785H132.081V45.2743H127.909V51.4704H132.142V50.4275H129.259V48.9551Z" fill="white"/>
<path d="M138.768 45.581C138.338 45.3356 137.847 45.2129 137.295 45.2129C136.743 45.2129 136.252 45.3356 135.823 45.581C135.393 45.8264 135.025 46.1944 134.78 46.6852C134.535 47.176 134.412 47.7281 134.412 48.4029C134.412 49.0778 134.535 49.6299 134.78 50.1207C135.025 50.6114 135.393 50.9795 135.823 51.2249C136.252 51.4703 136.743 51.593 137.295 51.593C137.847 51.593 138.338 51.4703 138.768 51.2249C139.197 50.9795 139.565 50.6114 139.81 50.1207C140.056 49.6299 140.179 49.0778 140.179 48.4029C140.179 47.7281 140.056 47.176 139.81 46.6852C139.565 46.1944 139.197 45.8264 138.768 45.581ZM138.645 49.5072C138.522 49.8139 138.338 50.0593 138.093 50.182C137.847 50.3661 137.602 50.4274 137.234 50.4274C136.866 50.4274 136.62 50.3661 136.375 50.182C136.13 49.998 135.946 49.8139 135.823 49.5072C135.7 49.2005 135.639 48.8324 135.639 48.4029C135.639 47.9735 135.7 47.6054 135.823 47.2987C135.946 46.992 136.13 46.7466 136.375 46.6239C136.62 46.4398 136.866 46.3785 137.234 46.3785C137.602 46.3785 137.847 46.4398 138.093 46.6239C138.338 46.8079 138.522 46.992 138.645 47.2987C138.768 47.6054 138.829 47.9735 138.829 48.4029C138.89 48.8324 138.829 49.2005 138.645 49.5072Z" fill="white"/>
<path d="M114.781 45.2743L112.634 51.4704H114.045L114.474 50.0594H116.682L117.112 51.4704H118.523L116.376 45.2743H114.781ZM114.842 49.0778L115.578 46.7466H115.64L116.376 49.0778H114.842Z" fill="white"/>
<path d="M125.884 45.2743H124.289L122.081 48.0349H122.02V45.2743H120.67V51.4704H122.02V49.7526L122.633 48.9551L124.351 51.4704H125.884L123.615 48.0963L125.884 45.2743Z" fill="white"/>
<path d="M142.51 51.4704H143.859V48.9551H146.374V47.8509H143.859V46.3785H146.62V45.2743H142.51V51.4704Z" fill="white"/>
<path d="M153 46.3785V45.2743H148.89V51.4704H150.178V48.9551H152.693V47.8509H150.178V46.3785H153Z" fill="white"/>
<path d="M106.438 46.3785H108.339V51.4704H109.628V46.3785H111.529V45.2743H106.438V46.3785Z" fill="white"/>
<path d="M86.3156 45.2743H85.0273V51.4704H86.3156V45.2743Z" fill="white"/>
<path d="M64.4145 45.2743L62.2673 51.4704H63.6783L64.1078 50.0594H66.3163L66.7457 51.4704H68.1567L66.0709 45.2743H64.4145ZM64.4758 49.0778L65.212 46.7466H65.2733L66.0095 49.0778H64.4758Z" fill="white"/>
<path d="M74.2301 49.2005H74.1688L71.4695 45.2743H70.3652V51.4704H71.6535V47.6055H71.7149L74.4142 51.4704H75.5184V45.2743H74.2301V49.2005Z" fill="white"/>
<path d="M77.7271 46.3785H79.6288V51.4704H80.9171V46.3785H82.8189V45.2743H77.7271V46.3785Z" fill="white"/>
<path d="M98.401 47.9736H98.3396L96.9286 45.2743H95.4563L97.7261 49.3232V51.4704H99.0144V49.3232L101.284 45.2743H99.8119L98.401 47.9736Z" fill="white"/>
<path d="M88.5242 46.3785H90.4259V51.4704H91.7142V46.3785H93.616V45.2743H88.5242V46.3785Z" fill="white"/>
<path d="M10.429 21.7783L18.8336 30.6123H20.0605L28.5265 21.7783V40.1211H38.8941V38.9555C38.7101 38.8328 38.5261 38.6488 38.342 38.5261C34.9679 35.5814 33.1889 31.3485 33.1889 26.3793C33.1889 20.5513 35.5201 16.3797 38.8941 13.7418V0.306763H35.2133L19.4471 17.484L3.68083 0.306763H0V40.1211H10.3677V21.7783H10.429Z" fill="white"/>
<path d="M59.9362 26.134H62.1447C63.249 17.8521 59.016 12.2081 49.5685 12.0854C45.7036 12.0854 41.7161 13.4351 38.8941 16.2571C36.6243 18.5883 35.0906 21.901 35.0906 26.3794C35.0906 30.6123 36.5016 34.0478 38.8941 36.5016C41.7161 39.385 45.949 40.9186 50.9182 40.9186C54.7217 40.8573 58.5252 39.8757 61.838 38.3421L61.7766 37.8513C60.3656 36.2563 59.2614 34.2931 58.6479 32.0846C56.5621 32.6368 53.8628 33.0662 51.5316 33.0662C48.2189 33.0662 45.2129 32.2687 44.7221 28.7105H58.0958V28.0357C58.0958 27.545 58.2798 27.0542 58.6479 26.6861C58.9546 26.318 59.4454 26.134 59.9362 26.134ZM53.5561 22.9439H44.7221C45.1515 20.6127 47.4827 19.4471 49.5072 19.4471C51.5316 19.4471 53.8628 20.4287 53.5561 22.9439Z" fill="white"/>
<path d="M67.85 20.674C68.1567 20.5513 68.4635 20.3672 68.7702 20.2445C68.8131 20.2016 68.8315 20.1648 68.8315 20.1218C68.8315 20.0605 68.7702 20.0605 68.7702 19.9991C68.7702 19.9991 68.7702 20.0605 68.8315 20.0605C68.8929 20.1218 68.8315 20.1832 68.7702 20.1832C68.4635 20.3672 68.1567 20.5513 67.85 20.674H67.7273C67.7886 20.7353 67.85 20.7353 67.85 20.674Z" fill="#575858"/>
<path d="M62.3289 35.5814C62.6969 36.0722 63.065 36.5016 63.4945 36.9311C63.1264 36.5016 62.6969 36.0722 62.3289 35.5814Z" fill="#575858"/>
<path d="M61.0405 33.2502C61.4086 34.1091 61.838 34.9066 62.3902 35.6428C61.838 34.8453 61.4086 34.0478 61.0405 33.2502Z" fill="#575858"/>
<path d="M84.4138 17.9747C84.5365 18.0974 84.5979 18.1588 84.7206 18.2815C84.5979 18.1588 84.4752 18.0361 84.4138 17.9747Z" fill="#575858"/>
<path d="M86.0701 20.1832C86.1314 20.2446 86.1314 20.3059 86.1928 20.3673C86.1314 20.3059 86.0701 20.2446 86.0701 20.1832Z" fill="#575858"/>
<path d="M86.4382 20.9807C86.4382 21.0421 86.4996 21.0421 86.4996 21.1034C86.4996 21.0605 86.4812 21.0237 86.4382 20.9807Z" fill="#575858"/>
<path d="M83.1256 16.9318C83.0029 16.8705 82.9415 16.8091 82.8188 16.7478C82.9415 16.8091 83.0642 16.8705 83.1256 16.9318Z" fill="#575858"/>
<path d="M82.2666 16.3798C82.3279 16.4411 82.4506 16.4411 82.512 16.5025C82.3893 16.4411 82.3279 16.3798 82.2666 16.3798Z" fill="#575858"/>
<path d="M83.3095 17.0546C83.2482 16.9932 83.1868 16.9932 83.1255 16.9319C83.1868 16.9319 83.2482 16.9932 83.3095 17.0546Z" fill="#575858"/>
<path d="M85.2114 18.8949C85.3341 19.0176 85.4568 19.2016 85.5182 19.3857C85.4568 19.2016 85.3341 19.0789 85.2114 18.8949Z" fill="#575757"/>
<path d="M84.6592 18.2201C84.7819 18.3428 84.9046 18.4655 85.0273 18.6495C84.9046 18.5268 84.7819 18.4041 84.6592 18.2201Z" fill="#575757"/>
<path d="M86.1316 20.3673C86.2543 20.5514 86.3156 20.7967 86.4383 20.9808C86.377 20.7967 86.2543 20.5514 86.1316 20.3673Z" fill="#575757"/>
<path d="M85.9475 33.8023C86.1929 33.4342 86.3769 33.0048 86.4996 32.6367C86.3156 33.0048 86.1316 33.3729 85.9475 33.8023Z" fill="#575757"/>
<path d="M82.512 16.5024C82.6347 16.5638 82.7574 16.6251 82.8801 16.7478C82.696 16.6251 82.6347 16.5638 82.512 16.5024Z" fill="#575757"/>
<path d="M86.4995 32.5754C86.6836 32.2686 86.8062 31.9006 86.9289 31.5325C86.8062 31.9006 86.6222 32.2686 86.4995 32.5754Z" fill="#575757"/>
<path d="M86.4996 21.1035C86.4996 21.0605 86.4812 21.0237 86.4383 20.9808C86.3156 20.7354 86.2542 20.5513 86.1315 20.3673C86.0702 20.3059 86.0702 20.2446 86.0089 20.1833C85.8862 19.9992 85.8248 19.8152 85.7021 19.6311C85.6408 19.5698 85.5794 19.4471 85.5181 19.3857C85.3954 19.2017 85.2727 19.079 85.2113 18.895C85.15 18.7723 85.0886 18.7109 84.966 18.6496C84.8433 18.5269 84.7206 18.4042 84.5979 18.2201C84.4752 18.0974 84.4138 18.0361 84.2911 17.9134C84.1684 17.7907 84.0457 17.668 83.9231 17.5453C83.8004 17.4226 83.6777 17.3613 83.555 17.2386C83.4323 17.1159 83.3096 17.0545 83.1869 16.9319C83.1255 16.8705 83.0642 16.8705 83.0028 16.8092C82.8801 16.7478 82.8188 16.6865 82.6961 16.6251C82.5734 16.5638 82.4507 16.5024 82.328 16.3797C82.2667 16.3184 82.144 16.3184 82.0826 16.257C81.9599 16.1957 81.8372 16.1343 81.7145 16.073C81.5919 16.0116 81.5305 15.9503 81.4078 15.9503C81.1011 15.8276 80.7943 15.7049 80.4876 15.5822H80.3649C80.3036 15.4595 80.1809 15.2141 80.0582 15.0301C79.8128 14.662 79.5674 14.2939 79.5674 14.2326C79.5674 14.1712 79.5061 14.1712 79.5061 14.1099C79.5061 14.1099 79.4447 14.1099 79.4447 14.0485C79.3834 14.0485 79.3834 13.9872 79.322 13.9872H79.2607C79.138 13.9872 79.0153 14.1099 78.9539 14.2939C78.9539 14.3553 78.9539 14.4166 79.0153 14.5393C79.138 14.7847 79.1993 14.9687 79.322 15.1528C79.3834 15.2755 79.3834 15.3368 79.2607 15.3982C78.9539 15.5209 78.7085 15.6436 78.4018 15.7663H78.2791L78.2178 15.7049C78.0951 15.4595 78.0337 15.2755 77.911 15.0301V14.9687C77.8497 14.9074 77.8497 14.846 77.7883 14.846L77.727 14.7847H77.4202C77.2362 14.846 77.1749 15.0301 77.2362 15.2755V15.3368C77.3589 15.5822 77.4202 15.7663 77.5429 16.0116C77.6043 16.073 77.5429 16.1343 77.4816 16.1957C77.1749 16.3184 76.8681 16.4411 76.5614 16.6251C76.5 16.6865 76.4387 16.6251 76.4387 16.5638V16.5024C76.316 16.257 76.2546 16.0116 76.132 15.8276C76.0706 15.7663 76.0706 15.7049 76.0093 15.6436C75.8252 15.5209 75.6412 15.5822 75.5185 15.7663C75.4571 15.8889 75.4571 16.0116 75.5185 16.1343C75.6412 16.3797 75.7025 16.5638 75.8252 16.8092C75.8866 16.9319 75.8252 16.9319 75.7639 16.9932C75.4571 17.1159 75.2117 17.2386 74.905 17.3613H74.7823C74.7823 17.3613 74.721 17.3613 74.721 17.2999C74.5983 17.0545 74.5369 16.8705 74.4142 16.6251C74.3529 16.5638 74.3529 16.5024 74.2915 16.5024C74.2302 16.4411 74.1075 16.4411 73.9848 16.4411C73.8008 16.5024 73.7394 16.6251 73.6781 16.7478C73.6781 16.8092 73.6781 16.8705 73.7394 16.9319V16.9932C73.8621 17.2386 73.9234 17.4226 74.0461 17.668C74.1075 17.7294 74.1075 17.7907 73.9848 17.7907C73.6781 17.9134 73.3713 18.0361 73.1259 18.1588C73.0646 18.2201 73.0032 18.2201 72.9419 18.1588C72.9419 18.1588 72.9419 18.0974 72.8805 18.0974C72.7579 17.8521 72.6965 17.668 72.5738 17.4226C72.5125 17.3613 72.5125 17.2999 72.4511 17.2999C72.2671 17.1772 72.083 17.2386 71.9603 17.4226C71.899 17.5453 71.899 17.668 71.9603 17.7294V17.7907C72.083 18.0361 72.1444 18.2201 72.2671 18.4655C72.3284 18.5882 72.3284 18.6496 72.2057 18.7109C71.899 18.8336 71.6536 18.9563 71.4082 19.079C71.3469 19.1404 71.2855 19.1404 71.2242 19.079C71.2242 19.079 71.2242 19.0177 71.1628 19.0177C71.1015 18.7723 70.9788 18.5882 70.8561 18.3428V18.2815C70.7947 18.2201 70.7947 18.1588 70.7334 18.1588L70.672 18.0974H70.6107C70.5494 18.0974 70.4267 18.0361 70.3653 18.0974C70.1813 18.1588 70.1199 18.3428 70.1813 18.5882V18.6496C70.304 18.895 70.3653 19.079 70.488 19.3244C70.5494 19.3857 70.488 19.4471 70.4267 19.5084C70.1199 19.6311 69.8745 19.7538 69.5678 19.8765C69.5065 19.9379 69.4451 19.8765 69.4451 19.8765L69.3838 19.8152C69.2611 19.5698 69.1997 19.3857 69.077 19.1404V19.079C69.077 19.0177 69.0157 19.0177 69.0157 18.9563C68.9543 18.895 68.8316 18.895 68.7089 18.895C68.6476 18.895 68.5862 18.9563 68.5249 19.0177C68.4635 19.079 68.4022 19.2017 68.4022 19.3244C68.4022 19.3857 68.4635 19.5084 68.4635 19.5698C68.5249 19.7538 68.5862 19.8765 68.7089 20.0606C68.7089 20.1219 68.7703 20.1219 68.7703 20.1833C68.8316 20.2446 68.8316 20.3059 68.7089 20.3059C68.4022 20.4286 68.0955 20.5513 67.7887 20.7354H67.7274V21.8396C69.9972 21.5942 72.4511 21.4715 74.3529 22.085C74.4142 22.085 74.4756 22.1464 74.5369 22.1464C74.5983 22.1464 74.721 22.2077 74.7823 22.2077L75.1504 22.3918C75.2117 22.3918 75.2117 22.4531 75.2731 22.4531L75.6412 22.6371C75.6412 22.6371 75.7025 22.6371 75.7025 22.6985C75.8252 22.8212 76.0093 22.8825 76.132 23.0052C77.1135 23.8641 77.727 25.1524 77.7883 27.1768C77.727 29.8148 76.0093 31.9619 73.3713 31.9619C71.2242 31.9619 69.6905 31.1031 69.1384 29.3853C69.0157 28.9559 68.9543 28.5265 68.9543 28.0357H59.9363C59.9363 28.2811 59.9976 28.4651 59.9976 28.7105C59.9976 29.0173 60.059 29.324 60.059 29.6307C60.1203 29.9375 60.1203 30.1829 60.1817 30.4896C60.243 30.7963 60.3044 31.1031 60.4271 31.4098C60.6111 32.0233 60.7951 32.6367 61.0405 33.2502V33.1889C61.4086 34.0477 61.838 34.8452 62.3902 35.5201C62.7583 36.0108 63.1263 36.4403 63.5558 36.8697C64.2919 37.6059 65.0894 38.2193 66.0097 38.7715C68.1568 40.0598 70.7947 40.7346 73.6781 40.7346C79.7514 40.7346 83.8617 37.7286 86.0089 33.6796C86.1929 33.3116 86.3769 32.8821 86.561 32.4527C86.6837 32.0846 86.8677 31.7165 86.9291 31.4098C87.4198 29.9988 87.6039 28.4651 87.6039 26.9928C87.6039 25.0297 87.2971 22.9439 86.4996 21.1035Z" fill="#575757"/>
<path d="M69.8745 16.257L69.0156 17.9134L68.8929 18.0974C68.9543 18.0974 69.0156 18.0361 69.077 18.0361C69.1383 18.0361 69.1383 17.9748 69.1997 17.9748C69.261 17.9748 69.261 17.9748 69.3223 17.9134C69.8745 17.668 70.4266 17.4226 70.9787 17.1772C71.0401 17.1772 71.0401 17.1159 71.1014 17.1159C71.6535 16.8705 72.2057 16.6251 72.7578 16.3797C72.8191 16.3797 72.8191 16.3184 72.8805 16.3184C73.4326 16.073 73.9847 15.8276 74.5369 15.5822C74.5982 15.5822 74.5982 15.5209 74.6596 15.5209C74.7209 15.5209 74.7209 15.4595 74.7823 15.4595C75.273 15.2141 75.8252 14.9687 76.3159 14.7233C76.3589 14.7233 76.3957 14.7049 76.4386 14.662C76.9908 14.4166 77.5429 14.1712 78.095 13.8645C78.1564 13.8645 78.1563 13.8031 78.2177 13.8031C78.7698 13.5578 79.3219 13.3124 79.8741 13.067C79.9354 13.067 79.9968 13.0056 80.0581 13.0056C80.3648 12.8829 80.6102 12.7602 80.917 12.6375H80.9783L86.8063 1.90178V0.429443H61.5312V8.83401H73.7393L69.8745 16.257Z" fill="#575757"/>
<path d="M141.405 0.245361H136.498C136.129 0.245361 135.884 0.49075 135.884 0.858834V40.1211C135.884 40.4891 136.129 40.7345 136.498 40.7345H141.405C141.773 40.7345 142.019 40.4891 142.019 40.1211V0.858834C142.019 0.49075 141.773 0.245361 141.405 0.245361Z" fill="white"/>
<path d="M149.074 0.245361H144.166C143.798 0.245361 143.552 0.49075 143.552 0.858834V40.1211C143.552 40.4891 143.798 40.7345 144.166 40.7345H149.074C149.442 40.7345 149.687 40.4891 149.687 40.1211V0.858834C149.687 0.49075 149.442 0.245361 149.074 0.245361Z" fill="white"/>
<path d="M84.3525 15.3982C87.7266 17.852 89.5057 21.901 89.5057 27.1155C89.5057 29.2626 89.0763 31.4098 88.2174 33.3729C92.1436 38.0966 98.1557 40.4892 104.168 40.4892C106.56 40.4892 109.008 40.0965 111.302 39.3174C108.192 37.5445 105.855 34.5569 104.947 31.0049C104.689 31.0233 104.425 31.0417 104.168 31.0417C98.0943 31.0417 94.2294 26.0112 94.2294 20.2446C94.2294 13.6804 98.1557 9.38613 104.168 9.38613C108.401 9.38613 111.407 10.9812 112.818 15.0301H113.677C115.002 14.5884 116.425 14.343 117.897 14.343C119.37 14.343 120.793 14.5884 122.118 15.0301H122.817C121.284 4.417 112.327 0 104.168 0C95.3337 0 86.4997 5.21451 84.3525 15.3982Z" fill="white"/>
<path d="M113.652 28.3178C112.903 28.3301 112.333 28.8884 112.327 29.6368C112.314 31.0232 112.327 32.4036 112.327 33.79C112.333 34.0845 112.431 34.3544 112.609 34.5875C112.903 34.974 113.314 35.1274 113.787 35.1274H117.658C118.59 35.1274 119.155 34.563 119.155 33.6366V29.7656C119.149 28.8822 118.584 28.3178 117.701 28.3178H115.725C115.038 28.3178 114.345 28.3056 113.652 28.3178Z" fill="#00A6B6"/>
<path d="M108.37 23.7537V25.7352C108.37 26.5449 108.916 27.14 109.72 27.1523C111.1 27.1707 112.474 27.1707 113.854 27.1523C114.627 27.1462 115.192 26.5634 115.192 25.7842C115.204 24.4285 115.198 23.0788 115.192 21.7231C115.186 20.9317 114.609 20.3489 113.818 20.3489C112.695 20.3489 111.578 20.3489 110.462 20.3489C109.597 21.2261 108.885 22.2568 108.37 23.3978V23.7475V23.7537Z" fill="#00A6B6"/>
<path d="M109.756 20.3489C108.94 20.3489 108.37 20.9317 108.37 21.7476V23.3978C108.885 22.2629 109.597 21.2261 110.462 20.3489C110.229 20.3489 109.989 20.3489 109.756 20.3489Z" fill="#00A6B6"/>
<path d="M121.682 38.4892C121.682 38.704 121.688 38.7101 121.891 38.6426C122.24 38.5383 122.578 38.4095 122.909 38.2684C123.289 38.1028 123.67 37.931 124.032 37.7163C124.087 37.6795 124.203 37.6611 124.185 37.5813C124.167 37.4954 124.056 37.5384 123.989 37.5384C123.891 37.5384 123.786 37.5445 123.688 37.5384C123.467 37.52 123.357 37.293 123.467 37.1089C123.535 36.9924 123.651 36.974 123.774 36.974H125.026C125.093 36.974 125.161 36.974 125.222 36.931C125.461 36.7224 125.707 36.52 125.952 36.3175C125.976 36.293 126.013 36.2685 125.995 36.2255C125.976 36.1887 125.933 36.1887 125.897 36.1887H124.001C123.289 36.704 122.51 37.1273 121.682 37.4525V38.4892Z" fill="#575757"/>
<path d="M115.235 19.2016H123.977C122.259 17.9686 120.167 17.2385 117.897 17.2385C116.437 17.2385 115.051 17.5391 113.787 18.079C113.916 18.7845 114.437 19.2016 115.235 19.2016Z" fill="#00A6B6"/>
<path d="M128.216 36.1826V40.1211C128.216 40.4891 128.461 40.7345 128.829 40.7345H133.737C134.105 40.7345 134.351 40.4891 134.351 40.1211V0.858834C134.351 0.49075 134.105 0.245361 133.737 0.245361H128.829C128.461 0.245361 128.216 0.49075 128.216 0.858834V19.2385C130.111 21.5451 131.259 24.4898 131.259 27.7044C131.259 30.919 130.118 33.8759 128.216 36.1826Z" fill="white"/>
<path d="M128.216 21.3059C128.087 21.0912 127.952 20.8826 127.805 20.674C127.651 20.4593 127.498 20.3673 127.259 20.3489C127.615 20.7967 127.927 21.2752 128.216 21.7721V21.2998V21.3059Z" fill="#00A6B6"/>
<path d="M129.811 27.7044C129.811 29.1154 129.553 30.4589 129.105 31.7104V32.2993C129.161 32.238 129.173 32.2319 129.173 32.2196C129.197 32.1705 129.222 32.1214 129.24 32.0662C129.829 30.5325 130.093 28.9436 130.032 27.2995C129.952 25.1217 129.345 23.1341 128.216 21.3059V21.7783C129.222 23.5267 129.811 25.545 129.811 27.7044Z" fill="#00A6B6"/>
<path d="M116.161 21.7967C116.192 23.0973 116.167 24.404 116.167 25.7045C116.167 26.5879 116.732 27.1585 117.615 27.1585C118.051 27.1585 118.486 27.1462 118.922 27.1585C119.597 27.1769 120.13 27.6676 120.216 28.3363C120.265 28.7167 120.235 29.097 120.235 29.4774C120.235 30.8577 120.247 32.2319 120.235 33.6122C120.235 34.0723 120.351 34.4649 120.688 34.7778C120.744 34.8269 120.817 34.925 120.885 34.8943C120.965 34.8637 120.922 34.7471 120.922 34.6735V28.2934C120.922 26.7413 122.081 25.5082 123.633 25.4407C124.596 25.3978 125.559 25.4039 126.516 25.4407C126.823 25.453 127.124 25.5327 127.4 25.6677C127.719 25.8211 127.989 26.0113 128.216 26.226V26.0665C127.866 23.858 126.835 21.8703 125.326 20.3428C122.756 20.3428 120.192 20.355 117.621 20.3428C116.744 20.3428 116.143 21.0299 116.161 21.7967Z" fill="#00A6B6"/>
<path d="M128.216 26.2259C128.216 26.2259 128.24 26.2443 128.253 26.2566C128.246 26.1952 128.228 26.1339 128.216 26.0664V26.2259Z" fill="#00A6B6"/>
<path d="M125.326 20.3428C126.835 21.8642 127.866 23.8518 128.216 26.0665V21.7783C127.927 21.2814 127.614 20.8029 127.259 20.355C127.228 20.355 127.203 20.3489 127.167 20.3489C126.553 20.3489 125.94 20.3489 125.326 20.3489V20.3428Z" fill="#00A6B6"/>
<path d="M128.216 21.7783V26.0665C128.228 26.1278 128.24 26.1892 128.253 26.2567C128.811 26.7904 129.099 27.4959 129.105 28.3731C129.118 29.367 129.105 30.3547 129.105 31.3485V31.7166C129.553 30.4651 129.811 29.1154 129.811 27.7106C129.811 25.5512 129.222 23.5267 128.216 21.7845V21.7783Z" fill="#00A6B6"/>
<path d="M128.216 29.3485V28.14C128.075 27.7044 127.811 27.3363 127.412 27.0357V27.0173C127.357 27.091 127.381 27.1584 127.381 27.2259C127.394 28.0664 127.412 28.9007 127.412 29.735C127.412 30.3546 127.295 30.9558 127.025 31.5141C126.584 32.4404 125.927 33.0355 124.811 32.9619C124.228 32.9251 123.774 32.692 123.406 32.2564C122.872 31.6245 122.627 30.8699 122.578 30.054C122.523 29.1399 122.566 28.2197 122.553 27.3057C122.553 27.2505 122.59 27.1646 122.523 27.14C122.461 27.1155 122.418 27.1891 122.375 27.232C121.903 27.6983 121.682 28.2688 121.682 28.9314V37.4525C122.51 37.1274 123.289 36.7041 124.001 36.1887H123.725C123.535 36.1887 123.418 36.0783 123.418 35.9127C123.418 35.747 123.529 35.6366 123.719 35.6244H124.719C126.553 34.0477 127.817 31.8454 128.216 29.3485Z" fill="#575757"/>
<path d="M128.216 29.3485C128.253 29.1092 128.296 28.87 128.314 28.6246C128.296 28.4528 128.265 28.2933 128.216 28.1338V29.3423V29.3485Z" fill="#575757"/>
<path d="M124.719 35.6243H126.492C126.608 35.6243 126.694 35.5937 126.768 35.5016C127.32 34.8575 127.811 34.1704 128.216 33.422V29.3485C127.817 31.8392 126.547 34.0416 124.719 35.6243Z" fill="#575757"/>
<path d="M128.216 33.422C128.216 33.422 128.246 33.3667 128.265 33.3361C128.314 33.2318 128.345 33.1336 128.345 33.0171V30.2503C128.345 29.7473 128.357 29.2381 128.332 28.735C128.332 28.6982 128.32 28.6675 128.314 28.6307C128.289 28.8761 128.253 29.1154 128.216 29.3546V33.4281V33.422Z" fill="#575757"/>
<path d="M126.234 19.2017H126.541C126.492 19.1404 126.473 19.1097 126.455 19.0913C125.467 18.1098 124.345 17.3184 123.087 16.7295C121.682 16.073 120.21 15.6865 118.658 15.5945C117.032 15.4964 115.449 15.705 113.909 16.2387C113.781 16.2816 113.756 16.3491 113.756 16.4718V16.5454C115.051 16.0669 116.437 15.7908 117.897 15.7908C121.142 15.7908 124.087 17.0914 126.234 19.2017Z" fill="#00A6B6"/>
<path d="M113.787 18.079C115.051 17.5392 116.437 17.2386 117.897 17.2386C120.167 17.2386 122.259 17.9686 123.977 19.2017H126.234C124.087 17.0913 121.142 15.7908 117.897 15.7908C116.437 15.7908 115.051 16.0668 113.756 16.5453V17.7232C113.756 17.852 113.768 17.9686 113.787 18.079Z" fill="#00A6B6"/>
<path d="M109.382 36.0292H109.327C109.259 36.0292 109.18 36.0047 109.112 36.0537H109.1C109.118 36.1396 109.186 36.1826 109.235 36.2317C110.689 37.6979 112.394 38.7346 114.37 39.3297C116.48 39.9616 118.603 40.0106 120.744 39.5015C120.866 39.4708 120.909 39.4278 120.909 39.2929V39.2193C119.946 39.4708 118.94 39.618 117.897 39.618C114.56 39.618 111.548 38.2438 109.382 36.0292Z" fill="#00A6B6"/>
<path d="M120.026 36.0292H111.578C113.339 37.3665 115.523 38.1702 117.897 38.1702C118.946 38.1702 119.952 38.0107 120.909 37.7224V36.9003C120.909 36.3605 120.566 36.0292 120.026 36.0292Z" fill="#00A6B6"/>
<path d="M117.897 38.1702C115.523 38.1702 113.339 37.3665 111.578 36.0292H109.382C111.548 38.2438 114.56 39.618 117.897 39.618C118.94 39.618 119.946 39.4708 120.909 39.2192V37.7224C119.952 38.0107 118.946 38.1702 117.897 38.1702Z" fill="#00A6B6"/>
<path d="M105.928 28.3179C105.793 28.3179 105.757 28.3547 105.769 28.4896C105.812 28.9682 105.861 29.4467 105.947 29.919C106.29 31.784 107.039 33.4833 108.18 35.0047C108.241 35.0783 108.296 35.1397 108.407 35.1397C108.468 35.1397 108.536 35.1397 108.597 35.1397C107.088 33.2502 106.149 30.8945 106.014 28.3179H105.928Z" fill="#00A6B6"/>
<path d="M111.229 33.7532V31.7349C111.229 31.054 111.235 30.3853 111.229 29.7105C111.216 28.8884 110.652 28.3179 109.836 28.3179H107.462C107.615 30.9129 108.707 33.2625 110.419 35.0109C110.486 34.9802 110.548 34.9495 110.609 34.9066C111.014 34.6305 111.229 34.244 111.229 33.7532Z" fill="#00A6B6"/>
<path d="M110.419 35.0109C108.707 33.2625 107.615 30.9129 107.462 28.3179H106.014C106.143 30.8945 107.088 33.2502 108.597 35.1397C109.002 35.1397 109.407 35.1397 109.812 35.1397C110.02 35.1397 110.229 35.1029 110.419 35.017V35.0109Z" fill="#00A6B6"/>
<path d="M107.339 21.7906C107.259 21.809 107.253 21.8642 107.229 21.901C107.051 22.2139 106.897 22.5329 106.756 22.858C106.18 24.1708 105.855 25.545 105.763 26.9805C105.75 27.1339 105.799 27.1646 105.947 27.1646C105.971 27.1646 105.99 27.1646 106.014 27.1584C106.094 25.3732 106.56 23.6923 107.339 22.1955V21.7844V21.7906Z" fill="#00A6B6"/>
<path d="M107.339 25.7413V22.1954C106.56 23.6923 106.094 25.3732 106.014 27.1584C106.793 27.1093 107.339 26.5388 107.339 25.7413Z" fill="#00A6B6"/>
<path d="M112.493 17.0239C112.493 16.8276 112.493 16.8276 112.308 16.9196C111.315 17.4349 110.419 18.079 109.597 18.8336C109.505 18.9195 109.407 19.0054 109.309 19.0913C109.321 19.1158 109.333 19.1342 109.345 19.1465H109.621C110.468 18.3306 111.437 17.6373 112.493 17.0975C112.493 17.073 112.493 17.0484 112.493 17.0239Z" fill="#00A6B6"/>
<path d="M111.345 19.1281C111.983 19.0361 112.468 18.5024 112.492 17.846C112.492 17.5944 112.492 17.3491 112.492 17.0975C111.431 17.6374 110.468 18.3306 109.621 19.1465H111.045C111.149 19.1465 111.247 19.1404 111.345 19.1281Z" fill="#00A6B6"/>
</g>
<defs>
<clipPath id="clip0_494_4444">
<rect width="153" height="52.0225" fill="white"/>
</clipPath>
</defs>
</svg>
