<svg width="55" height="55" viewBox="0 0 55 55" fill="none" xmlns="http://www.w3.org/2000/svg">
<path d="M0.0338445 36.5178C0.0338445 34.1733 0.110835 31.826 0.00464107 29.4841C-0.0511108 28.2733 0.39225 27.7529 1.50729 27.4608C6.48779 26.1571 11.4524 24.7923 16.4302 23.478C17.2665 23.2576 17.9169 22.9098 18.4904 22.2114C21.4346 18.6269 24.4081 15.0609 27.4452 11.5533C29.5372 9.13441 32.2054 8.66974 35.1018 10.0372C35.2611 10.1115 35.4177 10.1938 35.577 10.2708C37.9027 11.4153 37.7912 11.3542 39.0257 9.14237C39.7212 7.89176 40.7354 6.75 41.8159 5.79678C43.8018 4.04698 45.915 2.43525 48.0309 0.839452C49.7699 -0.472235 52.5734 -0.19609 53.9752 1.31474C55.7539 3.23447 55.0875 6.37296 52.6132 7.18812C49.5628 8.1918 46.4513 9.00961 43.3637 9.89911C43.1566 9.96018 42.9257 9.95753 42.7053 9.95222C41.1416 9.91505 40.5336 10.4328 40.1991 11.9596C40.0372 12.6977 40.6239 12.7668 40.9982 12.9633C43.3372 14.1873 45.7 15.3662 48.0469 16.5717C48.7557 16.9355 49.4672 17.3232 49.8761 18.048C50.553 19.2509 50.6884 20.5546 49.8761 21.6751C49.2495 22.538 49.6982 22.7478 50.3141 23.0956C51.5805 23.8125 52.815 24.5826 54.0893 25.2862C54.7398 25.6447 55.0052 26.0934 54.9999 26.8661C54.9654 31.8659 54.9654 36.863 54.9946 41.8628C54.9999 42.8878 54.7026 43.4374 53.6353 43.764C41.6911 47.4362 29.7629 51.1562 17.8399 54.8974C17.2612 55.0779 16.8417 55.0169 16.3585 54.7407C11.3488 51.8651 6.34443 48.9789 1.31083 46.1404C0.344462 45.5961 -0.0325269 44.9376 0.00729592 43.8171C0.0922512 41.3875 0.0338445 38.9527 0.0338445 36.5178ZM18.3576 52.3829C18.6284 52.3245 18.801 52.3032 18.9603 52.2528C29.9647 48.8195 40.9637 45.3757 51.9734 41.9611C52.7274 41.7274 52.8681 41.3318 52.8601 40.6255C52.8229 36.8657 52.7805 33.1059 52.8468 29.3461C52.8707 28.0291 52.4194 28.0556 51.3973 28.3849C47.0009 29.8001 42.5805 31.1436 38.1708 32.5191C31.9133 34.4733 25.6558 36.4302 19.4063 38.411C18.9656 38.5518 18.3364 38.5225 18.3417 39.3324C18.3683 43.6578 18.355 47.9831 18.355 52.3802L18.3576 52.3829ZM16.0134 28.738C16.0612 28.8124 16.109 28.8894 16.1594 28.9637C19.616 28.1087 23.0753 27.267 26.5293 26.3987C33.1877 24.7233 39.8434 23.0399 46.4964 21.3379C47.1947 21.16 48.0124 21.0697 48.1159 20.0607C48.2194 19.0676 47.4601 18.7756 46.8203 18.441C44.9832 17.4798 43.1168 16.577 41.269 15.6371C40.2336 15.1113 39.1743 14.1767 38.3752 15.9345C38.346 16.0008 38.2266 16.0247 38.1522 16.0699C34.5469 18.2047 30.947 20.3475 27.3364 22.4716C26.7018 22.846 25.9611 23.3771 25.4089 22.4026C24.8965 21.4972 25.5868 21.0378 26.2505 20.6263C26.5133 20.4643 26.7762 20.3023 27.039 20.1404C30.1664 18.2366 33.2885 16.3248 36.4239 14.4369C37.1965 13.9722 37.239 13.5846 36.4133 13.1783C35.5425 12.7508 34.6797 12.3021 33.7903 11.9171C31.9133 11.1046 30.3974 11.4843 29.062 13.0668C26.8956 15.6318 24.7187 18.1914 22.5709 20.775C20.37 23.4196 18.201 26.0854 16.0161 28.7433L16.0134 28.738ZM15.9603 51.9872C15.9603 47.4813 15.9497 43.2489 15.9709 39.0191C15.9736 38.3606 15.4824 38.2464 15.0895 38.0207C11.1179 35.7399 7.14089 33.4696 3.15861 31.2047C2.87985 31.0454 2.62498 30.7055 2.16569 30.9737C2.16569 35.0973 2.16835 39.2474 2.16038 43.3976C2.16038 43.8171 2.21613 44.1463 2.6356 44.3853C6.99487 46.86 11.3462 49.3533 15.9603 51.9872ZM35.0965 26.4943C35.6965 27.2006 35.7575 27.8857 35.0593 28.3902C34.3531 28.8973 33.7425 28.4114 33.1186 28.0715C32.6328 27.806 32.2266 27.275 31.5815 27.4237C30.2939 27.721 29.0116 28.0476 27.6257 28.3875C28.7992 29.585 28.8788 30.2887 28.0346 30.7719C27.3523 31.1622 26.7788 30.7639 26.3434 30.3949C24.2753 28.6398 22.2709 29.7417 20.0753 30.3418C20.3355 30.5887 20.447 30.7188 20.5824 30.8171C21.2169 31.2684 22.1196 31.6375 21.5514 32.6492C20.9382 33.7431 20.0621 33.2227 19.4249 32.7076C17.6063 31.2472 15.6895 30.9312 13.5683 31.9216C13.4913 31.9588 13.3957 31.9641 13.3081 31.9694C12.7055 32.0039 12.0736 32.1978 11.6462 31.5101C11.1975 30.7878 11.7125 30.3418 12.0816 29.8771C12.9895 28.7327 13.932 27.6122 14.8612 26.4837C14.8081 26.4094 14.755 26.3324 14.6993 26.258C11.2559 27.1741 7.81256 28.0901 4.04533 29.0912C8.3223 31.5313 12.2754 33.7591 16.1966 36.0452C16.9957 36.5099 17.6913 36.555 18.5594 36.2815C27.5355 33.4404 36.5248 30.6392 45.5062 27.8219C47.2398 27.2776 48.9681 26.7147 50.9831 26.0668C49.4991 25.2437 48.3177 24.5666 47.115 23.9294C46.5336 23.6214 42.9442 24.2453 42.5513 24.6994C42.4451 24.8215 42.4451 25.0286 42.3841 25.1933C41.9195 26.4412 41.5398 26.5899 40.3159 25.942C39.8062 25.6739 39.3628 25.3898 38.7151 25.5889C37.5841 25.9341 36.4213 26.173 35.0938 26.4996L35.0965 26.4943ZM43.6531 7.58375C46.3318 6.78452 49.0079 5.97999 51.692 5.19404C52.4539 4.971 52.7884 4.37888 52.7645 3.70976C52.738 3.00347 52.1937 2.49632 51.5114 2.32904C50.7787 2.14848 50.0327 2.17503 49.3663 2.66625C47.3885 4.13194 45.4557 5.65339 43.6531 7.58109V7.58375Z" fill="black"/>
</svg>
