<svg width="83" height="77" viewBox="0 0 83 77" fill="none" xmlns="http://www.w3.org/2000/svg">
<g opacity="0.4">
<mask id="mask0_336_735" style="mask-type:alpha" maskUnits="userSpaceOnUse" x="0" y="0" width="83" height="77">
<rect width="83" height="76.6962" fill="#D9D9D9"/>
</mask>
<g mask="url(#mask0_336_735)">
<path d="M20 40.1294C20 32.0565 20 23.9836 20 15.9107C20 12.3832 22.4163 10.0158 25.9534 10.0158C35.5631 10.0158 45.1728 10.0316 54.7825 10C56.7061 10 58.2799 10.6234 59.6152 11.9886C61.4911 13.9063 63.4066 15.7923 65.3302 17.6705C66.6417 18.9489 67.2776 20.4561 67.2617 22.2869C67.2299 26.6114 67.2537 30.9438 67.2617 35.2683C67.2617 35.4577 67.2855 35.6471 67.2458 35.8286C67.1345 36.4284 66.7847 36.7835 66.1568 36.8229C65.5766 36.8545 65.0679 36.4126 65.0202 35.8049C64.9804 35.2999 65.0043 34.7791 65.0043 34.2661C65.0043 30.2178 65.0043 26.1695 65.0043 22.1212C65.0043 21.1821 65.0043 21.1821 64.0346 21.1821C62.5085 21.1821 60.9903 21.1821 59.4642 21.1821C57.4612 21.1664 56.0225 19.7301 56.0066 17.7415C55.9987 16.179 55.9748 14.6244 56.0225 13.0619C56.0464 12.399 55.8238 12.2333 55.1959 12.2412C50.5063 12.2569 45.8246 12.2491 41.135 12.2491C36.1195 12.2491 31.104 12.2491 26.0885 12.2491C23.5927 12.2491 22.2574 13.5669 22.2574 16.0212C22.2574 32.1196 22.2574 48.226 22.2574 64.3245C22.2574 66.7393 23.6086 68.0966 26.0329 68.0966C31.7081 68.0966 37.3754 68.0966 43.0506 68.0966C43.2811 68.0966 43.5195 68.0808 43.7501 68.1045C44.3541 68.1755 44.7913 68.6727 44.7516 69.2488C44.7118 69.8643 44.3462 70.2194 43.7421 70.3141C43.607 70.3378 43.4639 70.3141 43.3208 70.3141C37.582 70.3141 31.8353 70.3141 26.0965 70.3141C22.3289 70.322 20 68.0098 20 64.2772C20 56.2279 20 48.1787 20 40.1215V40.1294ZM58.256 14.0483C58.256 15.3346 58.2322 16.6288 58.264 17.923C58.2799 18.507 58.6693 18.9094 59.2416 18.9331C60.5611 18.9804 61.8885 18.9489 63.2318 18.9489C61.5546 17.2996 59.9173 15.6897 58.256 14.0562V14.0483Z" fill="#D4D4D4"/>
<path d="M62.7469 51.6825C62.7469 53.9631 62.7628 56.2437 62.731 58.5164C62.731 59.0452 62.8741 59.1714 63.3987 59.1714C67.9214 59.1478 72.4441 59.1635 76.9588 59.1635C78.1511 59.1635 78.5088 59.5187 78.4929 60.6945C78.4054 68.5149 72.3487 75.4988 64.5512 76.7614C55.3707 78.2529 47.0328 72.6184 45.0775 63.5906C43.1778 54.8548 49.0517 45.8428 57.8745 43.941C59.0429 43.6885 60.2193 43.5228 61.4195 43.5228C62.3257 43.5228 62.7469 43.9331 62.7469 44.8406C62.7469 47.1212 62.7469 49.4019 62.7469 51.6746V51.6825ZM60.4975 53.2923C60.4975 50.988 60.4896 48.6837 60.5054 46.3873C60.5054 45.9296 60.4101 45.8192 59.9252 45.8665C51.9052 46.5609 45.8167 54.5155 47.1679 62.5569C48.6543 71.3952 57.5884 76.8403 66.133 74.0862C71.9036 72.2238 75.5122 67.2365 76.1401 62.0913C76.2196 61.4678 76.0288 61.381 75.4645 61.381C70.9656 61.4047 66.4668 61.3968 61.968 61.3968C60.887 61.3968 60.5054 61.0101 60.5054 59.9211C60.5054 57.7115 60.5054 55.5019 60.5054 53.2923H60.4975Z" fill="#D4D4D4"/>
<path d="M73.994 56.9224C71.4902 56.9224 68.9785 56.9224 66.4748 56.9224C65.3858 56.9224 65.0043 56.5436 65.0043 55.4546C65.0043 50.4751 65.0043 45.4956 65.0043 40.5161C65.0043 39.4271 65.3938 39.0404 66.4748 39.0483C74.3279 39.0641 81.5053 45.18 82.7373 52.8978C82.8804 53.7974 83.0076 54.6891 82.9996 55.5966C82.9917 56.4883 82.5704 56.9066 81.6564 56.9145C79.1049 56.9145 76.5455 56.9145 73.994 56.9145V56.9224ZM73.9145 54.6891C75.9732 54.6891 78.0398 54.6891 80.0984 54.6891C80.5197 54.6891 80.7661 54.6575 80.6389 54.1288C80.4959 53.5449 80.4561 52.9372 80.321 52.3532C78.9618 46.5531 73.6045 41.8656 67.8419 41.3842C67.2934 41.3368 67.2378 41.4947 67.2378 41.9602C67.2537 45.9849 67.2537 50.0016 67.2378 54.0262C67.2378 54.5155 67.3173 54.7128 67.8737 54.697C69.8847 54.6575 71.9036 54.6812 73.9145 54.6812V54.6891Z" fill="#D4D4D4"/>
<path d="M44.0759 21.1821C43.5593 21.1821 43.0506 21.1979 42.5339 21.1821C41.8345 21.1585 41.3576 20.6771 41.3735 20.0458C41.3894 19.4381 41.8504 18.9725 42.518 18.9647C43.9965 18.9489 45.4669 18.9489 46.9453 18.9647C47.6766 18.9725 48.1058 19.4145 48.1138 20.1563C48.1297 21.6004 48.1297 23.0445 48.1138 24.4808C48.1138 25.1831 47.621 25.6566 46.9851 25.6487C46.3413 25.6487 45.8961 25.1752 45.8723 24.465C45.8564 23.9599 45.8723 23.4549 45.8723 22.7289C45.308 23.3049 44.8787 23.7547 44.4416 24.1888C43.0188 25.6013 41.596 27.0218 40.1653 28.4344C39.3704 29.2156 38.8538 29.2156 38.0748 28.4344C37.4469 27.8109 36.7872 27.2112 36.199 26.5483C35.8175 26.1222 35.6108 26.2405 35.269 26.5878C33.5283 28.3476 31.7637 30.0837 30.0071 31.8277C29.6415 32.1907 29.252 32.4669 28.7036 32.3012C27.8531 32.0486 27.6067 31.078 28.2426 30.4072C28.8467 29.7601 29.4984 29.1525 30.1264 28.5291C31.6684 26.9981 33.2104 25.4672 34.7524 23.9441C35.4757 23.226 36.0003 23.226 36.7395 23.9362C37.431 24.5991 38.0987 25.2778 38.7743 25.9564C38.9651 26.1458 39.1081 26.3273 39.3943 26.0433C40.976 24.465 42.5737 22.9104 44.1713 21.34C44.1395 21.2926 44.1077 21.2374 44.0759 21.19V21.1821Z" fill="#D4D4D4"/>
<path d="M44.7516 34.5897C44.7516 32.7983 44.7516 31.0149 44.7516 29.2235C44.7516 28.3081 45.1649 27.8977 46.0631 27.8898C47.4461 27.8898 48.8212 27.8898 50.2042 27.8898C51.0706 27.8898 51.4919 28.3081 51.4919 29.1761C51.4919 32.7746 51.4998 36.381 51.4919 39.9795C51.4919 40.8712 51.0547 41.2737 50.1406 41.2816C48.7814 41.2816 47.4223 41.2816 46.071 41.2816C45.1649 41.2816 44.7516 40.8633 44.7516 39.9558C44.7516 38.1645 44.7516 36.381 44.7516 34.5897ZM47.001 34.5186C47.001 35.4972 47.001 36.4678 47.001 37.4464C47.001 39.0799 47.001 39.0483 48.6304 39.072C49.2027 39.0799 49.2663 38.8668 49.2663 38.3854C49.2425 36.1758 49.2584 33.9662 49.2584 31.7645C49.2584 30.0916 49.2584 30.1073 47.5812 30.1073C47.1361 30.1073 46.9771 30.2178 46.9851 30.6834C47.0169 31.9618 46.993 33.2402 46.993 34.5186H47.001Z" fill="#D4D4D4"/>
<path d="M35.7539 36.2784C35.7539 35.0237 35.7539 33.769 35.7539 32.5142C35.7539 31.6619 36.1831 31.2437 37.0495 31.2358C38.4564 31.2279 39.8553 31.2279 41.2622 31.2358C42.0491 31.2358 42.4862 31.6619 42.4942 32.4353C42.5101 34.9685 42.5101 37.5016 42.4942 40.0347C42.4942 40.8476 42.0491 41.2737 41.2304 41.2816C39.8235 41.2895 38.4246 41.2895 37.0177 41.2816C36.1593 41.2816 35.7539 40.8476 35.7539 39.9716C35.7539 38.7405 35.7539 37.5095 35.7539 36.2784ZM38.0033 36.2548C38.0033 36.6493 38.0033 37.0439 38.0033 37.4385C38.0033 39.072 38.0033 39.0483 39.6327 39.0641C40.1097 39.0641 40.2845 38.9615 40.2686 38.4565C40.2289 37.3438 40.2607 36.2232 40.2607 35.1105C40.2607 33.406 40.2607 33.4138 38.52 33.4533C38.1384 33.4533 37.9795 33.548 37.9954 33.9583C38.0271 34.7238 38.0033 35.4893 38.0033 36.2548Z" fill="#D4D4D4"/>
<path d="M36.3023 47.9893C33.5601 47.9893 30.8258 47.9893 28.0836 47.9893C27.5511 47.9893 27.1218 47.8472 26.8675 47.3422C26.4701 46.5373 27.0424 45.756 28.0598 45.756C30.9133 45.756 33.7747 45.756 36.6282 45.756C39.2989 45.756 41.9696 45.756 44.6323 45.756C45.3874 45.756 45.8802 46.2295 45.8644 46.8924C45.8485 47.5316 45.3795 47.9498 44.6562 47.9814C44.5608 47.9814 44.4654 47.9814 44.378 47.9814C41.6835 47.9814 38.9969 47.9814 36.3023 47.9814V47.9893Z" fill="#D4D4D4"/>
<path d="M26.7562 37.9041C26.7562 37.2096 26.7483 36.5073 26.7562 35.8128C26.7721 35.0316 27.1775 34.5976 27.9644 34.5897C29.411 34.5739 30.8656 34.5739 32.3122 34.5897C33.0514 34.5976 33.4806 35.0316 33.4886 35.7734C33.5045 37.2096 33.5045 38.6537 33.4886 40.09C33.4806 40.8633 33.0355 41.2737 32.2486 41.2816C30.8179 41.2895 29.3951 41.2974 27.9644 41.2816C27.1775 41.2737 26.7642 40.8397 26.7483 40.0663C26.7403 39.3482 26.7483 38.6301 26.7483 37.9041H26.7562ZM30.0866 39.0562C30.8709 39.0562 31.2603 38.5538 31.255 37.5489C31.255 37.0597 30.741 36.8177 29.713 36.8229C28.9897 36.8229 29.0295 36.8229 28.9897 38.4328C28.9579 39.5297 29.7687 38.8589 30.0946 39.0562H30.0866Z" fill="#D4D4D4"/>
<path d="M34.037 61.3889C32.0737 61.3889 30.1025 61.3889 28.1392 61.3889C27.2411 61.3889 26.7403 60.9786 26.7483 60.2683C26.7483 59.566 27.257 59.1557 28.1472 59.1557C32.0817 59.1557 36.0082 59.1557 39.9427 59.1557C40.8409 59.1557 41.3417 59.5423 41.3655 60.2447C41.3894 60.9628 40.8648 61.3889 39.9348 61.3889C37.9715 61.3889 36.0003 61.3889 34.037 61.3889Z" fill="#D4D4D4"/>
<path d="M31.2471 52.4637C32.2963 52.4637 33.3534 52.4637 34.4026 52.4637C35.2372 52.4637 35.73 52.8741 35.7459 53.5527C35.7618 54.2314 35.2531 54.6891 34.4424 54.6891C32.3122 54.6891 30.19 54.6891 28.0598 54.6891C27.249 54.6891 26.7403 54.2393 26.7562 53.5606C26.7642 52.8741 27.257 52.4716 28.0916 52.4637C29.1408 52.4637 30.1979 52.4637 31.2471 52.4637Z" fill="#D4D4D4"/>
<path d="M58.264 27.882C57.8666 27.882 57.4691 27.9056 57.0717 27.882C56.4279 27.8346 55.9828 27.3375 55.9987 26.7298C56.0146 26.1537 56.4517 25.6881 57.0797 25.6645C57.8507 25.6329 58.6217 25.6329 59.3927 25.6645C60.0444 25.6881 60.4975 26.1695 60.4975 26.7772C60.4975 27.3848 60.0524 27.8425 59.3847 27.882C59.0111 27.9056 58.6376 27.882 58.264 27.882Z" fill="#D4D4D4"/>
<path d="M58.264 34.5818C57.8666 34.5818 57.4691 34.6054 57.0717 34.5818C56.4517 34.5423 56.0225 34.0846 56.0066 33.5006C55.9907 32.893 56.4358 32.388 57.0876 32.3643C57.8586 32.3327 58.6296 32.3327 59.4006 32.3643C60.0524 32.388 60.5054 32.8772 60.5054 33.477C60.5054 34.0767 60.0444 34.5502 59.3927 34.5818C59.0191 34.6054 58.6455 34.5818 58.2719 34.5818H58.264Z" fill="#D4D4D4"/>
<path d="M58.264 39.0562C58.6614 39.0562 59.0588 39.0325 59.4562 39.0562C60.0683 39.1036 60.4975 39.577 60.4975 40.161C60.4975 40.7371 60.0603 41.2421 59.4562 41.2658C58.6376 41.2974 57.8189 41.3132 57.0081 41.2579C56.404 41.2185 56.0464 40.816 56.0066 40.2005C55.9669 39.6244 56.412 39.1193 57.0081 39.0562C57.4214 39.0167 57.8507 39.0562 58.264 39.0562Z" fill="#D4D4D4"/>
<path d="M40.2766 52.4637C40.674 52.4637 41.0714 52.4401 41.4688 52.4637C42.065 52.5111 42.518 53.0003 42.5021 53.5764C42.4783 54.1998 42.1206 54.6102 41.5324 54.6654C40.6978 54.7365 39.8553 54.7207 39.0128 54.6733C38.4166 54.6418 37.9954 54.0973 38.0113 53.5291C38.0351 52.9451 38.4723 52.5032 39.0922 52.4637C39.4897 52.4401 39.8871 52.4637 40.2845 52.4637H40.2766Z" fill="#D4D4D4"/>
</g>
</g>
</svg>
