<svg width="83" height="77" viewBox="0 0 83 77" fill="none" xmlns="http://www.w3.org/2000/svg">
<g opacity="0.4">
<mask id="mask0_336_730" style="mask-type:alpha" maskUnits="userSpaceOnUse" x="0" y="0" width="83" height="77">
<rect width="83" height="76.6962" fill="#D9D9D9"/>
</mask>
<g mask="url(#mask0_336_730)">
<path d="M47.8338 48.5142C47.8338 54.7218 47.8338 60.9293 47.8338 67.1369C47.828 73.8924 44.8496 76.9408 38.2718 76.9466C36.932 76.9466 35.5923 76.9758 34.2526 76.9408C29.6872 76.8126 26.0705 73.2862 26.0475 68.6582C25.9785 55.1764 25.99 41.6946 26.0475 28.2186C26.0648 24.6048 28.865 22.2034 30.3082 19.2133C31.6824 16.3747 33.4706 13.7401 35.1208 11.0356C36.4663 8.82652 37.4725 8.77406 38.7605 10.9132C41.4744 15.4479 44.1021 20.0351 46.7758 24.5932C47.5808 25.9687 47.8683 27.4259 47.8568 29.0288C47.805 35.5278 47.8338 42.0268 47.8338 48.52V48.5142ZM28.7615 46.2643C28.7615 51.4985 28.7787 56.7385 28.75 61.9727C28.7442 63.3541 28.7672 64.4382 30.6647 64.3799C32.4011 64.3275 32.3896 63.2841 32.3896 62.0543C32.3781 51.4868 32.3781 40.9135 32.3896 30.3461C32.3896 29.0638 32.2976 28.1079 30.6014 28.0962C28.957 28.0846 28.7385 28.9122 28.75 30.2645C28.7902 35.5978 28.7672 40.931 28.7615 46.2643ZM38.7145 46.4567C38.7145 41.0301 38.703 35.6036 38.7202 30.1771C38.7202 28.9938 38.6052 28.1254 37.0643 28.1021C35.5406 28.0846 35.0863 28.7024 35.0921 30.1712C35.1323 40.8319 35.1208 51.4926 35.0978 62.1534C35.0978 63.4648 35.2416 64.3741 36.9148 64.3799C38.5995 64.3857 38.726 63.459 38.7202 62.1592C38.6915 56.925 38.7087 51.6908 38.7087 46.4567H38.7145ZM45.1083 46.2352C45.1083 41.0942 45.1141 35.9591 45.1026 30.8182C45.1026 29.5068 45.4533 28.0321 43.2396 28.0904C41.2732 28.1429 41.4687 29.4018 41.4687 30.6667C41.4687 41.0418 41.4629 51.411 41.4687 61.7861C41.4687 63.0393 41.2674 64.3216 43.2339 64.3741C45.4361 64.4324 45.1026 62.9694 45.1083 61.6463C45.1198 56.5053 45.1083 51.3702 45.1083 46.2293V46.2352ZM36.886 74.1255C38.0303 74.1255 39.1745 74.178 40.313 74.1139C42.6991 73.9798 44.1424 72.476 44.9301 70.3835C45.7696 68.1394 45.0451 67.1719 42.7049 67.1486C39.1802 67.1194 35.6498 67.0786 32.1309 67.1777C31.0212 67.2127 29.4285 66.385 28.8822 68.0054C28.3705 69.5325 28.9915 70.978 30.0264 72.2603C31.9009 74.586 34.4423 74.1139 36.886 74.1197V74.1255ZM30.3657 25.1119H44.0446C42.3542 22.9145 42.4059 19.9302 38.7892 19.8952C34.7528 19.8544 31.1707 19.8777 30.3714 25.1119H30.3657ZM34.6608 16.9168C36.311 17.3073 37.6163 17.3073 39.2492 16.9226C38.3867 15.6519 37.6795 13.8101 37.047 13.8334C35.6843 13.8917 35.6383 15.751 34.6608 16.9109V16.9168Z" fill="#D4D4D4"/>
<path d="M54.7566 42.9128C54.7566 32.526 54.8199 22.1393 54.7049 11.7584C54.6819 9.59008 55.2454 8.9664 57.4073 9.00138C65.0661 9.13544 72.7249 9.11795 80.3838 9.01303C82.3732 8.98389 83.0057 9.57259 83 11.6185C82.9367 32.5843 82.9367 53.5502 82.9942 74.5161C82.9942 76.4337 82.3905 77.0049 80.5218 76.9874C72.7652 76.9 65.0086 76.8825 57.2578 76.9991C55.2166 77.0282 54.6991 76.3696 54.7164 74.3703C54.8084 63.8903 54.7566 53.4045 54.7566 42.9245V42.9128ZM57.4993 42.9128C57.4993 52.4311 57.5281 61.9494 57.4706 71.4676C57.4591 73.1813 57.712 74.2013 59.759 74.1721C65.8884 74.0789 72.0235 74.1197 78.1528 74.1488C79.5558 74.1547 80.1883 73.6942 80.2458 72.1438C80.3608 68.9321 80.447 68.9496 76.1001 68.7981C75.1341 68.7631 73.8577 69.2061 73.8404 67.4342C73.8232 65.6622 75.1054 66.1052 76.0714 66.0294C76.7384 65.977 77.4168 65.9653 78.0838 66.0178C79.711 66.1577 80.3665 65.4233 80.2285 63.7971C80.1538 62.9286 80.1538 62.0426 80.2285 61.1741C80.3723 59.5596 79.78 58.8951 78.1183 58.9825C75.8241 59.0991 73.5184 59.0175 71.2185 59C70.2123 58.9942 69.0623 59.2973 69.1198 57.5195C69.1715 55.9283 70.2065 56.2197 71.1092 56.2081C73.0239 56.1789 74.9674 56.0041 76.8534 56.2431C79.7455 56.6044 80.3033 55.3687 80.3205 52.6584C80.3378 49.8431 79.5213 48.724 76.7614 49.1612C76.2036 49.2486 75.6114 49.1437 75.0421 49.1495C73.9842 49.1612 73.8232 48.52 73.8404 47.6224C73.8577 46.7831 74.1682 46.3576 75.0191 46.3692C75.6919 46.3809 76.3704 46.276 77.0316 46.3692C79.4465 46.7306 80.4643 45.9787 80.286 43.2625C80.0445 39.5613 80.24 39.5496 76.4796 39.5438C74.7547 39.5438 73.0297 39.5729 71.3047 39.5321C70.3158 39.5088 69.091 39.8236 69.1485 38.0575C69.2003 36.4779 70.3158 36.7752 71.1955 36.7577C73.4954 36.7052 75.7954 36.7577 78.0953 36.7111C78.8198 36.6994 79.9295 36.9151 80.033 35.9533C80.2228 34.1406 80.4643 32.1763 79.9698 30.486C79.573 29.1337 77.7676 30.0547 76.6176 29.7924C75.5941 29.5592 73.8347 30.6026 73.8807 28.376C73.9209 26.1786 75.6689 27.2977 76.6866 27.0237C77.0431 26.9247 77.4571 26.9655 77.8308 27.0121C79.7455 27.2627 80.4585 26.3768 80.2343 24.4999C80.1538 23.8296 80.1595 23.136 80.2343 22.4657C80.4528 20.6005 79.7743 19.8195 77.8423 19.936C75.5481 20.0759 73.2424 19.9535 70.9482 19.971C69.9133 19.9768 69.0795 19.9477 69.137 18.473C69.1888 17.1324 69.9823 17.1849 70.8677 17.1849C73.1677 17.1849 75.4791 17.0508 77.7618 17.2257C79.9123 17.3889 80.263 16.398 80.2688 14.5037C80.2803 12.5569 79.803 11.7467 77.7158 11.7875C71.874 11.9099 66.0264 11.9216 60.1845 11.7875C57.9823 11.735 57.4418 12.5103 57.4648 14.6377C57.5626 24.0569 57.5108 33.4819 57.5108 42.9011L57.4993 42.9128Z" fill="#D4D4D4"/>
</g>
</g>
</svg>
