<svg width="24" height="24" viewBox="0 0 24 24" fill="none" xmlns="http://www.w3.org/2000/svg">
<g clip-path="url(#clip0_201_7299)">
<path d="M23 18C23 19.0714 21.7283 20 20.2609 20L16.7391 20C15.1739 20 14 19.0714 14 18C14 16.8571 15.2717 16 16.7391 16L20.2609 16C21.7283 16 23 16.8571 23 18Z" fill="#CED1F4"/>
<path d="M23 11C23 12.1429 21.6735 13 20.1429 13L10.8571 13C9.22449 13 8 12.0714 8 11C8 9.85714 9.32653 9 10.8571 9L20.1429 9C21.6735 9 23 9.85714 23 11Z" fill="#CED1F4"/>
<path d="M23 4C23 5.14286 21.6409 6 20.0727 6L2.92727 6C1.25455 6 -5.11593e-08 5.07143 -1.10189e-07 4C-1.69219e-07 2.92857 1.35909 2 2.92727 2L20.0727 2C21.6409 2 23 2.92857 23 4Z" fill="#CED1F4"/>
</g>
<defs>
<clipPath id="clip0_201_7299">
<rect width="24" height="24" fill="white" transform="translate(0 24) rotate(-90)"/>
</clipPath>
</defs>
</svg>
