<svg width="47" height="47" viewBox="0 0 47 47" fill="none" xmlns="http://www.w3.org/2000/svg">
<path d="M14.1888 0.0146879C16.1357 1.41372 16.255 2.69756 14.5657 4.44216C14.2579 4.7605 14.2202 5.10397 14.2202 5.48515C14.2202 13.9987 14.2161 22.5123 14.2244 31.0279C14.2244 32.1526 14.7143 32.695 15.6333 32.7034C16.5502 32.7118 17.0275 32.161 17.0798 31.0572C17.1154 30.3116 17.084 29.6477 16.3639 29.1325C15.7798 28.7157 15.5747 28.0162 15.5747 27.2811C15.5789 24.7448 15.5789 22.2065 15.5747 19.6702C15.5747 18.9351 15.7777 18.2419 16.3576 17.8146C17.0212 17.3287 17.084 16.7193 17.0903 15.9967C17.1552 8.04235 22.7529 1.92474 30.6639 1.50378C38.445 1.08909 44.4321 6.96167 45.3072 13.7264C45.4453 14.7967 45.4788 15.869 45.4767 16.9476C45.4684 24.9752 45.4767 33.0029 45.4642 41.0306C45.4642 41.7594 45.5835 42.327 46.2052 42.8443C46.9819 43.4935 47.1912 44.4339 46.8249 45.4099C46.446 46.4214 45.6798 46.9827 44.5954 46.9869C40.9131 47.0037 37.2309 47.0058 33.5507 46.9848C32.5123 46.9785 31.7671 46.4319 31.384 45.4685C30.9821 44.4569 31.2144 43.5187 32.0057 42.8087C32.4872 42.3772 32.7217 41.9542 32.7196 41.3007C32.7028 32.8919 32.707 24.481 32.7091 16.0721C32.7091 15.3873 32.6631 14.7192 31.945 14.3841C31.4091 14.1327 30.8565 14.1537 30.3708 14.5307C29.6946 15.0543 29.5586 16.9161 30.2305 17.467C31.1349 18.2084 31.3798 19.1257 31.361 20.2315C31.3254 22.4557 31.3317 24.6799 31.3589 26.9041C31.3714 27.9052 31.1391 28.7744 30.3017 29.3776C29.6611 29.8404 29.8642 30.5001 29.8474 31.097C29.6946 36.4251 27.4631 40.5991 22.9162 43.4307C14.2977 48.7985 2.65632 43.0558 1.59288 32.9505C1.49449 32.0144 1.45052 31.0824 1.45052 30.1441C1.45052 22.3259 1.44843 14.5055 1.4568 6.68731C1.4568 5.61081 1.59288 4.52384 0.464535 3.83061C0.253102 3.70076 0.160993 3.37404 0.0144551 3.13947C0.0165485 2.30801 0.0542296 1.47027 0.00398813 0.6409C-0.0274128 0.115217 0.121218 -0.00206699 0.642474 2.73653e-05C5.15793 0.0230653 9.67338 0.0146879 14.1888 0.0146879ZM43.7099 28.1963C43.7099 24.0621 43.7371 19.9257 43.7036 15.7915C43.6471 8.81936 38.2943 3.35519 31.4259 3.21905C24.4611 3.07873 18.608 9.09163 18.832 16.1224C18.855 16.847 19.0999 17.1025 19.8117 17.0963C22.0684 17.0711 24.3272 17.09 26.5838 17.0879C27.5468 17.0879 28.0464 16.5964 28.0827 15.6135C28.1602 13.5924 29.8328 12.1871 31.8048 12.4887C33.423 12.7358 34.4759 14.0699 34.4759 15.9402C34.4843 24.2443 34.4927 32.5505 34.4634 40.8546C34.4592 41.7782 34.6853 42.1594 35.6796 42.1322C37.9698 42.0694 40.2642 42.0756 42.5564 42.1322C43.4901 42.1552 43.7371 41.8139 43.7288 40.9196C43.6911 36.6806 43.712 32.4416 43.7099 28.2005V28.1963ZM3.21526 18.7424C3.21526 22.8767 3.18804 27.013 3.22154 31.1473C3.27806 38.2346 8.94279 43.8747 15.8112 43.7239C22.7383 43.5731 28.1916 37.8702 28.0953 30.9211C28.0848 30.0938 27.8106 29.8299 27.0067 29.8425C24.75 29.8802 22.4912 29.853 20.2346 29.8551C19.3316 29.8551 18.8676 30.3123 18.8425 31.2269C18.7859 33.2877 17.2075 34.6993 15.2209 34.4669C13.5545 34.27 12.4492 32.9149 12.4471 31.0007C12.4388 22.6966 12.4304 14.3924 12.4597 6.08832C12.4639 5.1668 12.242 4.78354 11.2455 4.81076C8.95535 4.87359 6.66099 4.86731 4.37081 4.81286C3.43925 4.78982 3.18804 5.12492 3.19642 6.0234C3.23619 10.2624 3.21316 14.5013 3.21526 18.7403V18.7424ZM23.3579 28.0895C25.0222 28.0895 26.6885 28.0644 28.3528 28.1C29.2508 28.1189 29.6004 27.7335 29.592 26.856C29.569 24.6003 29.569 22.3447 29.592 20.0891C29.6004 19.2157 29.2571 18.8346 28.3569 18.8429C25.0975 18.8681 21.836 18.8681 18.5766 18.8429C17.6806 18.8367 17.3289 19.2095 17.3373 20.087C17.3603 22.3426 17.3603 24.5982 17.3373 26.8539C17.3289 27.7272 17.6723 28.1209 18.5724 28.1C20.1676 28.0644 21.7627 28.0895 23.3579 28.0895ZM7.8291 3.06826C9.49126 3.06826 11.1513 3.06826 12.8135 3.06826C13.3243 3.06826 13.8665 3.02218 13.8832 2.37293C13.9041 1.65876 13.2971 1.71321 12.8219 1.71112C9.49963 1.70274 6.17532 1.70274 2.8531 1.71112C2.38209 1.71112 1.77081 1.64829 1.78128 2.36246C1.79175 3.00962 2.32766 3.06826 2.84263 3.06826C4.50479 3.06826 6.16485 3.06826 7.82701 3.06826H7.8291ZM39.2028 43.8747C37.5072 43.8747 35.8115 43.8747 34.1138 43.8747C33.603 43.8747 33.0608 43.9229 33.0441 44.5721C33.0252 45.2863 33.6302 45.2318 34.1054 45.2339C37.4276 45.2423 40.7519 45.2423 44.0742 45.2339C44.5452 45.2339 45.1564 45.2968 45.1439 44.5826C45.1334 43.9354 44.5954 43.8768 44.0825 43.8768C42.456 43.8768 40.8294 43.8768 39.2007 43.8768L39.2028 43.8747Z" fill="black"/>
<path d="M6.3407 17.1863C6.3407 18.889 6.3407 20.5896 6.3407 22.2924C6.3407 22.8872 6.25278 23.4819 5.51171 23.4987C4.79577 23.5155 4.59481 22.9479 4.59271 22.3468C4.58225 18.9079 4.58224 15.4689 4.5969 12.03C4.59899 11.4185 4.84811 10.8823 5.55986 10.9284C6.22137 10.9703 6.3407 11.5148 6.3407 12.0803C6.3407 13.783 6.3407 15.4836 6.3407 17.1863Z" fill="black"/>
<path d="M6.33023 7.80569C6.33023 8.04864 6.34279 8.29158 6.32814 8.53243C6.29464 9.04346 6.0539 9.40997 5.51171 9.42463C4.97162 9.43929 4.68692 9.07697 4.62621 8.58479C4.57178 8.14079 4.57178 7.68422 4.60527 7.23812C4.64714 6.66008 4.913 6.20351 5.56405 6.24749C6.16485 6.28728 6.33651 6.75014 6.3407 7.28839C6.3407 7.46222 6.3407 7.63396 6.3407 7.80779C6.3386 7.80779 6.33651 7.80779 6.33232 7.80779L6.33023 7.80569Z" fill="black"/>
</svg>
