<svg width="85" height="42" viewBox="0 0 85 42" fill="none" xmlns="http://www.w3.org/2000/svg">
<path d="M59.8812 13.3742L59.8811 13.3745L48.7556 32.7178L48.7555 32.7181C48.4909 33.1771 48.4891 33.7466 48.7502 34.2075L48.7503 34.2077C49.0112 34.6691 49.4933 34.9506 50.0128 34.9506H72.2638C72.783 34.9506 73.2654 34.6683 73.5264 34.2075C73.7876 33.7453 73.7856 33.1769 73.5211 32.7181L73.521 32.7178L62.3956 13.3746L59.8812 13.3742ZM59.8812 13.3742C60.1429 12.9184 60.6223 12.6405 61.1383 12.6405M59.8812 13.3742L61.1383 12.6405M61.1383 12.6405C61.654 12.6405 62.1326 12.9182 62.3955 13.3745L61.1383 12.6405ZM52.8138 31.5343L52.5553 31.9839H53.0739H69.2027H69.7213L69.4628 31.5343L61.3984 17.5124L61.1383 17.0602L60.8782 17.5124L52.8138 31.5343ZM83.2426 38.7333H83.2986C84.0733 38.7632 84.7 39.4112 84.7 40.2161C84.7 41.0405 84.0438 41.7 83.2426 41.7H30.4628H30.4627H30.4627H30.4627H30.4626H30.4626H30.4626H30.4625H30.4625H30.4624H30.4624H30.4624H30.4623H30.4623H30.4623H30.4622H30.4622H30.4622H30.4621H30.4621H30.4621H30.462H30.462H30.462H30.4619H30.4619H30.4619H30.4618H30.4618H30.4618H30.4617H30.4617H30.4617H30.4616H30.4616H30.4616H30.4615H30.4615H30.4615H30.4615H30.4614H30.4614H30.4614H30.4613H30.4613H30.4613H30.4612H30.4612H30.4612H30.4611H30.4611H30.4611H30.461H30.461H30.4609H30.4609H30.4609H30.4608H30.4608H30.4608H30.4607H30.4607H30.4606H30.4606H30.4606H30.4605H30.4605H30.4605H30.4604H30.4604H30.4603H30.4603H30.4603H30.4602H30.4602H30.4602H30.4601H30.4601H30.46H30.46H30.46H30.4599H30.4599H30.4599H30.4598H30.4598H30.4597H30.4597H30.4597H30.4596H30.4596H30.4596H30.4595H30.4595H30.4594H30.4594H30.4594H30.4593H30.4593H30.4593H30.4592H30.4592H30.4592H30.4591H30.4591H30.459H30.459H30.459H30.4589H30.4589H30.4589H30.4588H30.4588H30.4588H30.4588H30.4587H30.4587H30.4587H30.4586H30.4586H30.4586H30.4585H30.4585H30.4585H30.4584H30.4584H30.4584H30.4583H30.4583H30.4583H30.4582H30.4582H30.4582H30.4581H30.4581H30.4581H30.458H30.458H30.458H30.4579H30.4579H30.4579H30.4578H30.4578H30.4578H30.4577H30.4577H30.4577H30.4576H30.4576H30.4575H30.4575H30.4575H30.4574H30.4574H30.4573H30.4573H30.4573H30.4572H30.4572H30.4572H30.4571H30.4571H30.457H30.457H30.457H30.4569H30.4569H30.4568H30.4568H30.4568H30.4567H30.4567H30.4566H30.4566H30.4566H30.4565H30.4565H30.4564H30.4564H30.4563H30.4563H30.4563H30.4562H30.4562H30.4561H30.4561H30.4561H30.456H30.456H30.4559H30.4559H30.4558H30.4558H30.4558H30.4557H30.4557H30.4556H30.4556H30.4556H30.4555H30.4555H30.4554H30.4554H30.4553H30.4553H30.4553H30.4552H30.4552H30.4551H30.4551H30.455H30.455H30.455H30.4549H30.4549H30.4548H30.4548H30.4548H30.4547H30.4547H30.4546H30.4546H30.4546H30.4545H30.4545H30.4544H30.4544H30.4544H30.4543H30.4543H30.4542H30.4542H30.4542H30.4541H30.4541H30.4541H30.454H30.454H30.4539H30.4539H30.4539H30.4538H30.4538H30.4538H30.4537H30.4537H30.4537H30.4536H30.4536H30.4536H30.4535H30.4535H30.4534H30.4534H30.4534H30.4534H30.4533H30.4533H30.4533H30.4532H30.4532H30.4532H30.4531H30.4531H30.4531H30.453H30.453H30.4529H30.4529H30.4529H30.4528H30.4528H30.4528H30.4527H30.4527H30.4527H30.4526H30.4526H30.4526H30.4525H30.4525H30.4525H30.4524H30.4524H30.4524H30.4524H30.4523H30.4523H30.4523H30.4522H30.4522H30.4521H22.0435H22.0435H22.0434H22.0434H22.0434H22.0433H22.0433H22.0432H22.0432H22.0432H22.0431H22.0431H22.0431H22.043H22.043H22.043H22.0429H22.0429H22.0429H22.0428H22.0428H22.0428H22.0427H22.0427H22.0427H22.0426H22.0426H22.0426H22.0425H22.0425H22.0425H22.0424H22.0424H22.0424H22.0423H22.0423H22.0423H22.0422H22.0422H22.0422H22.0422H22.0421H22.0421H22.0421H22.042H22.042H22.042H22.0419H22.0419H22.0419H22.0418H22.0418H22.0417H22.0417H22.0417H22.0416H22.0416H22.0416H22.0415H22.0415H22.0414H22.0414H22.0414H22.0413H22.0413H22.0413H22.0412H22.0412H22.0411H22.0411H22.0411H22.041H22.041H22.041H22.0409H22.0409H22.0408H22.0408H22.0408H22.0407H22.0407H22.0407H22.0406H22.0406H22.0405H22.0405H22.0405H22.0404H22.0404H22.0404H22.0403H22.0403H22.0402H22.0402H22.0402H22.0401H22.0401H22.04H22.04H22.04H22.0399H22.0399H22.0399H22.0398H22.0398H22.0398H22.0397H22.0397H22.0397H22.0396H22.0396H22.0396H22.0395H22.0395H22.0395H22.0394H22.0394H22.0394H22.0394H22.0393H22.0393H22.0393H22.0392H22.0392H22.0392H22.0391H22.0391H22.0391H22.039H22.039H22.039H22.0389H22.0389H22.0389H22.0388H22.0388H22.0388H22.0387H22.0387H22.0387H22.0386H22.0386H22.0386H22.0385H22.0385H22.0385H22.0384H22.0384H22.0383H22.0383H22.0383H22.0382H22.0382H22.0381H22.0381H22.0381H22.038H22.038H22.038H22.0379H22.0379H22.0378H22.0378H22.0378H22.0377H22.0377H22.0376H22.0376H22.0376H22.0375H22.0375H22.0374H22.0374H22.0374H22.0373H22.0373H22.0372H22.0372H22.0372H22.0371H22.0371H22.037H22.037H22.0369H22.0369H22.0369H22.0368H22.0368H22.0367H22.0367H22.0367H22.0366H22.0366H22.0365H22.0365H22.0364H22.0364H22.0364H22.0363H22.0363H22.0362H22.0362H22.0361H22.0361H22.0361H22.036H22.036H22.0359H22.0359H22.0359H22.0358H22.0358H22.0357H22.0357H22.0357H22.0356H22.0356H22.0355H22.0355H22.0354H22.0354H22.0354H22.0353H22.0353H22.0352H22.0352H22.0352H22.0351H22.0351H22.0351H22.035H22.035H22.0349H22.0349H22.0349H22.0348H22.0348H22.0347H22.0347H22.0347H22.0346H22.0346H22.0346H22.0345H22.0345H22.0345H22.0344H22.0344H22.0343H22.0343H22.0343H22.0342H22.0342H22.0342H22.0341H22.0341H22.0341H22.034H22.034H22.034H22.034H22.0339H22.0339H22.0338H22.0338H22.0338H22.0337H22.0337H22.0337H22.0336H22.0336H22.0336H22.0335H22.0335H22.0335H22.0334H22.0334H22.0334H22.0333H22.0333H22.0333H22.0332H22.0332H22.0332H22.0331H22.0331H22.0331H22.033H22.033H22.033H22.0329H22.0329H22.0329H1.75713C1.23759 41.7 0.755511 41.4185 0.494644 40.9572L0.49452 40.9569C0.233376 40.496 0.235214 39.9265 0.499782 39.4675L0.499928 39.4673L22.6042 1.03396L22.6044 1.03374C22.866 0.577933 23.3454 0.3 23.8614 0.3H61.1394C61.1968 0.3 61.2554 0.304297 61.3147 0.311711L61.3163 0.311904C61.3252 0.312972 61.3372 0.314905 61.3542 0.317949L61.3542 0.317988L61.359 0.318769C61.4044 0.32614 61.4494 0.335296 61.4931 0.346144L61.4931 0.346156L61.4957 0.346798L61.5127 0.350709L61.5234 0.353164C61.5249 0.353515 61.526 0.353781 61.5268 0.353968L61.5267 0.354049L61.5358 0.356618C61.5861 0.370853 61.6345 0.387295 61.681 0.405879C61.687 0.408754 61.6952 0.412398 61.7049 0.416082C61.7524 0.437164 61.8006 0.461897 61.8509 0.489957L61.8605 0.495987L61.8615 0.496635C61.8664 0.499747 61.8741 0.504606 61.8826 0.50973C61.9244 0.53646 61.962 0.561506 61.9962 0.586855C62.0129 0.599312 62.0247 0.608153 62.035 0.616354L62.0362 0.617261C62.0762 0.648849 62.1133 0.681367 62.148 0.715748L62.1564 0.724059L62.1654 0.731685L62.1677 0.733621C62.2067 0.773532 62.2425 0.814333 62.2755 0.856874L62.2862 0.871455L62.2868 0.872398C62.2912 0.878456 62.2974 0.887089 62.3043 0.896224C62.3317 0.933654 62.3568 0.971108 62.3801 1.00951C62.3895 1.02634 62.398 1.03868 62.4013 1.04342L62.4017 1.04404L78.656 29.3086L78.6561 29.3087C79.0651 30.0192 78.8272 30.9292 78.1322 31.3405L78.132 31.3406C77.4404 31.7504 76.5482 31.5152 76.1417 30.8075L76.1417 30.8074L61.3984 5.17296L61.1383 4.7208L60.8782 5.17296L41.835 38.2837L41.5764 38.7333H42.0951H83.2426ZM62.1635 0.729337C62.1635 0.729355 62.1635 0.729371 62.1636 0.729389L62.1635 0.729337ZM33.2518 38.2842L32.9947 38.7333H33.5122H37.506H38.0246H38.0257V38.4339L38.2847 38.5829L58.3373 3.71842L58.5959 3.26885H58.0772H45.0531H44.8791L44.7927 3.4198L24.8336 38.2843L24.5765 38.7333H25.0939H29.4481H29.622L29.7084 38.5824L47.0017 8.37606L46.7414 8.227L47.0017 8.37603C47.4074 7.66727 48.2988 7.43041 48.9912 7.83929L48.9913 7.83937C49.6874 8.24994 49.927 9.15906 49.5198 9.87046C49.5198 9.87047 49.5198 9.87048 49.5198 9.87049L33.2518 38.2842ZM24.8698 3.26885H24.6962L24.6097 3.41927L4.55708 38.2837L4.2985 38.7333H4.81713H21.0288H21.2027L21.2892 38.5824L41.2493 3.7179L41.5064 3.26885H40.989H36.9228H36.7489L36.6624 3.4198L20.302 31.9975L20.3018 31.9978C20.0317 32.471 19.5431 32.7342 19.0419 32.7342C18.7936 32.7342 18.5436 32.6703 18.3125 32.5342C17.6163 32.1236 17.3768 31.2145 17.784 30.5031L33.118 3.71789L33.3751 3.26885H32.8577H24.8698Z" fill="black" stroke="white" stroke-width="0.6"/>
</svg>
