<svg width="83" height="77" viewBox="0 0 83 77" fill="none" xmlns="http://www.w3.org/2000/svg">
<g opacity="0.4">
<mask id="mask0_336_727" style="mask-type:alpha" maskUnits="userSpaceOnUse" x="0" y="0" width="83" height="77">
<rect width="83" height="76.6962" fill="#D9D9D9"/>
</mask>
<g mask="url(#mask0_336_727)">
<path d="M82.3588 25.5328C81.739 25.2321 81.2218 25.5114 80.7283 25.9099C79.8058 26.6546 78.8595 27.373 77.9251 28.1033C77.3506 28.6594 76.8262 29.2847 76.0181 29.5258C75.2768 30.175 74.5569 30.8528 73.7894 31.471C67.0864 36.8673 60.381 42.2589 53.6661 47.6385C47.7903 52.3475 41.9002 57.0421 36.0172 61.7416C33.786 63.6724 31.5024 65.5364 29.1092 67.2644C26.1272 69.6893 23.1499 72.1189 20.1631 74.5391C19.6197 74.9782 19.0738 75.4293 19.3193 76.2145C19.5768 77.0356 20.3086 76.9998 20.9951 76.9998C25.1236 76.9998 29.2498 76.9998 33.3784 76.9998C49.2539 76.9998 65.127 76.9998 81.0025 76.9998C82.6234 76.9998 82.9881 76.7134 82.9881 75.3553C82.9952 59.2212 82.9905 43.0894 83 26.9553C83 26.3658 82.9452 25.8145 82.3612 25.5328H82.3588ZM79.26 74.7801C61.2392 74.7419 43.2183 74.7539 25.1951 74.7467C24.7351 74.7467 24.2512 74.8756 23.6529 74.5486C42.6248 59.3 61.53 44.1062 80.6234 28.7597C80.652 29.3826 80.6807 29.7311 80.6807 30.0795C80.6807 44.5071 80.6664 58.9348 80.7093 73.3624C80.7116 74.5367 80.3875 74.7825 79.2576 74.7801H79.26Z" fill="#D4D4D4" fill-opacity="0.831373"/>
<path d="M28.6611 61.8967C38.3818 54.0802 48.1097 46.2685 57.8328 38.4545C62.9983 34.304 68.1519 30.1368 73.3341 26.0054C74.216 25.3037 74.3138 24.6545 73.582 23.8168C73.0862 23.2488 72.6404 22.6401 72.1684 22.0506C67.8468 16.6614 63.5251 11.2747 59.2059 5.88785C58.8817 5.4845 58.5861 5.05012 58.0021 5C57.5134 5.0716 57.1273 5.33653 56.7506 5.63964C41.862 17.6472 26.9686 29.6523 12.08 41.6598C10.6998 42.772 10.6855 43.0608 11.7916 44.4332C16.404 50.1469 21.0141 55.8607 25.6194 61.5816C26.8804 63.1473 27.0783 63.1712 28.6611 61.8967ZM14.3993 42.5477C27.0211 32.428 39.6309 22.2917 52.2431 12.1601C53.8807 10.8427 55.5445 9.55861 57.1416 8.19341C57.7208 7.69936 58.0259 7.75187 58.4168 8.34616C58.8483 9.00251 59.3441 9.61828 59.8137 10.2531C61.0985 11.542 62.1855 12.9907 63.2176 14.4824C65.8135 17.6853 68.4093 20.8907 71.0076 24.0913C71.2197 24.3538 71.4319 24.6092 71.0815 24.898C70.4712 25.404 69.8586 25.9123 69.2222 26.3825C68.7836 26.7047 68.5953 26.2751 68.3831 26.0126C67.0864 24.4087 65.7873 22.8048 64.5072 21.1866C63.9923 20.5351 63.4083 20.0315 62.6169 20.6401C61.7707 21.2917 62.2689 21.9814 62.7552 22.5924C64.0448 24.2034 65.3248 25.824 66.6645 27.3921C67.1198 27.9243 67.0339 28.1701 66.5357 28.5854C64.7742 30.0556 64.7909 30.0723 63.3297 28.2632C61.561 26.0698 59.7803 23.886 58.0283 21.6807C57.5301 21.0506 56.9604 20.6091 56.2286 21.1461C55.3967 21.7595 55.7972 22.4611 56.3097 23.096C58.3024 25.5662 60.2642 28.0651 62.3023 30.4972C62.9173 31.2299 62.8243 31.6022 62.1068 32.1512C60.6313 33.2777 60.6528 33.323 59.4538 31.86C58.3477 30.5091 57.2584 29.1439 56.1714 27.7787C55.6899 27.1749 55.1607 26.6594 54.3836 27.2465C53.5398 27.8837 53.9545 28.5711 54.4527 29.194C55.7161 30.7764 56.9676 32.366 58.2738 33.9126C58.7482 34.4734 58.8388 34.7765 58.1761 35.3016C56.467 36.6573 56.4956 36.7002 55.1106 34.989C53.4135 32.8911 51.7282 30.7836 50.0238 28.6928C49.4899 28.0389 48.975 27.0365 47.9452 27.836C46.9012 28.6475 47.7569 29.3802 48.2837 30.0413C50.1883 32.4304 52.0905 34.8243 54.0451 37.1728C54.5958 37.8339 54.6625 38.1824 53.8926 38.7456C52.2407 39.9557 52.2812 40.0058 50.9845 38.3924C49.9666 37.1251 48.9226 35.8744 47.9285 34.588C47.4089 33.9173 46.8106 33.4257 46.0502 34.0534C45.2755 34.693 45.7212 35.3923 46.229 36.02C47.5042 37.5905 48.7462 39.192 50.0548 40.7338C50.5101 41.2708 50.4267 41.5309 49.9166 41.9486C48.1264 43.4164 48.155 43.4236 46.7009 41.6001C44.9203 39.3662 43.1039 37.1609 41.3233 34.9269C40.8132 34.2873 40.2554 33.8959 39.5236 34.4878C38.7632 35.1035 39.1351 35.7503 39.6189 36.3494C41.6379 38.8507 43.6331 41.371 45.6879 43.8389C46.2695 44.5358 46.2647 44.9344 45.521 45.4976C43.9573 46.6814 43.9811 46.722 42.7082 45.1539C41.6332 43.8293 40.5605 42.5023 39.4974 41.1681C39.0087 40.5548 38.4629 40.087 37.6977 40.6813C36.9277 41.2779 37.2591 41.9462 37.7358 42.5429C39.0206 44.1563 40.2935 45.7817 41.6356 47.3473C42.1481 47.9464 42.0861 48.24 41.4902 48.7197C39.8549 50.0395 39.8788 50.0682 38.5892 48.4715C36.7442 46.185 34.8849 43.9129 33.0685 41.6049C32.5441 40.9366 31.941 40.624 31.2521 41.1276C30.4774 41.6932 30.8398 42.3782 31.3237 42.9844C33.1234 45.2494 34.9207 47.5168 36.7204 49.7842C38.2197 51.2615 38.0052 52.2878 36.0219 53.1065C35.3688 53.3761 35.2329 52.8463 35.0232 52.4406C33.7646 50.9131 32.4893 49.3999 31.2545 47.8533C30.7134 47.1755 30.0937 46.753 29.3547 47.3855C28.6515 47.9894 29.0401 48.672 29.5216 49.2686C30.8183 50.8725 32.096 52.4931 33.4213 54.0731C33.8575 54.5934 33.817 54.8702 33.2831 55.2998C31.5453 56.7008 31.5739 56.7175 30.1437 54.9251C28.3631 52.6912 26.5586 50.4763 24.7804 48.2423C24.2798 47.6123 23.722 47.1946 22.9831 47.7793C22.2298 48.3736 22.5397 49.0204 23.0403 49.6362C25.0855 52.1637 27.1045 54.7151 29.1759 57.2235C29.6789 57.8321 29.7599 58.1806 29.0711 58.7224C27.2571 60.1544 27.2737 60.195 25.8411 58.4049C21.9724 53.5766 18.1298 48.7268 14.2325 43.92C13.7152 43.2828 13.8249 43.0035 14.3946 42.5453L14.3993 42.5477Z" fill="#D4D4D4" fill-opacity="0.831373"/>
<path d="M56.9509 19.5183C60.1212 19.4992 61.8279 16.7307 60.7386 13.375C60.6838 13.3034 60.6242 13.2318 60.5669 13.1625C60.1617 12.6542 59.7184 12.1816 59.2011 11.783C59.1534 11.7448 59.1081 11.7043 59.0604 11.6685C58.9127 11.6303 58.7577 11.6088 58.6195 11.5491C57.0271 10.8379 55.349 11.1124 54.1238 12.2914C52.8604 13.5086 52.4743 15.3535 53.1393 16.9932C53.7639 18.5326 55.268 19.5279 56.9509 19.5183ZM56.9127 13.4298C57.9949 13.4108 58.8721 14.2652 58.8745 15.3416C58.8793 16.3655 58.0521 17.2772 57.082 17.3226C56.0594 17.3679 55.0534 16.449 55.032 15.4514C55.0081 14.3726 55.8687 13.4489 56.9127 13.4322V13.4298Z" fill="#D4D4D4" fill-opacity="0.831373"/>
<path d="M73.141 44.4666C72.464 44.1396 71.9944 44.562 71.5391 44.9272C63.0317 51.7532 54.5338 58.5863 46.0311 65.4171C45.49 65.8515 44.9561 66.3121 45.2469 67.1093C45.5496 67.9327 46.2862 67.83 46.9608 67.83C51.087 67.83 55.2131 67.83 59.337 67.83C63.5418 67.83 67.7467 67.8348 71.9515 67.83C73.5677 67.83 73.8609 67.5508 73.8633 65.9875C73.8704 59.3549 73.8633 52.7198 73.8704 46.0871C73.8704 45.426 73.8418 44.8103 73.1386 44.4714L73.141 44.4666ZM71.5487 64.4719C71.5487 65.102 71.5844 65.6295 70.6619 65.6247C63.804 65.5961 56.9461 65.6056 50.0882 65.5985C49.9833 65.5985 49.876 65.5388 49.5185 65.4338C52.3694 63.1497 55.0534 61.0017 57.7375 58.8489C61.9733 55.455 66.2092 52.0587 70.4474 48.6648C70.7168 48.45 70.9671 48.0347 71.3246 48.1636C71.7346 48.3116 71.5391 48.7865 71.5415 49.1111C71.5534 54.2306 71.5415 59.3501 71.5463 64.4719H71.5487Z" fill="#D4D4D4" fill-opacity="0.831373"/>
</g>
</g>
</svg>
