<svg width="82" height="69" viewBox="0 0 82 69" fill="none" xmlns="http://www.w3.org/2000/svg">
<path opacity="0.05" d="M0 69V50.8421C0 45.3275 0.967847 39.4766 2.90354 33.2895C4.90598 27.0351 7.77615 21.0161 11.514 15.2325C15.3187 9.38158 19.8909 4.30409 25.2308 0L35.0427 8.57457C29.9699 14.4927 25.698 21.0833 22.2271 28.3465C18.823 35.5424 17.1209 42.9401 17.1209 50.5395V69H0ZM46.9573 69V50.8421C46.9573 45.3275 47.9251 39.4766 49.8608 33.2895C51.8632 27.0351 54.7334 21.0161 58.4713 15.2325C62.2759 9.38158 66.8482 4.30409 72.188 0L82 8.57457C76.9271 14.4927 72.6553 21.0833 69.1844 28.3465C65.7802 35.5424 64.0781 42.9401 64.0781 50.5395V69H46.9573Z" fill="#093F4E"/>
</svg>
